<?xml version="1.0" standalone="no"?>
<!DOCTYPE svg PUBLIC "-//W3C//DTD SVG 1.1//EN" "http://www.w3.org/Graphics/SVG/1.1/DTD/svg11.dtd" >
<svg xmlns="http://www.w3.org/2000/svg">
<metadata></metadata>
<defs>
<font id="scurlockregular" horiz-adv-x="2048" >
<font-face units-per-em="2048" ascent="1638" descent="-410" />
<missing-glyph horiz-adv-x="524" />
<glyph horiz-adv-x="0" />
<glyph unicode="&#xd;" horiz-adv-x="524" />
<glyph unicode=" "  horiz-adv-x="524" />
<glyph unicode="&#x09;" horiz-adv-x="524" />
<glyph unicode="&#xa0;" horiz-adv-x="524" />
<glyph unicode="!" />
<glyph unicode="&#x22;" />
<glyph unicode="#" />
<glyph unicode="$" />
<glyph unicode="%" />
<glyph unicode="&#x26;" />
<glyph unicode="'" />
<glyph unicode="(" />
<glyph unicode=")" />
<glyph unicode="*" />
<glyph unicode="+" />
<glyph unicode="," />
<glyph unicode="-" />
<glyph unicode="." />
<glyph unicode="/" />
<glyph unicode="0" />
<glyph unicode="1" />
<glyph unicode="2" />
<glyph unicode="3" />
<glyph unicode="4" />
<glyph unicode="5" />
<glyph unicode="6" />
<glyph unicode="7" />
<glyph unicode="8" />
<glyph unicode="9" />
<glyph unicode=":" />
<glyph unicode=";" />
<glyph unicode="&#x3c;" />
<glyph unicode="=" />
<glyph unicode="&#x3e;" />
<glyph unicode="?" />
<glyph unicode="A" horiz-adv-x="1136" d="M-258 307q8 59 121 127q104 60 170 60h2l6 8q0 23 -6 67.5t-6 67.5q0 18 19.5 43t21.5 35q12 39 12 147q18 10 54 43t36 47q-8 14 -8 31q0 51 151 221q37 39 167 96.5t184 57.5q27 0 75 -2h78q121 0 189 26q8 -2 94 -26q-2 -51 -12.5 -57.5t-63.5 -6.5l-16 -4 q-39 -47 -39 -211q0 -31 10 -87t10 -79q0 -12 -14 -32.5t-14 -30.5q0 -14 26 -21q18 -90 19 -180q0 -121 -45 -166q2 -4 15 -19.5t13 -24.5t4 -154q2 -38 2 -70q0 -49 -4 -86q14 -29 49 -33q29 -4 60 -6q0 -49 -23 -68l-14 3q-18 0 -41 -11.5t-29 -11.5q-23 0 -64.5 12.5 t-64.5 12.5q-25 0 -67.5 -12.5t-65.5 -14.5q-4 -10 -37 -8h-30v10q0 41 58 66.5t58 56.5q0 57 -5 171t-5 171q0 12 25 72q-6 8 -13.5 25.5t-7.5 90.5q0 59 -12 86l-41 2h-8q-238 0 -467 -235v-35q41 -8 123 -37q53 -25 123 -88q79 -75 79 -116q0 -38 -26 -66 q-25 -12 -70 -43q-33 -47 -106 -129q-14 -12 -27 -12q-29 0 -46 6t-67.5 52t-65.5 65.5t-50 170.5q-27 119 -95 119q-12 0 -34.5 -3t-34.5 -3zM252 297q0 -37 39 -117t69 -80q14 0 43 29q-45 201 -151 203v-35zM285 745l157 80l29 -16l252 90q35 0 53 6l-41 338 q-76 -12 -180 -55q-86 -37 -172 -76q-25 0 -39 -16q8 -25 8 -49q0 -51 -30 -150q-33 -106 -37 -152z" />
<glyph unicode="B" horiz-adv-x="1138" d="M-10 772q6 43 59 43q20 0 58 -5t57 -5q16 27 35 29l14 -7q12 10 12 21q0 55 -22.5 164.5t-22.5 165.5q0 8 2 25.5t2 25.5q0 23 -53 47q-45 23 -76 27v4q0 29 21 67q18 -4 114 -33q72 -20 117 -20q16 0 21 8h118l23 -8q6 0 28.5 14.5t34.5 14.5q10 0 37 -15q12 0 47 16.5 t62 16.5q18 0 54 -2t55.5 -2t43 -35t37.5 -35q49 0 100.5 -58t51.5 -108q0 -20 -8 -34q51 -23 51 -127q0 -29 -49 -107l-72 -106q6 -8 45 -45q25 -23 35 -60q4 -18 59 -88q45 -61 45 -131q0 -55 -34.5 -113.5t-32.5 -103.5q-18 -45 -76 -119q-6 -4 -45 -18q-25 -10 -33 -35 q-88 -41 -135 -41q-16 0 -48 7t-48 7q-31 0 -111 -14t-92 -14q-27 0 -83 17t-87 17q-61 -27 -65 -26q-12 0 -35 7t-35 9l-55 -24h-15l-61 30q6 70 39 70q18 0 30 -18q20 6 42 14t18 27q51 197 51 294q0 8 -20.5 38t-22.5 46q10 8 33 23v29v11q0 63 -21 91q16 16 17 33 q0 80 -27 80q-6 0 -15 -6.5t-16 -4.5zM389 424q0 -39 18.5 -116t18.5 -114.5t12 -48.5q55 2 168 21q20 6 60 12h10q10 0 29 29q23 2 57.5 23.5t50.5 25.5q21 23 41 84t20 93q0 220 -294 286q-31 -20 -54 -21q-18 0 -118 23l8 -23q0 -16 -13 -28q20 -143 21 -213h-12 q-23 0 -23 -33zM403 1075q0 -223 29 -278q51 6 152 26q6 -12 41 -12q49 0 149 79t100 128q0 6 -3 21.5t-3 23.5q0 23 21 29q0 35 -50.5 93t-82.5 58q-4 0 -14.5 -2t-14.5 -2q-20 0 -74 18q-10 -2 -123 -40q-68 -24 -114 -24q-7 0 -13 1v-119z" />
<glyph unicode="C" horiz-adv-x="1157" d="M39 618l6 29q-4 10 -4 27q-1 31 25 129q22 85 23 125q0 6 -1 12q2 0 86 94q-8 16 -8 41q0 59 43 60q10 0 22 -5q4 53 47.5 99.5t94.5 58.5q16 4 48 40t38 36t21.5 -5t21.5 -5l63 16q41 -8 146 -49q90 -35 147 -35q66 0 111 33q29 20 80 84q67 -23 67 -59q0 -33 -18 -52 q-8 -8 -43 -30q-113 -74 -205 -265q-51 -102 -57 -102q-35 0 -35 49q0 12 6 39t6 41q0 16 -7 57q-5 32 -5 53v11q-35 29 -70 59q-45 35 -84 35q-16 0 -51 -7t-53 -7q-80 0 -156 -199q-66 -170 -65 -270v-166q0 -39 16 -105q20 -72 22 -104q6 -12 17 -90q10 -63 35 -74 q8 -25 32 -67q20 -27 80 -51.5t99 -24.5q90 0 135 37q14 -10 26 -11q47 0 97 74l28 4q47 82 86 133q-2 14 14.5 42t16.5 53q0 66 -59.5 116.5t-126.5 50.5q-78 0 -78 -69q0 -41 29 -96l102 18l33 -57q-86 -100 -160 -101q-57 0 -96 72q-31 59 -31 123q0 88 67.5 155.5 t155.5 67.5q12 0 90 -13.5t82 -15.5q10 -8 21.5 -42.5t19.5 -43.5q16 -14 32.5 -28.5t16.5 -46.5v-9q31 -49 31 -96q0 -16 -6 -47t-6 -47l-51 -33q0 -23 -28 -76t-48 -57q-53 -43 -107 -88q-75 -58 -105 -58q-3 0 -5 1q-39 -4 -64 -31l-151 12q-78 8 -205 92 q-117 78 -170 150q-8 10 -10 72q-12 16 -47 38l2 25q0 42 -35 140q-30 83 -30 127q0 7 1 14z" />
<glyph unicode="D" horiz-adv-x="1114" d="M-76 25q29 20 45 22q43 4 84 8t51 17h119v82q-31 18 -39 18q35 92 35 150l-18 170l10 -21l4 12q-6 16 -20 45l-11 -22q-2 10 -2 59q0 33 -16 43v43q33 27 33 90q0 16 -5.5 49t-5.5 50l7 10q6 8 20 35q0 16 -8 30q-12 -8 -25 -20q0 14 -7 45t-7 47q0 20 12 33 q-35 39 -71 76q-47 47 -86 49v37q0 8 10 21.5t18 13.5q66 0 142 -35q8 0 20 7t20 7q27 0 83.5 -20.5t74.5 -36.5l12 16q8 -57 9 -96q0 -20 -9 -51q-8 -37 -8 -52l11 -24v-125q0 -8 -9.5 -21.5t-9.5 -21.5q6 -14 19 -39v-102q-18 -8 -19 -35q0 -27 19 -35v-70q-29 -4 -29 -32 q0 -18 10 -35l4 16q22 -60 25 -60v1q0 -39 -19 -107l11 -10q-27 -16 -27 -41q0 -41 20 -125l11 -4l147 59q14 -4 25 -10l121 74q-12 4 -25 4q25 14 70 51l-21 4q23 12 37 41q20 45 25 49l10 -14q-2 -2 -2 47l4 19q35 29 35 92q0 18 -3.5 51t-3.5 45l15 4v125l14 4v31l-14 2 v125q-10 6 -12 22q-2 10 0 29q2 23 2 27l-7 20q-20 27 -135 135q-10 35 -43 35q-18 0 -33.5 17.5t-21.5 17.5l-12 -8q-27 0 -58 30q-23 27 -45 52q-8 -12 -37.5 -25.5t-35.5 -30.5q-92 82 -285 82q-14 0 -40 9.5t-38 9.5q-4 14 -4 28q0 18 4 35q79 -13 78 -14v0h-2 q0 1 92 14l4 2l25 -8l10 2q14 -8 41 -20q31 0 88 17t86 17q39 0 158 -45q111 -43 153 -71l70 -62q47 -39 70 -39h4q12 -35 39 -80q32 -53 55 -53h2q61 -213 61 -356q1 -35 -29 -113q-28 -73 -28 -133v-8q-30 -12 -62 -66q-27 -45 -27 -74q0 -5 1 -10q-123 -111 -168 -141 q-84 -57 -205 -88h-4q-18 0 -35.5 -15.5t-17.5 -31.5q-10 8 -33 25q-82 0 -98.5 -14.5t-16.5 -96.5v-197q0 -2 -37 -39v-20q-1 -7 -1 -16q0 -20 4 -51q4 -44 4 -66q0 -45 -11 -82h-39q-10 16 -10 63q0 20 4 61.5t4 61.5q0 25 -9 83.5t-9 99.5q0 23 -31 184h-295q-6 18 -6 31 z" />
<glyph unicode="E" horiz-adv-x="1097" d="M-127 776v10q-2 35 64 35q25 0 71.5 -7t71.5 -7q6 0 141 10q0 25 -12 74t-12 74q0 39 22.5 96t22.5 59l-2 15q-10 18 -35 51q-4 6 -105 100q-35 2 -102 8q8 45 29 70h161q39 0 113 -9q61 -7 98 -7h15h260q12 0 33.5 6t31.5 6t27.5 -8.5t26.5 -8.5q23 0 59.5 31t54.5 31 q6 0 33 -19v-8q0 -31 21 -78q27 -57 32 -73q0 -33 13 -99q6 -14 51 -90q30 -51 30 -97q0 -21 -12 -48h-4q-35 29 -96 125q-59 86 -105 117q-10 6 -19 26.5t-11 24.5q-41 61 -258 61q-20 0 -62 -9q-35 -7 -59 -7h-10q2 6 2 -55q0 -27 -13.5 -76t-13.5 -74q10 -10 35 -8 q6 -16 6 -25q0 -23 -10.5 -68.5t-10.5 -70.5q0 -33 33 -33q221 0 303 33q8 4 22.5 25.5t43.5 25.5q12 -18 24 -69q14 -59 21 -74q10 -25 45 -66q43 -51 51 -63l-6 -58h-6q-18 8 -86 64q-57 49 -82 49q-6 0 -15.5 -5t-15.5 -5q-4 0 -78.5 17.5t-83.5 21.5q-23 18 -67 18 q-45 0 -82 -16q-47 -20 -47 -60q14 -4 39 -20l6 -23q0 -20 -6 -61t-6 -61v-310q10 -16 10 -57q12 -18 26 -18h191q23 0 78 31.5t82 31.5q10 0 43 -10l10 4l2 10q0 4 -9 16.5t-9 20.5l49 104q70 154 256 273q-2 -16 -47 -88q-51 -82 -58 -94q-86 -182 -123 -422 q-4 -20 -23.5 -43t-39.5 -23q-18 49 -51 109q-51 -12 -103 -23q-61 -14 -104 -14q-49 0 -150.5 10t-152.5 10q-33 0 -86 -10q-66 -14 -88 -16q-27 16 -80 37q10 37 22 63q16 2 47 8q12 16 29 19q16 -2 33 -2l29 2q-31 61 -31 75q1 -17 2 -17q2 0 2 134q0 10 27 82 q-27 70 -29 100v-2q2 0 2 131q0 6 3 21.5t3 24.5q0 20 -30.5 60t-49.5 40q-10 0 -51 -8.5t-47 -8.5z" />
<glyph unicode="F" horiz-adv-x="1163" d="M-123 932q4 12 27.5 27.5t36.5 15.5q12 0 35.5 -5t35.5 -5l209 6q0 39 -28 39q14 44 14 104v16v72q0 43 -180 125q12 47 94 47q59 0 179 -15.5t179 -15.5q20 0 60.5 10.5t62.5 10.5q27 0 84 -7t86 -7q57 0 108.5 29.5t67.5 82.5q10 -2 115 -135q123 -154 127 -158 q-19 -14 -72 -32q-31 0 -69.5 37.5t-63.5 42.5q-84 20 -250 55q-72 -25 -215 -25q-2 0 -71 10q-31 -8 -43.5 -44.5t-22.5 -69.5q16 6 25 6q16 0 20 -35q3 -17 2 -42v-28q-2 -63 -2 -51l4 -22q150 -2 152 -2q80 0 133 18q33 12 114 60q23 -12 99 -86q68 -66 94 -76v-6 q2 -41 -63 -41q-27 0 -84.5 22.5t-88.5 22.5q-193 0 -219 8l-12 4l-12 -6q-76 0 -129 4l-2 -23q0 -31 14 -90q10 -45 21 -90q-14 -55 -54 -137q2 -37 23.5 -112.5t21.5 -118.5q0 -16 -10 -46t-10 -47q0 -49 35 -100q37 -57 82 -57v-9q0 -16 34 -16q-4 -65 -35 -65h-1 q-10 0 -37 14t-45 14q-14 0 -39 -7t-37 -7q-16 0 -49 9t-52 9q-16 0 -47.5 -14t-48.5 -14q-14 0 -41 14q-35 20 -39 20v13q-2 35 37 41q6 2 64 4h6v389q0 12 12 38.5t12 41.5q0 41 -17 124t-17 126q0 33 14 43q-8 16 -37 49t-41 33q-14 0 -44 -7.5t-44 -7.5q-2 0 -168 25z " />
<glyph unicode="G" horiz-adv-x="1126" d="M23 608q0 41 2 68l-2 -2q0 53 25 160q24 100 24 156v9q29 33 88 99q-8 16 -8 41q0 61 43 61q10 0 22 -4q8 23 21 66q31 37 61 71q27 25 80 25h8q33 49 33 55t-4 10q12 4 35 11q6 0 20 -5.5t21 -5.5q16 0 42.5 6.5t38.5 8.5q37 -23 119 -52q35 -2 102.5 -16t61.5 -14 q47 0 80 18q57 33 68 37q8 12 32 35q14 0 19 22q6 -2 65 -30v-49q0 -12 -63 -60q-14 -2 -70 -65q-68 -80 -74 -84q-37 -35 -55 -95q-27 -92 -31 -104q-14 -27 -36 -27q-18 0 -33 23q0 20 6 61t6 62q0 12 -10 37.5t-10 38.5q0 12 8 28q-35 33 -74 68t-86 35q-147 0 -217 -123 l-23 -10q-94 -233 -94 -418q0 -109 21 -342q0 -14 9 -45t9 -50q0 -16 -8 -26q35 -53 73 -108.5t103 -67.5q35 -6 43 -8q25 -8 39 -23l16 16q6 2 25 9q12 4 22 4q6 0 14.5 -5.5t12.5 -5.5q12 6 19 17l12 -4q20 0 58 25.5t44 45.5q39 6 64 60q20 42 20 78v10q18 8 19 26 q0 14 -7.5 43t-7.5 44q-27 0 -74 13t-67 15q-25 -55 -84 -160q-6 25 -27 29q8 49 37 129q35 94 43 131h15l14 -2q18 -14 61 -14q242 0 277 31l10 -13v-2q39 10 31 10q6 -14 6 -36q0 -12 -2 -25q-25 -27 -31 -49l-22 -10v-105q-18 -47 -19 -69q0 -76 19 -156h-7 q-12 2 -12 -37q0 -18 -11 -60q-7 -27 -7 -50q0 -12 2 -23q-4 -8 -4 -223q-18 -14 -39 -45q-3 -18 -3 -45q0 -13 1 -29q4 -66 4 -76q0 -76 -14 -104q-39 23 -39 118q0 23 2 60t2 49q0 66 -17 100q0 213 -61 299q-45 -33 -88 -63q-70 -51 -82 -51l-27 8q-35 -10 -102 -33v8 q0 31 -121 54l-25 6q-59 12 -110 57q-23 20 -84 94q-2 2 -57 43q-31 25 -29 60v18q-35 33 -49 64q0 88 -11 131q-4 18 -26 45q-14 20 -14 67z" />
<glyph unicode="H" horiz-adv-x="1273" d="M-53 834q0 10 6 20q35 16 57 16q27 0 80 -7t80 -7q33 0 55 23l6 20q-29 25 -32 102q0 -10 1 -10t1 125q0 96 -29 137q-34 45 -115 45h-14q27 74 57 74q6 0 34 -3t52 -3q14 0 41 8t41 8t38 -10t36 -10q25 0 70 20l116 -22v-37q0 -4 -16 -35q-31 6 -43 6q-47 0 -72 -102 q-18 -70 -18 -141q0 -25 9 -68t9 -68q0 -14 -2 -30q147 -4 447 -15v213q0 106 -25.5 139t-118.5 48q8 41 13 47q10 20 41 20q8 0 24.5 -5t24.5 -5q49 35 96 35q10 0 25.5 -10.5t25.5 -10.5t55.5 22.5t57.5 22.5q-8 0 45 -6q6 -16 22 -43l29 23h14h33v-10q0 -41 -57 -66 q-43 -20 -84 -20h-10v-371q23 23 69 57l205 -188l-2 -17q-16 -18 -41 -18q-41 0 -113.5 22.5t-111.5 22.5q10 -31 8 -49v-23q-10 -4 -14 -36q-1 -12 -1 -29t1 -37q2 -25 2 -49q-14 -27 -41 -82q41 -29 41 -94q0 -29 -8.5 -86.5t-8.5 -85.5q0 -109 115 -133q-2 -49 -23 -66 q-25 -2 -75.5 -9t-77.5 -7q-12 0 -38 9t-38 9t-33.5 -9t-33.5 -9q-27 0 -70 8q-51 10 -68 12q-2 18 -2 19q0 31 58 47q78 20 84 24q4 55 8 111q6 68 22 110q-20 145 -20 148q0 18 25.5 42.5t25.5 45.5v2q-23 -14 -29 -14q-43 0 -43 92q0 27 3 82t6 82q-37 -4 -74 -11 q-53 -10 -53 -22q-98 14 -187 14q-20 0 -28 -10q-16 -4 -27 -4q-23 0 -55 14q0 -78 -2 -237.5t-2 -239.5q0 -92 10 -131q4 -18 31.5 -38.5t27.5 -55.5q0 -10 23 -15q0 -75 -41 -75q-14 0 -60 26l4 4l-4 -2q-6 0 -23.5 -5t-25.5 -5q-10 0 -25.5 10.5t-23.5 10.5 q-43 0 -106 -43h-140v43q0 20 39 26q49 6 58 12q37 25 37 116l-1 5q0 93 27 295v4q0 14 -25 41q-8 44 -8 111v27q7 140 8 140v-1q-25 8 -24 8q-33 0 -51 -10l-164 26z" />
<glyph unicode="I" horiz-adv-x="575" d="M18 1313v8q-2 29 21 53q70 -20 102 -20q18 0 51 12t50 12q18 0 75 -24q160 41 164 41q14 0 39 -15q0 -30 -14 -61q-18 10 -33 10q-14 0 -45 -20.5t-40 -32.5t-11 -41q0 -18 2 -51v-43q0 -23 -14.5 -53.5t-14.5 -38.5q0 -23 12.5 -68t12.5 -70q0 -20 -23 -51 q-29 -39 -33 -53q29 8 41 8q35 0 35 -96q0 -45 -10 -134t-10 -134t5 -137.5t5 -137.5q0 -35 49 -69.5t86 -34.5q0 -41 -18 -62l-121 6q-10 0 -26.5 -8t-24.5 -8q-10 0 -26.5 10t-27.5 10q-35 0 -100 -27.5t-102 -27.5q-41 0 -41 33q0 43 22 43q6 0 17.5 -5t15.5 -5 q86 0 86 176q0 31 -3 74t-3 51q0 31 12 78q10 37 19 75q-10 14 -24.5 71.5t-14.5 80.5q0 6 4 14t4 15q0 115 12 141q29 72 35 98q-14 8 -30.5 29.5t-16.5 34.5l20 147q-8 23 -8 60q-2 47 -6 61q-10 51 -70 57q-76 10 -86 19z" />
<glyph unicode="J" horiz-adv-x="1077" d="M6 1171q47 23 135 160q84 131 105 131q12 0 29.5 -36.5t25.5 -43.5q49 -41 127 -41q12 0 38 5.5t40 5.5q18 0 56 -7.5t56 -7.5q29 0 81.5 9.5t74.5 9.5l184 10h2q19 0 78 -35l2 -12q0 -27 -20 -45l-16 2q-104 0 -105 -131q0 -33 5 -100.5t5 -100.5v-276q0 -33 -15 -97.5 t-15 -97.5q0 -23 14 -27v-8q0 -10 -4 -29.5t-4 -27.5q0 -4 14 -41q0 -66 -45 -174q-23 -25 -63 -76q-10 -25 -46 -63q-156 -100 -292 -101q-55 0 -162 37q-117 42 -117 83v5q-143 104 -143 185q0 70 59 102q66 27 129 51q14 2 41 -2q10 -12 10 -22q0 -35 -44 -71t-44 -81 q0 -68 111 -135q98 -57 170 -62q152 57 207 183q23 63 45 125q-4 12 -25 36q-6 23 -14 70q8 14 8 113q0 6 -25 100l35 201q-6 16 -22 20l-2 8q0 14 6 40t6 36v-1l-2 179h29h28q-16 37 -32 76q-25 53 -46 53q-6 0 -79 -14l-115 25q-86 -16 -254 -56q-43 -35 -105 -82 q-29 -6 -40 -6l-46 21q-8 10 -14 28z" />
<glyph unicode="K" horiz-adv-x="1273" d="M-6 18q0 30 62 44q61 14 61 54q0 92 -6 92v-1q0 43 11 124t11 115q29 29 29 103q0 -2 -6 26l-27 11q-8 12 -8 28q0 12 6 35t6 35q0 20 -14 35q14 16 16 65q2 35 2 70q-10 8 -35 25l2 14q16 23 43 70q0 23 -8 78t-8 87q0 61 -27 103q-14 25 -6 33l2 10q0 18 -20.5 23.5 t-38.5 7.5l-33 -13v47q-2 18 60 31q42 8 66 8h9l23 -2l6 -8l16 4q8 0 21.5 -10t21.5 -10q31 0 89.5 17t89.5 17q8 0 22 -5t23 -5q-2 -20 8 -24q6 -2 26 2q-2 -45 -28 -56q-10 -6 -68 -8l2 -18q-4 -6 -20 -39q-16 0 -21 -29q-8 -37 -12 -43l16 -8q-20 -61 -39 -149l9 -9 l-23 -18q18 -4 51 -14l-6 -15l-10 -90v-735q59 -61 119 -66q-2 -41 -19 -55q-10 -2 -24 -2l-117 6q-64 16 -64 19h1q-27 0 -80.5 -17.5t-81.5 -17.5q-14 0 -78 16zM428 688q0 -10 6 29h5q52 0 100 43q63 57 90 67q168 209 168 215q-2 12 -4 35q4 18 34 60q25 37 25 63 q0 23 -12 43v-2q-29 18 -97 21v30q0 28 40 28q7 0 16 -1q8 6 20 18q84 25 107 25q2 0 30 -14q49 -2 134 -17l2 -18q0 -20 -29 -29q-37 -8 -51 -35q-51 -86 -103 -172q-59 -106 -82 -178q-14 -51 -194 -215q14 -27 18 -102q31 -18 58.5 -89t89.5 -98q25 -59 137.5 -130.5 t177.5 -71.5q31 0 75 23.5t44 51.5q0 16 -12 39h30q29 0 29 -102q0 -20 -23 -70q-81 -174 -243 -174q-37 0 -76 16l-8 13q0 18 4 28q-2 2 -43 2q-23 0 -74 21.5t-51 40.5q0 8 5 24.5t5 24.5q0 4 -4 33q-4 4 -104 55q-72 35 -72 76q0 18 14 45q-47 8 -78 90q-20 63 -43 125 q0 23 -30.5 62.5t-30.5 70.5z" />
<glyph unicode="L" horiz-adv-x="1124" d="M45 1311q6 59 27 59q6 0 15 -6t15 -6q14 0 39 11t37 11q-4 0 41 -14q39 -12 134 -12h28h96q23 0 66 10t67 10q31 0 41 -14q0 -49 -18 -66l-15 15q-27 2 -45 2q-2 0 -8 -2q-86 -51 -112 -150q-14 -57 -15 -194q0 -23 18.5 -77t18.5 -83q0 -12 -10 -34.5t-10 -35.5v-110 q0 -8 -23 -41q10 -6 27 -27l-13 -215q6 -18 7 -33q0 -31 -29 -61q33 -20 37 -86q4 -55 45 -56q10 0 28.5 9.5t24.5 9.5q18 6 51 6q76 2 152 2q88 2 115 25q59 51 108 121q31 47 59 96q41 61 82 65q-27 -96 -51 -194q-22 -94 -22 -161q0 -19 2 -36q-8 -8 -43 -90 q-27 -59 -66 -72q-8 35 -16 68q-14 45 -39 47q-369 20 -561 21q-8 0 -224 -21v37q0 23 78 33t78 39q-10 16 -31 51v311q12 4 33 19q-10 14 -31 40q-12 49 -12 148q0 156 12 211q2 8 13 35q8 20 8 32q0 8 -9 16.5t-12 10.5q2 -4 3 59q0 193 -119 261q-20 -10 -29 -11 q-8 0 -22.5 7.5t-20.5 9.5z" />
<glyph unicode="M" horiz-adv-x="1361" d="M-29 1358q4 63 35 63q6 0 24.5 -10t24.5 -12t178 -27l9 25h39q35 0 98 -101l-2 41q41 -35 53 -30q8 -37 55 -64q41 -23 80 -43q57 -41 176 -274q215 299 246 299q10 0 0 -19q35 23 176 160q4 -8 13 -29q35 8 118 45q76 35 119 39l2 -4q-14 -25 -39 -76l23 7 q-29 -29 -82 -88q-63 -78 -64 -293q0 -55 10.5 -163t10.5 -161q0 -57 -12 -71q-10 -13 -50 -13h-12q4 -10 33 -51q20 -31 20 -51q0 -12 -24 -135q29 -115 37 -228q18 -16 41 -18q39 -4 45 -6q4 -18 4 -19q0 -51 -70 -51q-16 0 -45 10t-45 10q-12 0 -36.5 -12t-39.5 -12 q-14 0 -39.5 7t-38.5 7l-55 -20q-27 31 -53 35v34q0 8 10 19.5t19 11.5q6 0 16 -5t16 -5q39 0 62 63q14 47 14 99q0 27 -10 83t-10 85q0 18 45 53q-18 61 -39 121q-16 53 -17 145q0 25 14.5 76t26.5 72q-29 114 -29 221q0 21 1 43q-55 -20 -169 -166t-114 -199q0 -14 2 -44 t2 -44q0 -74 -41 -119q4 -37 4 -75q0 -16 -6 -150l-18 -4q-23 0 -25 102q0 -13 1 -13t1 140q0 74 -14 97v104q0 18 -44 95t-59.5 79t-48.5 10q-12 37 -65 96.5t-86 59.5q-61 0 -62 -59q0 -23 12.5 -67t12.5 -69q0 -20 -23 -53q-29 -41 -32 -49q25 6 38 6q37 0 37 -94 q0 -51 -11 -154.5t-11 -154.5q0 -39 6 -115t6 -113q0 -20 29 -49q35 -35 41 -45q4 -2 14 -18.5t21 -14.5l10 -12q0 -23 -19 -22q-12 0 -35.5 9t-29.5 9q-12 0 -46 -15.5t-48 -15.5q-8 0 -22.5 11.5t-20.5 9.5l-215 -60v7q0 31 51 64.5t61 62.5q4 18 2 45q-4 43 -4 45v186 q0 18 13.5 54t13.5 55q-39 63 -39 151q4 8 12 27q0 166 18.5 183t24.5 54q-47 10 -47 52q0 27 11.5 75.5t11.5 73.5q0 100 -15 125q0 2 -80 94q-10 -10 -24 -16q-14 0 -32.5 20.5t-31.5 24.5z" />
<glyph unicode="N" horiz-adv-x="1275" d="M-12 1333q8 33 8 37q8 23 22 23q10 -4 29 -15q8 0 20.5 7.5t18.5 7.5q168 0 240 -37q47 -25 69.5 -83.5t46.5 -76.5q4 -37 60 -59q70 -90 133 -215q4 -8 106 -228q4 -6 82 -78l-2 -24q-2 -68 70 -127q43 -84 67 -178q23 6 23 45q0 25 -14.5 72t-14.5 71q16 25 49 74 q-14 -2 -24 -8q-43 31 -43 104q0 16 3 51t3 52q0 23 -5 62.5t-7 55.5q10 0 30 60q18 53 19 71q0 4 -21.5 46t-21.5 87q0 25 6 52q-14 23 -69.5 54.5t-69.5 55.5q0 14 22 60q14 -14 68 -41q27 12 53.5 25.5t54.5 13.5q10 0 25.5 -10.5t24.5 -10.5q14 0 56 22.5t56 22.5 q20 0 53 -10q41 -14 54 -16q4 -18 4 -19q0 -29 -62.5 -47t-62.5 -47q0 -16 14 -39q-2 -47 -2 -623q0 -23 -16 -53q-25 -49 -27 -51q4 -6 24.5 -24.5t20.5 -36.5q0 -14 -24 -127h-9q-23 2 -22 -39q0 -10 12 -26.5t12 -25.5q0 -35 -7 -102.5t-7 -101.5v-201q0 -4 -37 -41 q4 -68 4 -121q0 -90 -16 -131l-8 -2q-37 0 -37 55q0 78 8 131q-16 4 -22 39q-2 12 -2 28.5t2 37.5q2 57 2 53q0 27 -30 71t-30 103.5t-82 141t-82 165.5l-20 -18q-2 4 -82 119q-68 98 -68 106v115q-109 100 -237 338l-2 -4q0 -25 6 -74t6 -76v-114l-10 28q-23 -18 -23 -47 q0 -8 17.5 -47t17.5 -70q0 -41 -3 -123.5t-3 -123.5q0 -102 12 -148q4 -14 35 -38q25 -19 25 -45q0 -6 -2 -13q14 -7 32 -7q15 0 33 5l2 -8q0 -23 -18.5 -48.5t-38.5 -25.5q-10 0 -33.5 16.5t-32.5 16.5q-12 0 -33.5 -7.5t-31.5 -7.5t-26.5 10.5t-24.5 10.5 q-14 0 -55.5 -22.5t-55.5 -22.5q-16 0 -72 28h-34l-3 31q-2 37 41 45q57 10 68 21q4 26 4 60q0 23 -2 50q-4 109 -4 111q0 43 21.5 123t21.5 119q0 20 -16 49q-12 23 -25 47v182q39 2 45 37l-29 29q-16 14 -16 34q0 25 10.5 73t10.5 73q0 82 -7 102q-2 14 -22 33 q-27 25 -53 63q-43 10 -86 11q-12 6 -37 22z" />
<glyph unicode="O" horiz-adv-x="1136" d="M35 670q0 14 16.5 44.5t16.5 47.5v137q8 2 77 90q-8 43 -8 55l2 31q43 6 88 91t105 85q16 0 22 33q4 25 8 49q86 0 119 35q16 2 27 6l63 -6v-4q-23 0 -36 -2q53 0 161 -4l2 -6q74 -12 140 -64q57 -49 116 -96q37 -2 51.5 -62.5t51.5 -62.5q6 -111 20 -152q18 -16 45 -61 q0 -2 -4 -135q0 -12 9.5 -33.5t9.5 -34.5q-14 -20 -35 -63q-6 -23 -6 -58v-18l4 -77v1q-16 -8 -41 -43q-18 -27 -37 -53q12 -23 12 -49q0 -50 -41 -50q-6 0 -12 1q-27 -51 -51 -101q-31 -49 -94 -59q-18 -2 -21 -47q-10 0 -29 -17q-4 -4 -176 -53q-12 2 -34.5 -2t-28.5 -4 q-90 0 -178 68q-135 104 -154 112q-43 23 -43 68q0 18 -18.5 36.5t-36.5 35.5q-27 96 -54.5 195t-27.5 196zM262 582l2 -17l15 -8q2 -39 8 -117q4 -25 24 -96q18 -59 19 -96q0 -14 -2 -27q47 -55 78 -108q12 -4 55 -45l2 4q6 0 17.5 -5.5t17.5 -5.5t14 5.5t14 5.5l13 -9 q2 -4 16 -12h14q68 0 95 41q25 2 49 14q41 57 57 76q35 43 70 66l55 266q-2 29 -8 88q12 8 14 33q2 18 -2 51t-4 37l6 10q2 2 8 15q0 14 -12 55q-9 26 -9 53q0 9 1 18q-43 65 -43 160q0 28 4 58q-10 23 -45 69.5t-43 75.5q-27 12 -53 25q-10 2 -60 2q-10 6 -33 18 q-47 0 -61 -8q-23 -16 -45 -33q-20 -2 -49 -18q-33 -43 -133 -146l-52 -272q-2 -8 2.5 -28.5t4.5 -26.5q0 -23 -15 -29q2 -39 6 -119l-10 -6z" />
<glyph unicode="P" horiz-adv-x="1130" d="M-10 651q4 2 31.5 14.5t31.5 12.5q27 0 78 -7t78 -7q14 0 29 6q-20 86 -39 172q-17 89 -17 152v18v16h15q12 0 20 4q-2 20 -24 125q-16 74 -17 123q0 20 -75.5 23.5t-75.5 35.5q0 47 26 47q12 0 39 -5t39 -5q86 0 109 15q63 -29 73 -29q31 0 88.5 17.5t87.5 17.5l15 -11 q37 0 111.5 -10t113.5 -10q10 0 29.5 5t29.5 5q8 0 54 -18q184 -76 252 -262q0 -8 -2.5 -22.5t-2.5 -20.5q0 -16 12.5 -46t12.5 -46q0 -33 -29 -119.5t-49 -100.5l4 -14q0 -25 -30.5 -47.5t-34.5 -61.5l-15 29q-6 -18 -22 -53l-98 -2q-12 -12 -66.5 -27.5t-77.5 -15.5 q-82 0 -104 31h-35q-4 -23 -4 -48q-29 58 -100 58h-2h-23q-12 -23 -12 -45q0 -29 10 -83t10 -81q0 -18 -10 -52t-10 -53v-135q31 -8 53 -45q21 -35 57 -35h4q-2 -67 -38 -67h-1q-27 0 -94 20.5t-80 20.5q-27 0 -80 -17.5t-81 -17.5h-15q-7 25 -61 25h-8v38q0 27 60 32t60 32 q0 16 -3 47t-3 47q0 57 17 139q16 68 30 138q-10 4 -30 4q4 8 4 26q0 86 -25 86q-6 0 -15 -5t-15 -5l-154 17q-6 16 -6 30zM414 1001q0 -29 8 -75q10 -53 12 -74v-164q0 -31 35 -31q29 0 74 15q66 18 71 20l13 -6q2 -4 12 -14q37 2 133 67q68 45 133 92q-2 8 -12 52 q-8 31 -8 51q0 12 10 27l-64 155q-109 74 -190 88q-100 12 -201 23q0 -39 -13 -114t-13 -112z" />
<glyph unicode="Q" horiz-adv-x="1171" d="M25 690q0 18 16 47t16 47v138q14 4 80 96l2 10q0 8 -5 28.5t-3 30.5v15q45 8 94 98q47 84 105 84q18 0 24 35q4 25 6 49q68 2 207 39q143 -6 219 -55q90 -63 181 -129q27 -4 41 -29t10 -51q23 -18 49 -56q82 -240 82 -405q0 -25 -16.5 -101.5t-16.5 -129.5 q-18 -10 -43 -45q-39 -55 -39 -56q14 -25 15 -51q0 -47 -39 -47q-7 0 -15 2q-20 -39 -39 -78q-25 -43 -53 -65q12 -25 27 -50q18 -33 41 -32q20 0 64 35.5t59 41.5q16 0 16 -28q0 -39 -39 -103q-33 -47 -65 -94h-107q-4 2 -80 78q-49 51 -92 51l-47 -33q-18 0 -61.5 -5 t-65.5 -5q-94 0 -242 88q-153 93 -153 176v9q-16 16 -52 47q-6 20 -45 137q-34 95 -34 123q0 16 2 45t2 43q0 8 -3 26.5t-3 28.5zM284.5 412q34.5 -123 34.5 -187q2 -2 74 -100q47 -66 94 -66q12 0 25 4q66 -12 66 -14h-3q39 0 61.5 14.5t47.5 30.5l-88 119q-27 -35 -59 -57 l-5 37q72 206 131 206h1q45 0 94 -69q39 -53 57 -109q55 51 88 258q25 156 25 289q0 16 -12.5 47t-12.5 49q0 23 10 45q-29 16 -41 86q-8 51 -16 103l6 20q0 31 -74 107l5 8q0 18 -21 45q-12 8 -24 14q-18 12 -29 13q-4 0 -8 -5q-16 4 -33 5q-16 0 -33 -5q-4 10 -27 25 q-76 0 -126 -37q-27 -20 -79.5 -82.5t-93.5 -89.5q-69 -349 -69 -513q0 -68 34.5 -191z" />
<glyph unicode="R" horiz-adv-x="1378" d="M37 1319v8q-2 31 67 43q49 4 101 10q10 -4 28 -12h13q14 2 22 -8l19 -8q8 0 80 20q53 14 82 14q45 0 134 -15t132 -15q12 0 32.5 7t30.5 7q84 0 187 -82q106 -88 106 -174q0 -16 -4 -33l37 -24q29 -41 29 -121q0 -121 -121 -213l14 -18q-12 -57 -111 -103 q-86 -37 -153 -37q-31 0 -53 8l112 -163q43 -66 162 -146q127 -86 197 -86q31 0 78 27.5t47 56.5q0 14 -9 33l23 -2l10 -10q12 -39 12 -72q0 -121 -94 -193q-84 -63 -211 -63q-20 0 -30.5 24.5t-18.5 47.5q-25 -14 -41 -15q-16 0 -68.5 30t-52.5 42q6 10 21 37 q0 35 -95.5 87t-95.5 83q0 12 17 33q-27 18 -86.5 145t-59.5 162q0 47 33 47q31 0 92.5 -10.5t91.5 -10.5q59 0 107 119q41 98 41 170q0 47 -23 101q-25 61 -59 75q-14 33 -42 41t-54 17q-20 31 -37 30q-12 0 -19 -10q-12 2 -104 25q-61 14 -107 14q-49 0 -49 -20 q0 -14 11 -31q-4 -8 -17 -19q6 -14 6 -24q0 -25 -9 -74t-11 -74q-10 -6 -19 -32h17q12 2 33 -7q-16 -68 -17 -231q0 -14 -6 -37.5t-6 -36.5q0 -10 12 -16v-102q0 -16 -4 -48t-4 -49q0 -18 10 -45.5t10 -30.5q0 -25 -12 -72.5t-12 -74.5l4 -111q37 -23 111 -61q0 -47 -19 -47 q10 0 -39 16q-12 0 -38.5 -7t-39.5 -9q-70 27 -69 27q-33 0 -91.5 -21.5t-88.5 -21.5q-39 0 -58 8q-2 31 55.5 45t63.5 61q0 119 23 352q2 10 14 37q10 20 10 37q0 51 -8 58q-16 10 -33 20v121q16 14 17 29q0 12 -9 26q12 31 13 66q0 25 -29 39l-6 10q0 18 45 69 q-4 127 -53 332q-14 18 -50 22.5t-67 6.5z" />
<glyph unicode="S" horiz-adv-x="946" d="M31 242q0 20 15 56t15 56q0 14 31 52t37 55.5t23 42.5q12 8 47 4q53 -6 51 -6q16 0 51 10t55 10q74 0 125 -59.5t51 -132.5q0 -68 -26 -125q-33 -70 -92 -70q-68 0 -154 80l33 57l102 -18q29 55 29 96q0 70 -78 70q-68 0 -127 -51.5t-59 -116.5q0 -25 16.5 -52.5 t13.5 -41.5q39 -51 86 -133l72 8q10 -14 39 -15q14 0 43 5.5t43 5.5q100 0 148.5 36.5t78.5 131.5q35 106 35 125l-2 14q-10 16 -31 98q-90 66 -206 154v22q2 10 -7 13q-6 2 -18 0q-12 -4 -16 -5q-33 0 -129 39q-88 37 -125 60q-16 10 -29 61q-47 37 -57 82 q-18 23 -33.5 42.5t-15.5 62.5q0 35 20 83t20 70q0 70 58.5 131.5t128.5 61.5q29 49 49 55h74q12 0 33.5 5t31.5 5q33 0 101 -39q4 -2 198 -43q35 0 113 47q55 35 111 72q36 -4 36 -43q0 -12 -12 -35q-12 -4 -29 -6v-6q0 -31 -28 -33q-88 -55 -158 -168q-59 -98 -119 -198 q-12 20 -10 59q5 66 6 66v-2q0 61 -16 127q-12 0 -69.5 47t-106.5 47q-199 0 -256 -166q27 -12 26 -37q0 -10 -5 -30.5t-5 -28.5q12 -18 102 -84q72 -51 76 -93q14 6 43 17l21 -2q51 -43 98 -60q55 -14 111.5 -31.5t124.5 -103.5q55 -72 81 -143l3 -12q0 -14 -5.5 -44 t-5.5 -47q0 -10 7.5 -23t7.5 -18q0 -199 -160 -319q-145 -109 -348 -109q-197 0 -209 66q-23 6 -67 48t-44 63l-51 32q0 16 -6 49t-6 50z" />
<glyph unicode="T" horiz-adv-x="1314" d="M-10 1001q16 14 69 84q39 51 86 74q-14 12 -41 25q25 35 33 92q10 72 19 94q8 0 39 4q23 2 36 2q18 0 53 -12t54 -12q29 0 82 10t82 10q33 0 98.5 -11t99.5 -11q12 0 33 9t27 11l10 -2l35 14l6 -2q16 0 27 13q14 -15 50 -15h13l14 -14q41 -4 54 -4q43 0 47 14h22 q8 0 26.5 6t29.5 6q8 0 21 -7t22 -7q10 0 28.5 7t28.5 7l23 -2q18 -14 18 -32q0 -6 -12.5 -22.5t-12.5 -29.5q0 -10 6.5 -32.5t6.5 -34.5t-15.5 -30.5t-17.5 -33.5h8q12 0 29 17q20 -29 57 -94q43 -78 43 -97v-8h-2q6 0 14 19q-29 -37 -49 -37q-29 14 -82 49q-10 6 -22 47 q-4 14 -45 53q-27 27 -27 48q0 5 2 10q-47 41 -78 98q-27 -8 -77 -10q-76 0 -80 -2q-4 -23 -41 -26t-56 -36q-6 -10 -2 -29q2 -27 2 -26q0 -18 -24.5 -43t-24.5 -33q0 -16 17 -25l22 3l6 -3q8 -6 8 -22q0 16 -14 -41q-4 -15 -4 -42q0 -18 2 -40q6 -80 6 -84q0 -10 -20 -70 q35 -10 35 -206q0 -27 2 -43q4 -8 8 -25q-16 -27 -49 -82q14 -9 43 -27l2 -8q0 -8 -12.5 -28.5t-12.5 -30.5q0 -49 27.5 -93t54.5 -87q18 -14 49 -47q57 0 90 -11v-10q2 -23 -12 -43l-119 -4l-10 25q-8 0 -29.5 5t-31.5 5q-16 0 -45 -9.5t-43 -9.5q-12 0 -39 5.5t-39 5.5 q-14 0 -23 -19q-70 -4 -207 -10q-14 6 -18 16q0 51 51 52q10 0 31.5 -2.5t32.5 -2.5q25 0 47 25q16 23 32 45v152q0 12 -10 35.5t-10 35.5q0 16 22.5 56.5t22.5 52.5q0 10 -26.5 29.5t-26.5 48.5v333q10 18 47 101q-25 4 -39 119q-10 72 -18 143q-18 4 -56 8q-2 16 -16 43 q-27 -14 -72 -35h-135q-51 -80 -100 -159q-78 -115 -127 -115q-16 0 -39 22z" />
<glyph unicode="U" horiz-adv-x="1327" d="M6 1307q2 33 98 57q78 18 129 18q12 0 36 -9t38 -9t42 7t42 7q18 0 49 -8q39 -12 47 -12q-2 -20 -10 -58l-14 -6h-33h-5q-43 0 -65 -36q-24 -38 -24 -87q0 -10 7 -31.5t7 -31.5q0 -59 -19.5 -182t-19.5 -185q0 -86 36 -254t36 -254q27 -31 68 -94q6 -8 14 -28 q33 -8 57 -45l15 4q18 -4 26 -11q10 4 29 11l47 -21q39 0 68.5 23.5t58.5 48.5q98 76 147 180q37 82 52 207q8 117 18 231v13q0 4 -5 13t-5 13l2 295q0 90 -36 134t-126 55q16 57 45 57q6 0 25.5 -2t34.5 -2q82 33 92 33t26.5 -9.5t26.5 -9.5q6 0 54 21.5t57 21.5 q53 0 65 -53q6 4 31 29h49v-9q0 -37 -51 -65q-45 -24 -81 -24q-5 0 -11 1q-4 -39 -5 -84q0 -55 14.5 -169.5t14.5 -174.5l-2 -184q-24 -32 -24 -112q0 -31 4 -70q-16 -10 -43 -47q-18 -29 -37 -56q12 -25 12 -53q0 -52 -42 -52q-7 0 -15 1q-27 -53 -55.5 -103.5t-98.5 -64.5 q-18 -4 -20 -51q-12 2 -31 -17q-125 -45 -168 -57q-12 2 -33 0q-25 -4 -33 -4q-96 0 -192 72q-154 115 -162 118q-41 23 -41 66q0 18 -8 29q-20 6 -53 43q-8 45 -17.5 95t-38.5 79v86v23q0 88 13 229q14 180 16 251l-2 7q4 4 6 -2q12 23 12 165q0 63 -61 76q-39 8 -80 17z " />
<glyph unicode="V" horiz-adv-x="1097" d="M0 20q12 59 31 60q6 0 16 -4t16 -4q31 0 70 63q33 57 33 92q0 25 -18.5 31t-18.5 35v295q0 229 37 260q-47 33 -47 67q0 10 5 30t5 30v184q0 4 -6 18.5t-6 20.5q0 16 20 55q-45 25 -123 45q2 37 78 70q66 27 109 27q10 0 27.5 -12.5t25.5 -12.5q12 0 35.5 8t36.5 8 q12 0 80 -26l2 -19q0 -47 -74 -47h-6q0 -8 5 -24.5t5 -26.5q0 -20 -10.5 -62t-10.5 -65v-133q0 -16 5.5 -50t5.5 -50q0 -14 -49 -72q23 -23 43 -47q14 -18 16 -68h-12q-14 0 -27 -8q0 -72 16.5 -222.5t16.5 -227.5q0 -10 -16.5 -36t-16.5 -36q0 -37 23 -37q209 0 329 141 q92 104 162 334l-12 -10l-6 12v15q12 8 16 20q2 10 0 27q-2 25 -2 26l2 15q16 23 16 122q0 10 15.5 26.5t15.5 55.5q0 35 -22.5 45.5t-71.5 14.5q-63 4 -78 8q-29 6 -115 69.5t-86 86.5q0 41 97 102q16 10 31.5 41t25.5 41q18 16 106.5 72.5t100.5 56.5q47 0 108.5 -179 t114.5 -179q70 0 166 10q25 2 73 27.5t78 25.5q35 0 35 -37q0 -45 -103.5 -99t-156.5 -54h-125q-12 -20 -12 -232q0 -121 -31 -180q-27 -49 -121 -137q-37 -33 -37 -91q0 -61 -171 -181q-172 -120 -240 -121q-12 0 -35.5 5t-36.5 5q-49 0 -149.5 -17.5t-149.5 -17.5 q-35 0 -53 22zM678 1229q16 -10 70 -60q41 -41 73 -49v2q2 37 -26.5 84t-63.5 47q-18 0 -53 -24z" />
<glyph unicode="W" horiz-adv-x="1701" d="M-266 1055q82 22 82 24h-1h-1q8 0 21 -5t22 -5q16 0 45.5 11.5t44.5 13.5q10 2 28 0q23 -4 31 -4q43 0 108.5 181t106.5 181q227 -139 246 -195q39 -27 76 -53q49 -41 49 -74q0 -23 -86 -86q-78 -59 -111 -69q-55 -8 -110 -14q-74 -12 -74 -60q12 -25 31 -74 q6 -59 10 -120q8 -88 35 -107q-20 -10 -21 -39q0 -29 33 -84t57 -67q4 -102 80 -174q92 -86 105 -117q231 270 231 444q0 25 -4 72t-4 70q0 37 -22.5 102t-22.5 100q0 29 49 47q41 16 76 17q31 0 43 -13l2 -2l8 -2q12 0 34.5 8.5t35.5 8.5q53 0 53 -45q-16 -16 -45 -52 q-25 -102 -25 -311q0 -70 11 -82q2 -4 69 -45q84 -49 121 -114q35 -72 72 -146q70 55 147 172q90 135 90 219q0 18 -4 33q27 23 39 83t41 79l6 26q-14 31 -14 109q0 33 -41 82q-39 47 -39 83q0 10 2 24t2 20q0 23 -55 80q-47 47 -78 69q-55 -23 -131 -34q-6 41 -6 39 q0 23 106.5 98.5t134.5 75.5q27 0 76 -54q33 -39 66 -75l2 -9l-6 -24q18 -14 57 -80t55 -72v-184q8 -14 8 -64q-8 -18 -8 -157q-10 -20 -41 -51v-119h-33q10 -29 11 -47q0 -43 -228 -334q-63 -82 -111 -117t-151 -72q-2 10 2 37l-6 15q-16 2 -22.5 19t-10.5 34 q-31 61 -107.5 152.5t-131.5 134.5q-80 -119 -234 -361q-49 18 -57 21.5t-182 126.5q-106 72 -144 172q-25 8 -40 38.5t-27 59.5q-33 43 -88 131q-23 43 -31 190q-4 102 -8 205q-69 37 -189 37h-24q-29 23 -86 68zM246 1116q98 6 143 115q-43 20 -49 20q-31 0 -61 -53 q-29 -45 -33 -82z" />
<glyph unicode="X" horiz-adv-x="1249" d="M-27 25v6q0 49 68 49q8 0 20.5 -4t18.5 -4q35 0 113 172q29 78 100 217q2 4 125 123q80 76 80 149l-4 25q-14 -10 -27 -23l-16 76q-10 -2 -41 -12q-29 51 -56 102q-30 58 -30 103v8q-16 -10 -29 -11q-55 0 -70 175q-63 35 -162 145h-90q6 76 60 76q25 0 57 -21 q12 6 35 15q12 0 41 -7q39 -41 90 -41q33 0 139 39l23 -8q10 -12 10 -33q0 -12 -12.5 -38.5t-12.5 -42.5t9.5 -46t9.5 -45q0 -2 -8 -51q57 -29 90 -106q18 -16 63 -90q39 -61 76 -78q13 -21 21 -31h6q39 39 53 66l-2 18q127 113 137 152q2 16 12 45q25 35 61 57.5t44 42.5 q18 33 18 113q-14 18 -45 53l-4 2q-8 -20 -24 -21q-41 0 -41 23q0 27 24.5 51.5t50.5 24.5q66 -33 131 -66q94 -53 95 -88v1q-3 0 -43 -142q-16 -4 -37 -60.5t-56 -72.5q-8 -4 -20 -41q-111 -74 -270 -244q12 -4 34 -12l-43 -43q8 -15 59 -15h7q10 -35 20 -92q27 10 33 10 q18 0 23 -20q10 -47 26 -61q27 -25 37 -43q2 -4 6 -68l2 -18l25 12q27 0 53 -70q23 -59 23 -94q0 -10 109.5 -92t109.5 -113q0 -25 -27 -55v4q-33 -10 -53 23l2 16q-10 -2 -28.5 -5t-30.5 -3q-18 0 -57.5 21.5t-59.5 21.5q-14 1 -74 -11q-52 -10 -64 -10h-3q-14 -8 -49 -24 l-11 2v12q0 25 28 53.5t28 61.5q0 16 -9.5 45.5t-9.5 44.5l8 53h-10q-20 -2 -32.5 18.5t-22.5 40.5q-12 4 -25 2q-4 63 -73 142q-104 117 -111 125q-14 -2 -41 -8q-16 -10 -64 -80q-59 -88 -65 -95q-33 -35 -64 -69q-41 -45 -41 -78q-4 -8 -32 -51q-25 -35 -25 -53 q0 -27 37 -74l31 -6q8 -12 8 -23q0 -51 -43 -51q-31 0 -45 6l-4 4l-8 4q-8 0 -22.5 -7t-22.5 -7q-12 0 -36 8t-36 8q-27 0 -74 -4q-53 -6 -72 -8z" />
<glyph unicode="Y" horiz-adv-x="1273" d="M-25 1341q0 31 33 50q96 0 139 -11q14 -4 52 -26q31 -16 53 -17q6 0 127 25q27 -6 39 -25q16 18 53 45q-12 -100 -70 -120q0 -20 10.5 -62.5t10.5 -62.5q0 -27 -10 -54q45 -14 104 -116q43 -74 86 -146q10 -104 96 -104q33 0 45 10q4 4 112 141.5t112 143.5 q10 76 23.5 97t30.5 47t17 48q0 86 -94 105q16 67 38 67h1q16 0 46 -9t44 -9q8 0 21.5 7t21.5 7q10 0 27.5 -10t27.5 -10q18 0 52 11t53 11l20 -4q-6 -51 -26 -59q-35 -12 -37 -15q-55 -68 -127 -198q-86 -160 -119 -205q4 14 4 -47q0 -20 -102 -131q-61 -68 -125 -137 q41 2 41 -29q0 -20 -11.5 -58t-11.5 -59q0 -6 6.5 -15t6.5 -16q0 -6 -16.5 -32.5t-16.5 -51.5q0 -252 92 -254q6 8 29 13l2 -17q0 -69 -44 -69h-1q-29 0 -87.5 17.5t-88.5 17.5q-18 0 -55.5 -13.5t-59.5 -11.5q-32 3 -53 3q-29 0 -39 -5l-17 6v8q0 47 33 58l74 8q8 23 8 92 q0 37 18 82q29 68 31 78l-6 4q-2 0 -12 8q-14 29 -15 78q0 12 5.5 35.5t5.5 36.5q0 33 -62 104q-57 68 -57 138v9l-8 2q-6 0 -18.5 -4t-18.5 -4q-8 0 -86 135q-10 16 -8 41q2 45 2 41v19q-6 0 -16.5 -7.5t-16.5 -7.5q-23 0 -51 74q-25 66 -25 96.5t-100.5 112.5t-136.5 86 q-4 14 -5 14z" />
<glyph unicode="Z" horiz-adv-x="1230" d="M8 20q0 23 79 80.5t93 96.5q49 133 107 194q55 53 110 107q66 70 74 129q-111 -16 -145 -17q-14 0 -68.5 -32.5t-107.5 -32.5l-3 6q6 14 61.5 97t63.5 95q12 2 27 2q29 0 94 -12q49 -8 82 -8h12l21 2q20 27 38.5 89.5t35.5 88.5q43 6 82 78q27 53 55 109q47 4 57 145 q8 8 8 18v9q-8 8 -26 6q-35 -4 -27 -4q-16 0 -46 10t-46 10q-78 0 -207 -41q-18 -6 -37 -39q-25 -37 -35 -47q-49 -39 -104 -117q-68 -96 -94 -127q-20 29 -21 54q0 33 37 96q25 47 51 94q4 10 25 117q20 96 45 139q14 23 35 23q12 0 50 -35t56 -35q8 0 22.5 6t22.5 6 q23 0 69 -2t69 -2q80 0 238.5 8t238.5 9l16 -15l14 25q35 -8 44 -25q14 8 32 8q-4 -25 -18 -63q-10 -12 -33 -14q-33 -4 -37 -6q-29 -8 -83 -70t-58 -92q-10 -2 -29 -45q-23 -55 -22 -56q-41 0 -73 -49q-27 -41 -27 -75q0 -6 1 -13q-29 -2 -31.5 -28.5t-4.5 -53.5 q-16 -4 -66 -84l16 -2q10 0 144 29q20 -8 28 -8q6 0 66.5 30.5t118.5 30.5q-6 -25 -53.5 -62.5t-47.5 -90.5q0 -31 -26 -43l-31 -3h-14q-59 0 -260 25q-14 -115 -160 -254q-6 -25 -35 -59q-31 -41 -39 -58q0 -27 -27.5 -69.5t-27.5 -50.5q0 -37 106 -37q37 0 92 8 q70 12 91 14q4 -20 18 -24q-2 0 31 0q-2 0 41 -17q18 8 55 17l6 16q31 10 64 35q4 0 10 1q19 0 61 -5l6 4q-2 4 -9 20.5t-7 26.5q0 47 115 207q120 170 181 170h1v-6q0 -12 -45 -84q-53 -86 -55 -92q-35 -68 -58 -168q-18 -86 -36.5 -172t-61.5 -86q-10 0 -40 22.5t-38 22.5 q-27 0 -74 -12.5t-71 -12.5q-63 35 -76 35q-23 0 -60.5 -17.5t-60.5 -17.5q-31 0 -89 12.5t-89 12.5q-86 0 -207 -5q-16 -2 -49 -13t-51 -11q-10 0 -32.5 6t-35.5 4z" />
<glyph unicode="\" horiz-adv-x="628" d="M-14 1528l250 6l-70 -74l151 -448l170 -799l156 -418l-235 6l-54 510z" />
<glyph unicode="a" horiz-adv-x="927" d="M-213 389q8 55 96 107q80 45 144 47q0 12 -4.5 41.5t-4.5 46.5q14 39 28.5 75.5t14.5 86.5q59 25 72 53q-6 16 -6 20q0 86 166 181q154 88 248 88h59q41 -2 62 -2q96 0 153 20q8 -4 86 -20q-4 -47 -14.5 -55.5t-57.5 -8.5l-8 -2q-26 -30 -26 -128v-7q0 -18 8 -55t8 -58 q0 -10 -8 -22q-12 -18 -15 -21l19 -8q16 -68 16 -131q0 -82 -32 -115q28 -31 28 -131q0 -46 -6 -108q6 -8 88 -21q-2 -47 -27 -63h-8q-12 0 -32.5 -8.5t-30.5 -8.5q-16 0 -50 9.5t-53 9.5q-20 1 -62 -13q-37 -12 -62 -12h-7h-39v19q-2 33 45.5 51t47.5 33q0 39 -4.5 116.5 t-4.5 116.5q0 12 19 49q-12 23 -15 55v11q0 24 -6 63h-14h-5q-200 0 -380 -153v-13q74 -14 158 -59q106 -59 106 -115q0 -29 -26 -53q-20 -8 -56 -29q-4 -2 -55 -59q-37 -39 -59 -39q-25 0 -41 4q-47 14 -109 84q-16 16 -43 117q-20 78 -68 78q-51 0 -118 -23 q-57 -20 -115 -41zM219 397q0 -23 27.5 -73t48.5 -52l22 15q-30 115 -98 123v-13zM246 721l114 49l25 -10q76 25 231 63l-28 211q-55 -8 -151.5 -46t-143.5 -48q6 -14 6 -29q0 -29 -23 -92q-27 -78 -30 -98z" />
<glyph unicode="b" horiz-adv-x="927" d="M-10 711q8 49 71 49q14 0 41 -3t35 -3q25 25 41 16v2q0 43 -15.5 129t-15.5 131q0 29 -102 41v6q-2 29 21 64q14 -2 96 -23q57 -14 96 -14l8 6q111 0 117 -6q33 20 51 20q12 0 31 -10q14 0 42 11.5t44 11.5q72 0 98 -9q16 -6 25.5 -21t27.5 -22q50 0 92 -46 q36 -39 36 -83q0 -7 -1 -14q39 -25 39 -90q0 -23 -39 -76q-29 -35 -55 -69q143 -143 144 -222q0 -39 -28 -80.5t-26 -70.5q-16 -29 -36.5 -57.5t-49.5 -38.5q-16 -4 -39 -27q-76 -31 -114 -31q-14 0 -40 5.5t-38 5.5q-27 0 -80 -10.5t-82 -10.5q-23 0 -67 12.5t-66 12.5 q-45 -18 -53 -19q-10 0 -28.5 5t-27.5 5l-43 -16h-14q2 0 -59 25q8 65 42 65h1q14 0 26 -10l21 6l12 10q41 133 43 199q-16 20 -37 63q14 10 29 19v12q0 45 -21 72l17 20q-2 41 -13 43q-14 -8 -24 -6zM330 483q0 -45 32 -181q63 10 187 24l18 18q29 12 86 35q43 51 43 108 q0 144 -223 187q-23 -14 -43 -15q-25 0 -78 13v-2l-10 -23q16 -94 16 -153l-20 2zM342 926q0 -123 18 -178q78 10 136 24l12 -14q35 2 111.5 51t76.5 80q0 4 -3 14t-3 17q0 18 17 26q-18 55 -72 74q-54 10 -105 22q-12 -4 -94 -26q-55 -18 -94 -19v-71z" />
<glyph unicode="c" horiz-adv-x="942" d="M27 588l8 45q-4 10 -4 14q0 31 22 96q20 59 19 97q14 10 65 63q-4 16 -4 25q0 52 43 52q5 0 10 -1q18 74 121 106q10 2 35 27t35 25q6 0 17.5 -4.5t17.5 -4.5q20 0 49 11q33 -4 117 -31q72 -25 116 -25q74 0 148 80q69 -18 69 -52t-55 -64q-88 -51 -160 -179 q-43 -76 -55 -75q-37 0 -37 45q0 10 5 27.5t5 27.5q0 12 -5 37.5t-5 38.5q-27 20 -51 39q-32 22 -57 22h-2q-14 0 -42 -5t-42 -5q-57 0 -115 -129q-51 -113 -51 -182v-113q0 -27 17.5 -74t19.5 -69q2 -6 12 -60q8 -43 24 -47q8 -16 27 -49q14 -16 61.5 -31.5t73.5 -15.5 q39 0 92 35l21 -9q45 0 80 46l24 2q86 131 86 133q0 29 -32.5 54.5t-32.5 53.5q0 37 31 37t108.5 -49t77.5 -76q0 -16 -23 -57q-28 -50 -32 -58h-25q-29 -94 -152 -149q-74 -29 -145 -57h-108q-59 0 -163 58t-145 110q-10 12 -10 51q-10 10 -37 24v21q2 33 -26.5 90 t-30.5 86z" />
<glyph unicode="d" horiz-adv-x="892" d="M-61 211q25 14 82 20.5t67 16.5h90v39q-14 8 -37 8q33 76 33 113q0 14 -14 114l-8 -18q-2 27 -5 53q-4 37 -16 41v43q25 18 25 55q0 14 9 47t9 41q0 20 -29 -4q0 8 -8 54q-4 31 0 53q-41 41 -53 51q-33 25 -68 27v34q0 35 35 35q53 0 113 -22q45 8 33 8q55 0 122 -37 l19 23q8 -63 8 -91q0 -12 -6 -34.5t-6 -34.5l10 -15v-90q-6 -8 -16 -28q18 -16 18 -56q0 -37 -4 -43q-6 -12 -14 -22q25 -45 24 -57q0 -20 -28 -31l26 -60q0 -27 -12 -71l14 -13q-10 -6 -28 -26q0 -27 14 -76l117 41q6 -2 14 -2q27 0 66 29q29 23 55 43q14 27 47 77v11l4 18 q18 14 23 39q4 16 2 47q-4 41 -4 45l12 4v86l10 2v4l-10 3v88q-8 8 -8 59q0 10 -111 100q-10 20 -25 23q-23 2 -43 20l-12 -6q-23 0 -43 18.5t-39 36.5q-4 -4 -31 -16q-16 -6 -22 -24q-74 53 -303 75q-6 16 -6 29q0 14 6 37q70 -11 70 -12h-1q47 0 74 10l23 -4q20 4 41 -13 q23 0 67.5 11.5t69.5 11.5q82 0 190 -57q150 -80 181 -91q32 -92 73 -92h2q53 -156 54 -256q-1 -27 -25 -82q-23 -51 -22 -93v-7q-23 -8 -48.5 -42t-21.5 -56q-207 -164 -311 -164q-33 0 -31 -41q-12 8 -39 25q-88 0 -88 -80q0 -16 4 -57.5t4 -63.5q0 -12 -31 -33 q0 -16 4.5 -50t4.5 -48q0 -35 -13 -68h-45q-12 18 -12 53q0 14 3 43t3 43q0 82 -37 240h-233q-8 20 -8 39z" />
<glyph unicode="e" horiz-adv-x="894" d="M-104 715v16q0 6 8 21q31 14 53 14q18 0 56 -5t57 -5q10 0 104 6q-2 12 -10 43t-8 49q0 25 17 66t17 45q-61 61 -106 98q-31 0 -90 6q10 45 31 68h139q31 0 88 -6.5t86 -6.5q43 0 130 4.5t130 4.5q8 0 22.5 -5.5t20.5 -5.5q16 0 45 20.5t47 20.5q8 0 37 -16l-2 -12 q0 -18 20 -56q12 -20 22.5 -67t25.5 -68q51 -72 51 -108q0 -16 -13 -41l-10 -2q-20 0 -194 204q-31 37 -197 37q-16 0 -48 -5t-48 -5l2 -29q2 -16 -8.5 -48t-12.5 -46l25 -2q8 -20 8 -27q0 -16 -8 -47.5t-8 -48.5q0 -10 16 -10q195 0 238 20q4 2 20 21q10 12 41 16 q14 -18 23 -51q10 -41 16 -53q10 -18 37 -47l43 -43l-6 -51l-15 -3q-16 0 -65 39t-68 39q-16 -6 -26 -6q-39 0 -133 27q-16 12 -50 12q-82 0 -92 -35q18 -8 29 -14l6 -23q0 -14 -5 -41.5t-5 -42.5v-208q8 -12 10 -37l10 -6h152q41 0 106 40q27 2 54 -4q-6 6 -13 23 q0 6 39 78q61 109 228 198q-4 -35 -35 -77q-49 -66 -51 -70q-39 -70 -76 -240q-12 -53 -60 -53q-14 0 -67 27q-154 -25 -162 -25q-41 0 -124 7t-124 7q-23 0 -66.5 -8t-68.5 -8q-8 0 -35.5 12.5t-40.5 14.5q10 37 25 59q12 2 39 8q10 10 51 11l6 2l-12 18v102q0 27 22 56 q-14 43 -18 69q-4 20 -2 49q4 47 4 70q0 10 -21.5 33.5t-33.5 23.5q-14 0 -43 -5t-43 -5q8 0 -133 23z" />
<glyph unicode="f" horiz-adv-x="948" d="M-104 823q16 39 51 43q35 -2 69 -2l158 4v2l-29 2q18 47 19 101v43q0 23 -148 80q16 49 95 49q47 0 141 -11.5t141 -11.5q16 0 48 7.5t48 7.5q23 0 68 -5.5t68 -5.5q104 0 133 78q20 -2 108 -94q55 -59 111 -119q-49 -30 -74 -30t-55 24q-37 27 -53 31q-68 14 -199 37 q-62 -17 -136 -17q-44 0 -93 6q-20 -4 -35 -53h2q25 2 28 -47q0 9 -1 9t-1 -79v-4l123 -2h5q65 0 186 54q25 -10 79 -57.5t83 -55.5v-8q4 -43 -60 -43q-23 0 -68.5 15t-70.5 15l-88 -2h-17q-55 0 -79 11l-9 -4q-55 0 -94 2q4 -25 29 -129q-14 -39 -43 -95q2 -25 18.5 -76 t16.5 -79q0 -12 -8.5 -33t-8.5 -31q0 -35 30 -66.5t67 -31.5l-2 -14q8 -2 26 -2q-2 -66 -39 -66q-12 0 -33.5 10t-31.5 10q-12 0 -32 -5t-30 -5q-14 0 -39.5 6.5t-40.5 6.5q-14 0 -38.5 -10.5t-38.5 -10.5q-16 0 -37 10q-35 16 -37 19v14q0 31 31 39q16 4 55 2v256 q0 10 9 27.5t9 27.5q0 29 -13 85.5t-13 86.5q0 16 8 29q-14 18 -49 45q-14 0 -41 -5t-41 -5q8 0 -137 20z" />
<glyph unicode="g" horiz-adv-x="917" d="M18 631q0 41 20 124q19 76 19 118v8q14 10 68 65q-4 12 -4 25q0 54 47 54q5 0 10 -1q10 18 12 37q27 27 54 51q24 21 62 21h7q8 6 21 24l-21 19q8 0 27.5 5t28.5 5q6 -2 17 -5t17 -3q10 0 32 4t34 4q2 0 91 -28t132 -28q31 0 57.5 12.5t53.5 24.5q12 10 37 33l2 12 q16 -6 71 -28v-41q0 -16 -20.5 -28.5t-36.5 -22.5q-12 -2 -55 -45q-29 -29 -56.5 -54.5t-42.5 -64.5q-18 -57 -24 -70q-14 -25 -39 -24q-18 0 -35 22q0 14 4 44t4 44q0 10 -8 27.5t-4 40.5q-25 20 -53.5 41.5t-59.5 21.5q-113 0 -168 -82l-16 -6q-72 -162 -72 -280 q0 -59 11 -158q14 -133 16 -158q27 -35 54.5 -69.5t74.5 -42.5q23 -2 64 -19l10 8l28 8q12 2 33 -6l8 15l17 -6q16 0 41.5 16t34.5 33q29 4 46 36q15 28 15 55v7l16 10q-4 16 -10 49q-33 8 -98 21q-47 -84 -76 -123q-10 31 -31 33q25 66 70 198h18l15 -2q14 -8 45 -8t93 4 t93 4q6 0 17.5 6.5t17.5 6.5l12 -9q14 4 25 5q10 -16 10 -35l-2 -23q-20 -16 -25 -37l-16 -6v-65q-16 -33 -16 -45q0 -51 20 -119h-20v-21q2 -14 -5.5 -43.5t-7.5 -42.5q-2 -39 -2 -153q0 -2 -32 -31q0 4 1 4t1 -106q0 -55 -17 -86q-47 23 -47 94q0 12 2 38.5t2 37.5 q0 43 -12 67q0 160 -41 195q-37 -25 -74 -48.5t-82 -23.5h1q0 -2 -93 -25v15q-6 25 -86 39q-68 10 -98 30q-18 12 -82 72q-25 18 -49.5 35.5t-22.5 52.5q-80 65 -80 226v16v-2z" />
<glyph unicode="h" horiz-adv-x="1038" d="M-43 748v16q0 8 6 20q35 14 55 15q20 0 62.5 -5.5t64.5 -5.5q20 0 35 13l2 4q-23 20 -24 72l1 -12q1 0 1 89q0 72 -30 94q-28 21 -90 21h-11q29 72 59 72q4 0 29 -2h41q12 0 33.5 5t31.5 5q12 0 30.5 -7t29.5 -7q18 0 55 14l104 -16v-37q0 -4 -18 -33q-29 4 -39 4 q-61 0 -61 -156q0 -16 7 -50t5 -54q113 -2 336 -8l2 135q0 74 -25 92q-16 12 -94 27q14 53 27 59q4 0 67 -2q35 25 78 25q8 0 20.5 -7.5t20.5 -7.5q12 0 44 15.5t46 15.5q-4 0 41 -6q8 -9 14 -27l17 15h16h35q2 -16 2 -17q0 -31 -47 -51q-35 -16 -74 -18v-222q23 18 45 31 l174 -137l-4 -21q-18 -18 -41 -18q-31 0 -86 13.5t-80 17.5q4 -14 2 -23v-22l-10 -15q-1 -12 -1 -25q0 -26 3 -59l-30 -51q30 -24 30 -64q0 -22 -7 -62t-7 -60q0 -66 92 -82q-2 -47 -24 -64q-20 -2 -62.5 -7t-64.5 -5q-10 0 -31 7t-31 7q-8 0 -25.5 -7t-27.5 -7q-23 0 -60 6 q-45 8 -59 8l-2 23q0 27 45 41q35 8 68 16q2 49 24 146q-18 90 -18 98q0 18 31 41q-47 0 -48 84q0 23 5 51q4 37 4 39q-25 -2 -48 -4q-35 -6 -34 -19q-88 12 -158 13q-10 0 -39 -6q-20 -4 -41 2q0 -39 -2 -152v-149q0 -74 8 -99q2 -10 27 -24q18 -12 20 -39l19 -4 q0 -72 -43 -72q-14 0 -51 21q-33 -6 -37 -7q-6 0 -18.5 6.5t-20.5 6.5q-31 0 -82 -29h-123v39q0 20 20.5 24.5t40.5 6.5q37 6 52 125q6 78 12 157q-8 16 -16 23q-9 35 -9 84v10q2 49 7 96h-15q-16 2 -37 -8z" />
<glyph unicode="i" horiz-adv-x="468" d="M16 1087q0 39 25 62q57 -14 82 -14q14 0 38.5 9t39.5 9q16 0 57 -16q2 0 55 16q35 10 58 10q27 0 55 -16q0 -33 -18 -66q-25 10 -31 11q-45 0 -55 -41q-4 -14 -5 -74q0 -14 -11 -38t-11 -26q0 -16 10 -46.5t10 -47.5q0 -18 -30 -53h6h2q37 0 37 -82q0 -43 -8.5 -129 t-8.5 -129q0 -168 106 -168h7q-2 -47 -25 -68q-10 0 -33.5 2.5t-35.5 2.5t-32.5 -6.5t-33.5 -6.5q-6 0 -19.5 7.5t-19.5 7.5q-29 0 -79 -18.5t-76 -18.5q-45 0 -45 35q0 41 32 41q12 0 25 -5q51 0 51 105q0 18 -2 49t-2 37q0 12 23 102q-31 51 -31 107q0 2 8 20v37 q-2 29 10 62q23 55 23 59q-33 23 -33 61v-1q1 0 14 89q-2 27 -10 80q-4 25 -49 31q-57 8 -70 18zM145 1186q55 78 170 227l78 -76q-51 -59 -104 -108v-53l-53 -2q-12 0 -91 12z" />
<glyph unicode="j" horiz-adv-x="878" d="M2 1001q41 14 115 111q68 92 90 92q18 0 31 -22q16 -31 20 -35q23 -16 49 -21q20 -4 51 -2q45 4 54 4q16 0 45.5 -5t44.5 -5q41 0 122 11.5t124 11.5q39 0 98 -31v-14q2 -29 -29 -52l-10 7h-3q-67 0 -67 -76q0 -25 4 -72t4 -69v-185q0 -20 -24 -129l8 -8q2 -20 -4 -57 q12 -37 12 -29q0 -125 -123 -215q-113 -80 -243 -80q-43 0 -129 29q-96 31 -105 61q-112 71 -112 132q0 56 55 85q53 18 104 35q12 0 41 -2q16 -14 17 -29q0 -29 -36 -54.5t-36 -47.5q0 -41 84 -82q72 -33 123 -39q152 51 174 176q2 12 8 23l-12 16q-8 16 -15 53l9 19v59 q0 4 -21 68l27 133l-12 6q-6 16 -7 16q0 10 5.5 28t5.5 26v-2q-2 0 -2 137l34 -2q-27 61 -36 61q-6 0 -64 -10l-90 18q-115 -20 -199 -38q-25 -18 -80 -56q-25 -4 -36 -4q-2 0 -43 17q-12 12 -21 38z" />
<glyph unicode="k" horiz-adv-x="1038" d="M-4 203q0 25 31 35q25 6 49 12q12 4 16 20q2 12 0 33q-4 27 -4 31q0 31 9 87t9 81q23 20 23 65q0 2 -4 13l-21 6q-8 14 -8 26q0 8 5 23.5t5 23.5q-10 18 -18 25q16 12 23 88q-10 6 -29 19l2 14q10 16 35 45q-2 80 -19 158q-25 35 -24 45q0 4 2 8l2 6l-37 8l-37 -12v45 q0 16 53 29q39 8 62 8h8h18l3 -4q23 2 45 -15q23 0 69.5 12.5t71.5 12.5q8 0 24.5 -3t22.5 -3q0 -10 -4 -21l33 9q-2 -41 -17.5 -53.5t-58.5 -12.5v-6q-6 -8 -21 -35h-4q-10 -8 -12 -35l10 -4q-12 -35 -35 -104l15 -11l-13 -6l35 -10l-12 -18q-12 -82 -14 -185q0 -68 2 -186 q4 -135 4 -186q47 -37 96 -41q-2 -41 -20 -56q-10 -2 -29 -2q-23 0 -70 8.5t-69 8.5q-23 0 -66 -11.5t-63 -11.5q-12 0 -72 12q-2 8 -2 15zM342 664q0 -14 4 28q51 0 88 27q49 39 72 47q10 12 131 141l-4 23q0 12 24.5 39.5t24.5 44.5l-10 24q-25 4 -78 9v30q0 29 42 29h11 l12 10q70 18 91 19q10 0 28 -11q39 -2 111 -12q4 -12 4 -20q0 -20 -27 -29q-33 -10 -39 -21q-63 -100 -127.5 -201.5t-171.5 -183.5q10 -20 13 -61q53 -23 53 -37q0 -8 -13.5 -18.5t-13.5 -16.5q0 -20 88 -53q23 -43 109 -90t135 -47q20 0 53 12t33 29q-6 12 -16 37h41 q32 0 32 -75q0 -77 -77 -132q-70 -49 -146 -49q-31 0 -65 12l-13 12l2 19q-16 -2 -20 -2q-20 0 -65.5 17t-45.5 34q0 6 4.5 16t4.5 17l-5 18q-43 18 -86 37q-51 23 -51 61q0 10 2 21q-35 14 -55 67q-33 82 -35 84q0 16 -24.5 43t-24.5 52z" />
<glyph unicode="l" horiz-adv-x="888" d="M8 1079q6 59 33 60q8 0 25 -6q10 0 30.5 7t30.5 7q27 0 80 -9.5t82 -9.5q31 0 90 7.5t90 7.5t45 -17q0 -43 -27 -59l-14 10l-33 2q-63 -29 -84 -96q-12 -41 -12 -131q29 -59 29 -109q0 -10 -8.5 -24t-8.5 -25v-24q2 -18 2 -27q0 -33 -16 -51q12 -6 18 -19q-2 -55 -2 -110 q-4 -80 -20 -101q18 -14 22 -55q2 -33 27 -33q23 0 77 8.5t87 8.5q102 0 122.5 14t104.5 115q68 80 115 84q-20 -70 -41 -139q-18 -74 -18 -132v-12q-6 -6 -31 -63q-12 -33 -60 -35q-10 18 -18 37q-14 23 -31 22q-172 14 -446 15q-8 0 -191 -15v37q0 23 58.5 28t68.5 21 q-27 18 -26 33v213q12 12 26 16q-35 25 -34 99q0 147 26 223q-16 0 -16 22l1 -19q1 0 1 52q0 123 -86 168l-23 -6z" />
<glyph unicode="m" horiz-adv-x="1110" d="M-25 1108q6 68 41 68q10 0 24.5 -7.5t18.5 -9.5q12 -2 131 -16l7 16h41q30 0 61 -37v2q14 -8 30.5 -17t35.5 -3q6 -33 43 -51q31 -14 63 -31q47 -29 133 -174q157 191 201 191q3 0 6 -1q6 4 129 107q10 -14 16 -25q63 27 195 56q2 -14 2 -15q0 -14 -18 -37l4 -10 q-2 -12 -29 -37q-20 -16 -39 -35q-47 -49 -47 -190q0 -35 8 -107.5t8 -107.5q0 -78 -43 -78q27 -35 27 -53q0 -12 -18 -92q20 -74 26 -148q25 -4 68 -12l6 -25q0 -47 -70 -47q-12 0 -34.5 7.5t-34.5 7.5t-32 -9.5t-30 -9.5t-31.5 5t-31.5 5q2 0 -47 -14q-25 25 -54 27v35 q0 27 25 28q-14 -2 39 -2q49 0 49 94q0 20 -9 59.5t-9 57.5q0 23 32 43q-41 94 -41 174q0 51 31 105q-22 79 -22 149v6q-41 -25 -115 -106q-82 -88 -82 -121l2 -59v-6q0 -47 -29 -80q2 -23 2 -48q0 -8 -6 -106q-16 -10 -26 -10q-29 0 -33 75v-1v98q0 43 -12 59q0 72 -13 100 q-4 6 -59 80q-14 2 -45 9q-8 25 -47 64.5t-64 39.5q-35 0 -35 -27q0 -16 10.5 -46.5t10.5 -45.5q0 -20 -29 -53h2q41 0 41 -78q0 -35 -8 -105.5t-8 -107.5q0 -25 5 -76t5 -75q23 -29 70 -74q20 -2 20 -21q0 -29 -26 -28q-6 0 -54 12q-68 -20 -75 -20q-6 0 -29 11t-35 11 q-27 0 -76 -22q-59 -25 -75 -29q-4 18 -5 18q0 29 42 51.5t49 40.5q-2 -4 -3 56v127q0 14 11.5 37.5t11.5 35.5q-31 25 -31 105l8 18q0 82 11 103q20 43 22 49q-35 16 -35 45q0 16 8.5 50t8.5 50q0 61 -8 78q-2 4 -54 53q-14 -6 -18 -6q-14 0 -32.5 14.5t-33.5 18.5z" />
<glyph unicode="n" horiz-adv-x="1054" d="M2 1100q14 55 37 55l22 -8q18 8 31 8q137 0 195 -25q35 -16 54 -57t46 -57q2 -25 43 -37q53 -59 107 -150q45 -80 90 -159q0 -4 63 -54v-22q-2 -41 53 -78q31 -55 52 -113q2 8 2 13q0 16 -11.5 49t-11.5 49l25 37q-39 27 -39 78q0 12 2 35.5t2 35.5q0 18 -4 50t-6 45 q12 0 25.5 30.5t13.5 46.5q-33 63 -33 93q0 14 4 32q-12 10 -56 33t-55 45q0 14 27 58q18 -16 57 -33q2 0 41 16q25 10 45 10q-12 0 37 -14q82 31 90 31q18 0 47 -8q37 -10 47 -11q6 -23 7 -22q0 -29 -47.5 -40.5t-53.5 -25.5q4 -12 11 -24v-430q0 -12 -33 -70 q33 -33 33 -45q0 -10 -21 -98h-12q-4 -4 -10 -15q20 -20 20 -37q0 -45 -6 -138t-6 -140q0 -10 -29 -31q2 -45 2 -80q0 -63 -16 -100h-19h-2q-29 0 -33 53v12q0 28 7 66q-14 8 -17 31q-4 16 -2 45q4 37 4 39q0 16 -22 41q-27 33 -27 78q0 37 -61.5 90t-67.5 102l-10 -8 q-35 45 -70 88q-57 74 -57 82v74q-82 66 -164 194q4 -25 4 -65v-132l-22 54l-5 -13q23 -51 25 -124l-1 32q-1 0 -1 -161q0 -63 8 -95q4 -6 31 -26q20 -14 18 -35q14 -4 50 4l2 -18q0 -20 -17.5 -41t-38.5 -21q-12 0 -29.5 11.5t-23.5 11.5q-8 0 -25.5 -5.5t-27.5 -5.5 q-6 0 -19.5 7.5t-21.5 7.5q-14 0 -43 -15.5t-43 -15.5q-16 0 -60 20h-34q-2 29 -2 35q0 29 32 35q49 10 54 12q-2 -8 -2 148q0 27 16 81t16 83q0 14 -16 35.5t-16 31.5v135q29 0 34 13q-35 33 -34 45q0 18 8 51t8 49q0 68 -8 78q-25 25 -52 49q-31 8 -63 8q-29 12 -41 21z " />
<glyph unicode="o" horiz-adv-x="911" d="M18 709q0 10 13.5 33.5t13.5 27.5v104q37 4 55 27q-4 23 -4 29l2 35q35 4 74 49t90 45q4 18 17 55q72 0 96 25q14 0 26 4l54 -4l8 -6l45 2l53 -2v-7q53 -8 107 -43q45 -33 92 -65q33 -4 45 -44t43 -42q2 -33 20 -80q37 -37 39 -49q-1 6 -2 6q-2 0 -2 -68q0 -8 7.5 -23.5 t7.5 -23.5q-11 -14 -29 -47l-2 -8l2 -2l4 -16q-12 -6 -59 -60q8 -16 8 -33q0 -20 -17 -20q-16 4 -30 6q-23 -35 -47.5 -69.5t-71.5 -38.5l-8 -13l-2 -20h-11q-27 -12 -73 -17q-59 -2 -76 -6q18 -4 -51 -4q-68 0 -187 53q-131 59 -137 111q-12 8 -39 35q-12 41 -47 73 q-27 23 -27 91zM82 154l111 165q20 6 36 7q59 0 172 -36t174 -36q82 0 117 25l53 10l105 71q-25 -31 -51.5 -93t-44.5 -89q-70 -31 -179 -31q-49 0 -143 21.5t-141 21.5q-86 0 -209 -36zM227 737q6 -88 37 -143q43 -61 84 -123q14 -4 39 -27q6 -2 29 -8q23 6 22 6 q16 0 25 -12q59 0 80 29q23 0 39 6q31 39 86 72l37 65q-2 20 -9 66q14 8 15 34q-4 23 -6 43l10 17h2l-4 12q-16 14 -15 43q-34 51 -34 109v10q-27 29 -68 94q-49 10 -109 29q-35 0 -61 -12q-43 -23 -55 -25q-20 -27 -105 -98q-14 -47 -30 -162q0 -16 -9 -25z" />
<glyph unicode="p" horiz-adv-x="921" d="M-8 641q4 4 30.5 15.5t30.5 11.5q20 0 61.5 -5.5t61.5 -5.5h10q-12 51 -26 105q-14 61 -15 104q0 16 2 41h17h8q-16 51 -35 154l2 6q-35 4 -71 8q-49 8 -50 33q0 41 39 41q8 0 27.5 -2t28.5 -2q63 0 88 8q59 -18 57 -18q23 0 70 11t69 11l17 -6q29 0 87 -7t89 -7 q6 0 22.5 4t24.5 4q68 0 149 -70q76 -63 105 -131q-4 -35 -4 -33q0 -10 10 -30.5t10 -30.5q0 -27 -21.5 -81.5t-39.5 -72.5l2 -6q0 -20 -25.5 -36.5t-29.5 -69.5l-19 30q-6 -16 -12 -24l-82 -2q-47 -29 -117 -29q-63 0 -86 21h-16q-2 -14 -2 -60q-25 41 -33 49 q-18 18 -53 17h-17q-6 -20 -6 -21q0 -18 8.5 -55t8.5 -57q0 -12 -8.5 -35t-8.5 -35v-86q20 -6 38 -28.5t52 -22.5q-2 -68 -41 -68q-25 0 -69.5 14.5t-67.5 14.5t-67.5 -12.5t-67.5 -12.5h-12q-7 17 -47 17h-13v37q0 29 46 32.5t51 12.5q0 10 -3.5 31.5t-3.5 31.5 q0 20 37 180h-28q10 20 10 35q0 41 -10 43q-14 -8 -25 -6l-129 10q-8 20 -8 35zM350 877q0 -18 6 -50q8 -37 11 -51v-112l14 -13q20 0 58 12.5t57 14.5l20 -8l4 -6q29 0 101 43q49 31 98 59q-10 45 -10 68q0 10 2 16l-47 98q-78 45 -144 56q-74 8 -149 16q-2 -23 -11.5 -70 t-9.5 -73z" />
<glyph unicode="q" horiz-adv-x="954" d="M20 664q0 16 13.5 35.5t13.5 27.5v109q25 0 64 59q0 6 -3.5 19.5t-3.5 21.5l5 20q35 4 70.5 58.5t86.5 66.5q14 4 17.5 22.5t7.5 35.5q29 0 82 14l-64 14q213 -2 258 -16q27 -6 217 -113q50 -6 50 -57v-6q14 -8 36 -35q66 -145 66 -281q0 -29 -13.5 -82.5t-13.5 -82.5 q-14 -6 -61 -64q8 -14 8 -33q0 -45 -42 -45h-7q-16 -33 -59 -86q20 -39 34 -39t49 27t48 27q27 0 26 -35q0 -31 -33 -78q-29 -35 -57 -70h-94q-8 6 -59 54q-38 34 -66 34h-2l-37 -20q-16 0 -52 -4t-54 -4q-76 0 -193 59q-133 68 -133 135q-12 8 -39 29q-23 68 -47 135 q-18 59 -19 148zM225 602q0 -45 27 -126t29 -122q29 -35 57.5 -69.5t79.5 -34.5q10 0 26.5 -5t24.5 -5q31 0 66 22l-50 57q-20 -18 -57 -43l-6 50q61 153 116 153h1q70 0 125 -112q35 43 55 168q14 98 14 182q0 14 -8 32.5t-8 32.5q0 11 2 27q-20 16 -29 63q-8 37 -14 74 l8 10q-2 14 -57 64v14l-11 19l-26 14l-10 -2q-31 6 -60 0l-18 18q-72 0 -125 -49q-82 -78 -98 -88q-53 -233 -54 -344z" />
<glyph unicode="r" horiz-adv-x="1122" d="M31 1104q-2 25 61 35q41 4 84 8l27 -8h10q12 0 29 -13q123 25 137 25q35 0 102.5 -10.5t102.5 -10.5q8 0 24.5 5.5t24.5 5.5q76 0 162 -64q85 -63 85 -127q0 -7 -1 -14q49 -23 49 -105q0 -84 -90 -147l6 -6q-10 -49 -99 -86q-76 -29 -135 -29q185 -235 341 -235h1 q16 0 51 15t35 30q0 10 -12 39q27 -6 43 -6l14 -13q10 -31 11 -55q0 -92 -86 -143q-72 -43 -168 -43q-31 0 -45 43q-23 -4 -29 -5q-16 0 -62.5 24t-46.5 38q2 10 17 22q-12 20 -86 58q-59 31 -60 65q0 8 2 17q-25 25 -67.5 104.5t-42.5 106.5q0 43 39 43q25 0 74 -6.5 t73 -6.5q39 0 74 74q29 63 29 111q0 33 -17.5 66.5t-44.5 43.5q-10 20 -31.5 26.5t-44.5 12.5l-18 19l-14 -9q-16 2 -93 19q-55 10 -92 10q-16 0 -4 -24l-8 -17v-12q0 -18 -7 -55t-7 -58l26 -6q-10 -39 -14 -104q-6 -78 -10 -107l8 -12q0 -20 -3 -68.5t-3 -70.5 q0 -10 16 -54q0 -16 -10 -49t-10 -51q0 -10 4 -68q29 -14 88 -41q0 -51 -29 -51q-4 0 -29 10q-10 0 -30.5 -5t-32.5 -5q-10 0 -27.5 8.5t-27.5 8.5q-25 0 -72 -14.5t-72 -14.5q-35 0 -59 10q0 39 45 47t51 33q6 35 6 123v18q0 65 13 103q18 61 18 67q-8 12 -33 29v90l15 17 l-11 16q12 23 13 47l-8 10q-12 6 -21 21q2 16 37 53q-6 86 -41 215q-14 10 -42 12t-50 4z" />
<glyph unicode="s" horiz-adv-x="839" d="M31 367q0 70 96 100q78 18 156 39q-4 -55 -53.5 -92t-49.5 -62q0 -41 90 -86q80 -39 127 -39q100 0 138 52q16 18 57 139q-25 43 -25 61l-6 10q-41 16 -160 99v18q-10 -4 -18 -4q-51 0 -133 35q-92 39 -100 80q-37 25 -46 57q-41 35 -41 76q0 25 16.5 58.5t16.5 47.5 q0 53 48.5 97.5t103.5 46.5q31 45 129 45q45 0 130 -27.5t132 -27.5q27 0 88 30q43 25 86 49q45 -2 45 -43q0 -7 -12 -32l-21 -7q-6 -25 -30 -26q-63 -37 -123 -117q-49 -70 -99 -141q-16 16 -20 33q-2 12 0 32q2 31 2 39q0 37 -8 74q-16 4 -54 33.5t-77 29.5 q-129 0 -183 -94q16 -10 17 -30q0 8 -8 -37q12 -12 73 -49q49 -29 64 -58l22 8l23 -2q39 -29 80 -40t84 -22t100 -70.5t70 -102.5q4 -12 4 -17q0 -10 -4 -30.5t-4 -30.5l12 -27q0 -135 -125 -223q-115 -82 -254 -82q-53 0 -131 25q-92 29 -106 67q-119 61 -119 138z" />
<glyph unicode="t" horiz-adv-x="1071" d="M-10 881q31 39 110 104l-24 12q25 29 33 70q10 55 20 72q8 2 31.5 4t36.5 2q14 0 42.5 -8.5t43.5 -8.5q20 0 63 6.5t66 6.5q27 0 79 -7.5t78 -7.5q-6 0 49 15l7 -2l26 10l6 -2l23 16q14 -20 51 -16l17 -12l38 -2h19l2 8q47 10 76 10q6 0 17 -5t18 -5q6 0 21 6t24 4l22 -2 q23 -14 23 -35q0 -6 -9.5 -16.5t-9.5 -16.5q0 -8 5 -23.5t5 -23.5q0 -10 -13 -25.5t-15 -23.5l-15 19h11q14 6 22 16q25 -27 55 -72q39 -55 37 -76v-6q-10 -14 -24 -6l26 4q-20 -23 -45 -22q-25 10 -71 35q-8 4 -27 47q-2 6 -29.5 25.5t-25.5 39.5q-31 27 -51 60 q-20 -6 -111 -7q-6 -14 -36 -18t-40 -18q0 -20 2 -58q4 -45 4 -57q0 -141 -20 -182q31 -35 31 -193q0 -6 -33 -51q18 -8 33 -19l-29 3l12 2l12 -9v-4q2 -10 -8 -24.5t-10 -18.5q0 -45 33 -88q33 -35 65 -69q43 0 78 -11l2 -12q0 -25 -18 -45l-109 -2l-8 16q-43 6 -41 6 q-12 0 -34.5 -6t-35.5 -6q-10 0 -30.5 3t-30.5 3l-10 -12q-59 -2 -180 -8q-20 27 -21 24q0 41 37 48q-6 -2 68 -3q18 0 49 39v115q0 8 -7.5 24.5t-7.5 24.5q0 23 35 74q-43 27 -43 53v230l35 61q-18 20 -29 82q-6 45 -10 90q-25 4 -43 4l-6 29q-47 -23 -78 -25q2 0 2 1 t-80 1q-41 -55 -80 -110q-59 -74 -102 -74q-18 0 -51 29z" />
<glyph unicode="u" horiz-adv-x="1081" d="M6 1081q2 29 82 49q68 18 109 19q10 0 29.5 -7t29.5 -7t32.5 5t35.5 5h-3q0 -2 93 -17q-2 -16 -13 -51q-2 -6 -34.5 -8t-51.5 -12q-26 -17 -26 -61q0 -11 6 -25.5t6 -22.5q0 -41 -15.5 -124t-15.5 -126q0 -57 29 -169.5t29 -172.5q20 -27 63 -80q25 -8 41 -26h8l23 -6 l22 6l39 -12q23 0 94 47q100 68 140 184q28 85 28 228v10q0 -8 -8 18v199v7q0 62 -33 87q-27 20 -98 29q14 47 31 55q8 2 63 0q63 22 77 22h1q6 0 19.5 -6t21.5 -6q80 31 88 31q45 0 58 -31l16 12h51l2 -14q0 -33 -43 -53q-34 -19 -71 -21q-2 -20 -3 -45q0 -39 11.5 -117.5 t11.5 -117.5l-2 -131q-18 -20 -18 -71q0 -25 4 -56q-14 -6 -66 -64q8 -16 8 -35q0 -47 -42 -47h-7q-25 -37 -50.5 -72.5t-76.5 -41.5l-8 -13l-2 -22h-10h-6q-23 -18 -150 -51q-10 2 -27 0q-20 -2 -26 -2q-78 0 -152 47q-84 53 -168 108q-6 10 -8 41q-18 6 -45 33 q-8 33 -16.5 66.5t-28.5 52.5l-2 82v18q0 56 10 143q12 117 12 164l-2 4l11 6l-2 5q0 12 4 49t4 55q0 35 -45 41q-59 10 -68 16z" />
<glyph unicode="v" horiz-adv-x="892" d="M-2 205q14 53 39 53q10 0 24 -6q20 2 46 39t26 59l-8 10q-23 6 -23 33v203q0 121 27 174q-35 23 -35 49q0 20 4 78.5t4 87.5q-8 29 -8 27q0 14 10 32q-33 14 -92 29q2 35 64 62q53 24 91 24h3q10 0 23.5 -9t21.5 -9t27.5 5t27.5 5q12 0 74 -21l2 -18q0 -45 -61 -45l6 -23 q0 -16 -8.5 -43.5t-8.5 -44.5v-90q0 -12 4.5 -34.5t4.5 -34.5q0 -18 -35 -49q33 -33 35 -37q8 -12 8 -54l-15 2l-16 -2q0 -47 14 -151q12 -96 13 -150q0 -18 -27 -49l8 -14q150 0 242 80q78 70 135 219q-10 6 -8 18v15q10 6 10 43l2 14q13 15 13 72v8q2 6 14 24.5t12 30.5 q0 16 -10 21q-18 10 -60 12q-51 2 -61 4q-27 4 -97.5 50t-70.5 67q0 29 82 80q14 18 45 55q14 12 86 51t86 39q45 0 93 -123t85 -123q70 0 131 6q20 2 59.5 19.5t61.5 17.5q41 0 41 -35q0 -39 -92 -79q-80 -37 -127 -37h-94q-6 -14 -6 -148q0 -88 -29 -131q-14 -23 -96 -94 q-25 -20 -25 -53q0 -49 -145 -135q-137 -82 -195 -82q-10 0 -28.5 3t-28.5 3q-41 0 -120 -12.5t-118 -12.5q-35 0 -57 25zM573 1034q27 -25 84 -61q-18 67 -61 67z" />
<glyph unicode="w" horiz-adv-x="1415" d="M-203 920q70 16 123 16q20 0 60 6t61 6q29 0 81 125t95 125q178 -94 203 -137q102 -61 102 -94q0 -29 -85 -75t-122 -48q-53 -4 -55 -4q-41 -8 -43 -27q8 -14 29 -115q16 -80 45 -96l-23 -10l-6 -17q0 -18 25.5 -52t44.5 -44q4 -70 55 -108q74 -57 86 -80 q174 174 174 287q0 16 -3 48.5t-3 49.5q0 25 -18.5 68.5t-18.5 68.5t45 41q37 12 66 12q14 0 43 -10q10 0 28.5 5t26.5 5q53 0 53 -43q-12 -12 -35 -37q-20 -70 -20 -208q0 -27 6 -50q2 -2 53 -26q63 -33 93 -74q31 -49 59 -100q70 51 121 125q52 77 52 136q0 10 -1 19 q27 16 37 58.5t33 54.5l2 10q-12 20 -13 76q0 14 -29.5 47t-29.5 96q0 25 -98 90q-43 -14 -115 -24l-4 39q0 20 89 74.5t116 54.5q25 0 65 -37q29 -29 58 -55l2 -11l-2 -14q23 -31 71 -92l17 -4v-135q6 -12 6 -39v-9l-6 -12v-100q-10 -12 -33 -35v-86h-23q4 -12 4 -23 q0 -33 -186 -235q-55 -59 -97 -83t-128 -52q-2 12 -2 41q-18 4 -29 39q-43 49 -86 100q-51 57 -96 88q-63 -80 -185 -246q-43 14 -53 15q-2 2 -147 88q-88 53 -121 119q-18 8 -30.5 29.5t-24.5 41.5q-25 29 -70 90q-20 35 -27 129q-4 70 -6 140q-51 22 -143 22h-23 q-31 20 -90 62zM248 969q55 10 88 61l-27 8q-35 0 -61 -69z" />
<glyph unicode="x" horiz-adv-x="1017" d="M-23 217q0 29 37 35h60q20 0 125 201q16 31 114 122q84 80 84 113v4l-18 -14l-17 57l-30 -8q-20 33 -43 68q-27 43 -31 75q-6 -2 -12 -2q-47 0 -66 121q-51 27 -125 98h-78q6 72 60 72q20 0 47 -12l25 8q12 0 38 -6q31 -27 68 -27q25 0 111 27l22 -8q12 -12 12 -31 q0 -10 -9 -27.5t-9 -27.5q0 -14 10 -41q6 -20 0 -51q33 -18 82 -92t96 -93l13 -16q25 18 35 35l-3 14q102 80 111 102q2 12 12 35q10 12 66 49q29 18 31 86q-14 14 -29 27l-21 -10q-45 0 -45 26q0 23 24 42.5t48 19.5q55 -23 111 -45q80 -39 80 -70q0 6 -35 -106 q-16 -2 -33.5 -43t-46.5 -50l-6 -4l-6 -20q-88 -51 -203 -156l29 -8q-14 -10 -39 -33q10 -2 41 0q12 -29 18 -61q12 4 18 4q23 0 29 -21q10 -31 21 -40q20 -16 28 -28.5t6 -47.5l11 2q25 0 48 -47t23 -76l170 -121l6 -18q0 -23 -45 -62l2 15q-25 -2 -43 24v2q-27 -4 -34 -4 q-16 0 -47 14.5t-48 14.5q-2 0 -106 -15l-4 2q-6 0 -18.5 -9t-22.5 -9l-17 2l-2 19q0 18 21.5 39.5t21.5 37.5q0 14 -8 41q-8 20 -2 47q-23 2 -45 43l-22 -2q-4 51 -56 101l-86 82q-14 -2 -24 -4q-90 -98 -183 -213q-16 -23 -45 -70q2 -14 25 -39l25 -4l10 -27 q0 -18 -23 -41q-12 -4 -24 -4q-33 0 -43 10q-6 0 -17.5 -5t-17.5 -5q-10 0 -28.5 6.5t-29.5 6.5q-25 0 -63 -5q-47 -4 -61 -4q-4 25 -5 33z" />
<glyph unicode="y" horiz-adv-x="1044" d="M-20 1116q0 31 36 45q37 0 103.5 -19.5t93.5 -19.5q6 0 100 19q20 -4 33 -15q29 23 55 35q-12 -90 -57 -108l12 -54q6 -31 -2 -55q39 -18 82 -82q61 -94 68 -100q6 -66 78 -66q20 0 100 86q68 72 96 111q4 29 25 65q27 51 31 64q0 49 -78 63q18 66 45 66q12 0 35.5 -7 t35.5 -7q20 10 35 10q8 0 22.5 -6t22.5 -6q14 0 42 7t42 7q4 0 29 -4q-4 -25 -8 -37q-8 -18 -25 -23q-37 -14 -114 -129q-51 -78 -105 -155q4 -29 4 -27q0 -23 -170 -176q20 -8 21 -29q0 -14 -9.5 -39.5t-9.5 -37.5l10 -23q-2 -6 -14 -25.5t-12 -31.5q0 -160 59 -164 q8 4 37 10l2 -25q0 -57 -45 -57q-25 0 -72 11.5t-71 11.5q-10 0 -85 -8.5t-79 -10.5l-25 6v7q0 43 25 55q4 2 63 8q2 10 2 53q0 31 13.5 52.5t13.5 58.5q0 8 -2 55t-2 55q0 18 -47 66.5t-49 97.5q-33 -4 -25 -4q-18 0 -78 96q-10 14 -6 62q-12 -6 -18 -6q-27 0 -49 59 q-14 43 -27 84q-45 33 -88 66q-61 43 -94 45z" />
<glyph unicode="z" horiz-adv-x="1003" d="M6 207q0 23 64 61q35 20 43 27q23 16 32 37q31 68 122 154.5t106 121.5q-39 -4 -103 -8q-10 0 -58 -22.5t-91 -22.5l-2 12q33 53 104 144q14 2 27 2q23 1 69 -7q36 -6 59 -6h11h21q16 18 31.5 60.5t27.5 60.5q35 6 63 53q25 37 48 74q35 4 41 96l4 7h-17q-10 -2 -14 -2 q-12 0 -37 6t-37 6q-84 0 -162 -27q-94 -100 -221 -229q-25 31 -24 51q0 14 24 62q16 23 47 73q14 59 58 176q20 18 34 19q16 0 44 -23.5t42 -23.5q6 0 17.5 5t17.5 5q18 0 55 -2t56 -2q63 0 191 5t192 5l8 -4l8 12q16 -2 43 -14q14 2 35 4q-2 -25 -18 -63q-51 -20 -103 -43 q-59 -31 -63 -82q-12 -2 -27 -31q-18 -35 -20 -39q-32 0 -54 -32q-18 -25 -17 -48q0 -6 1 -12q-12 -2 -29 -10l-4 -48q-20 -4 -43 -38q2 0 111 20l20 -8q18 4 78 26q47 18 82 19q-8 -35 -45 -60.5t-37 -58.5t-31 -39q-6 -2 -22 -2q-49 0 -215 17q-18 -78 -127 -168 q-6 -16 -28.5 -41t-28.5 -35q-2 -35 -43 -82q2 -12 61 -12h-3q0 2 169 14l10 -16h23q18 0 30 -11q12 2 39 9l4 10q29 8 54 26q18 2 51 -2q-8 14 -8 25q141 266 251 266h3l4 -12q0 -10 -66 -103q-25 -35 -74 -192q-38 -127 -75 -127q-12 0 -34 14.5t-28 14.5q-20 0 -59 -8.5 t-60 -8.5q-49 25 -57 25q-18 0 -49 -12.5t-47 -12.5q-25 0 -72 8.5t-72 8.5q-104 0 -163 -2q-14 -2 -40 -10.5t-42 -8.5q-8 0 -28.5 4t-33.5 4q-4 20 -4 21z" />
<glyph unicode="|" horiz-adv-x="397" d="M55 1528l43 -449l68 -768l-55 -510l233 -6l-68 418v799l-55 448l86 74z" />
<glyph unicode="&#x25fc;" horiz-adv-x="1187" d="M0 0v1188h1188v-1188h-1188z" />
</font>
</defs>
</svg>
