<?xml version="1.0" standalone="no"?>
<!DOCTYPE svg PUBLIC "-//W3C//DTD SVG 1.1//EN" "http://www.w3.org/Graphics/SVG/1.1/DTD/svg11.dtd" >
<svg xmlns="http://www.w3.org/2000/svg">
<metadata></metadata>
<defs>
<font id="frizquaregregular" horiz-adv-x="1310" >
<font-face units-per-em="2048" ascent="1638" descent="-410" />
<missing-glyph horiz-adv-x="534" />
<glyph horiz-adv-x="0" />
<glyph unicode="&#xd;" horiz-adv-x="534" />
<glyph unicode=" "  horiz-adv-x="534" />
<glyph unicode="&#x09;" horiz-adv-x="534" />
<glyph unicode="&#xa0;" horiz-adv-x="534" />
<glyph unicode="!" horiz-adv-x="872" d="M236 1448h323l-49 -1036h-154l-32 721l-9 137q-2 41 -6 69.5t-12 49t-23.5 34t-37.5 25.5zM311 133q0 55 40.5 94t97.5 39q53 0 92 -40t39 -93q0 -57 -39 -96t-95 -39q-57 0 -96 39t-39 96z" />
<glyph unicode="&#x22;" d="M379 1423h215l-33 -571h-147zM715 1423h215l-35 -571h-147z" />
<glyph unicode="#" d="M27 414l20 125h297l53 335h-299l19 125h299l67 422h133l-65 -422h295l67 422h131l-63 -422h303l-18 -125h-308l-49 -335h305l-20 -125h-303l-66 -414h-135l68 414h-299l-64 -414h-133l64 414h-299zM479 539h297l51 335h-297z" />
<glyph unicode="$" horiz-adv-x="1138" d="M115 1075q0 141 107.5 233.5t295.5 110.5v172h117v-172q68 -4 140.5 -16t133.5 -33v-227q-106 106 -274 121v-398q12 -8 25.5 -14t25.5 -12q63 -31 102 -51.5t66 -36t45.5 -30.5t42.5 -40q57 -55 88 -125t31 -147q0 -160 -110.5 -263.5t-315.5 -138.5v-192h-117v190 q-96 0 -196.5 6t-188.5 21v254q92 -72 180 -103.5t205 -33.5v536q-98 41 -149.5 66.5t-89.5 52.5q-164 109 -164 270zM317 1100q0 -55 43 -96t158 -95v355q-45 -4 -70.5 -10.5t-50.5 -22.5q-37 -20 -58.5 -56t-21.5 -75zM635 164q104 31 162.5 91t58.5 140q0 90 -84 156 q-27 20 -53.5 35.5t-83.5 44.5v-467z" />
<glyph unicode="%" horiz-adv-x="1511" d="M72 1100q0 74 23.5 136t65.5 106t99 70t125 26q63 0 118.5 -26t95.5 -71t63.5 -105t23.5 -130q0 -72 -23.5 -132.5t-65.5 -106.5t-98.5 -71.5t-119.5 -25.5q-66 0 -122 24.5t-97 68.5t-64.5 104.5t-23.5 132.5zM238 1100q0 -102 37.5 -158.5t103.5 -56.5q70 0 105.5 56 t35.5 161q0 109 -36.5 166t-106.5 57q-66 0 -102.5 -58.5t-36.5 -166.5zM338 0l700 1423h127l-698 -1423h-129zM827 313q0 74 23.5 135.5t65.5 106.5t99.5 70.5t125.5 25.5q63 0 118.5 -25.5t95.5 -70.5t63.5 -105.5t23.5 -130.5q0 -72 -23.5 -132t-65.5 -106t-98.5 -71.5 t-119.5 -25.5q-66 0 -122.5 24.5t-97.5 68.5t-64.5 104.5t-23.5 131.5zM995 315q0 -104 37 -160.5t105 -56.5t103.5 56.5t35.5 160.5q0 109 -36.5 166.5t-106.5 57.5q-66 0 -102 -58.5t-36 -165.5z" />
<glyph unicode="&#x26;" horiz-adv-x="1744" d="M164 387q0 63 15.5 119.5t50 111t91 111.5t140.5 123q-49 51 -83 92t-53.5 77t-28.5 69.5t-9 70.5q0 61 26.5 113.5t72.5 92.5t108.5 62.5t134.5 22.5q68 0 125 -21.5t98 -60.5t64.5 -92t23.5 -117q0 -43 -8 -80t-29.5 -72.5t-58.5 -76.5t-94 -92q197 -195 341 -328 t263 -228.5t224 -161t224 -122.5q-59 -2 -97 -3t-63.5 -2t-44.5 -1h-36q-59 0 -111.5 11t-105 37t-109.5 70t-131 111q-45 -68 -92 -116t-100.5 -78.5t-118 -44t-142.5 -13.5q-109 0 -199 30t-154.5 85t-99 132t-34.5 169zM393 399q0 -61 21.5 -112t61.5 -88t94.5 -57.5 t119.5 -20.5q193 0 326 180q-72 63 -130.5 116.5t-108.5 103.5t-96 98.5t-91 99.5q-197 -145 -197 -320zM473 1194q0 -49 34 -100t120 -127q72 55 105.5 107t33.5 110q0 59 -43 97t-109 38q-61 0 -101 -35t-40 -90z" />
<glyph unicode="'" horiz-adv-x="872" d="M330 1423h215l-33 -571h-147z" />
<glyph unicode="(" horiz-adv-x="659" d="M121 553q0 152 34.5 303.5t100.5 292.5q14 31 29.5 59.5t34 60t41 69.5t53.5 85h166q-137 -215 -204 -429t-67 -447q0 -242 71 -467t200 -406h-166q-150 225 -221.5 440.5t-71.5 438.5z" />
<glyph unicode=")" horiz-adv-x="665" d="M78 -326q131 180 201.5 405.5t70.5 467.5q0 236 -66.5 448.5t-205.5 427.5h172q31 -47 54.5 -85t42 -69.5t33.5 -60t30 -59.5q66 -141 100.5 -292.5t34.5 -303.5q0 -223 -72 -438t-223 -441h-172z" />
<glyph unicode="*" d="M289 1083l69 201q35 -35 80 -62.5t115 -50.5l51 -16v55q0 55 -15.5 110.5t-43.5 102.5h215q-51 -82 -51 -213v-55l51 16q49 18 78.5 32t49 26t34 26.5t30.5 36.5l68 -194q-16 2 -27 2h-20q-39 0 -81 -7.5t-95 -23.5l-52 -16l35 -39q27 -37 48.5 -60.5t40 -40t39 -26.5 t44.5 -21l-172 -125q-4 27 -10 49.5t-17.5 46t-26.5 49t-38 60.5l-33 43l-30 -43q-35 -53 -58.5 -106.5t-31.5 -98.5l-168 125q27 8 46 18.5t37.5 26t41 39t53.5 60.5l30 43l-57 18q-25 8 -74 15.5t-79 7.5q-16 0 -32 -2t-44 -9z" />
<glyph unicode="+" d="M182 645v148h400v409h147v-409h399v-148h-399v-407h-147v407h-400z" />
<glyph unicode="," horiz-adv-x="526" d="M102 -217q68 61 114 119.5t46 81.5q0 10 -7 14t-38 12q-37 10 -61.5 42t-24.5 73q0 53 38 89t91 36q59 0 97 -42t38 -108q0 -68 -39 -144.5t-106 -141.5q-23 -23 -36 -30t-30 -7q-16 0 -32.5 1t-49.5 5z" />
<glyph unicode="-" horiz-adv-x="804" d="M72 430l123 154q16 23 34.5 30t59.5 7h229q45 0 76 1t53.5 4t43 9t44.5 16l-117 -155q-18 -25 -34.5 -32t-57.5 -7h-258q-39 0 -65.5 -1t-47 -4t-40 -8.5t-43.5 -13.5z" />
<glyph unicode="." horiz-adv-x="526" d="M129 117q0 55 40 94t97 39q53 0 92 -40t39 -93q0 -57 -39 -96t-94 -39q-57 0 -96 38.5t-39 96.5z" />
<glyph unicode="/" horiz-adv-x="880" d="M-35 -297l682 1720h156l-676 -1720h-162z" />
<glyph unicode="0" d="M80 711q0 166 43 303t122 236.5t186.5 154.5t236.5 55q123 0 226 -55t177 -153.5t116 -234.5t42 -298q0 -166 -43 -304.5t-119 -238.5t-182.5 -156.5t-231.5 -56.5q-102 0 -200.5 40t-163.5 110q-98 102 -153.5 260.5t-55.5 337.5zM311 731q0 -133 24.5 -241.5t71 -185.5 t110 -120t140.5 -43q78 0 141.5 39t107.5 110.5t68.5 173t24.5 228.5q0 131 -25.5 239.5t-72.5 186.5t-112.5 121t-145.5 43q-74 0 -135.5 -40t-105.5 -111.5t-67.5 -173t-23.5 -226.5z" />
<glyph unicode="1" d="M322 1141q70 25 138 65.5t130.5 92t114 109.5t88.5 120v-1247q0 -47 1 -79t5 -53.5t11 -39t19 -35.5q16 -25 30.5 -41.5t39.5 -32.5h-453q39 25 65 47.5t39 53t18 72.5t5 108v860h-251z" />
<glyph unicode="2" d="M109 0l561 813q37 51 60.5 90t36.5 70t19.5 57.5t6.5 54.5q0 92 -65.5 147.5t-172.5 55.5q-45 0 -87 -7t-86 -23.5t-94 -43t-110 -63.5l129 266q86 23 152.5 32t128.5 9q98 0 181 -24.5t144.5 -68.5t95 -104.5t33.5 -130.5q0 -29 -4 -56t-15 -58t-29.5 -67t-45.5 -85 q-14 -25 -30.5 -51.5t-33 -52t-30.5 -47t-23 -33.5l-362 -500q104 -14 173 -19t134 -5q125 0 233.5 24.5t213.5 77.5l-119 -258h-995z" />
<glyph unicode="3" d="M125 242q104 -53 201.5 -77t197.5 -24q84 0 156 22.5t123 62.5t79.5 95.5t28.5 120.5q0 123 -92 193t-258 70q-53 0 -88 -4.5t-84 -18.5v180q33 -4 52.5 -5t45.5 -1q150 0 232 53q43 29 69.5 74t26.5 92q0 45 -21.5 84t-58.5 67.5t-88 45t-110 16.5q-80 0 -158 -25.5 t-174 -80.5l90 229q66 25 133.5 36t151.5 11q102 0 187 -24.5t146.5 -69.5t96 -107.5t34.5 -136.5q0 -113 -64.5 -186.5t-201.5 -118.5q90 -20 145.5 -43.5t102.5 -62.5q59 -49 92 -121t33 -158q0 -98 -43 -182t-125 -144q-86 -66 -228.5 -102.5t-297.5 -36.5q-49 0 -98.5 3 t-127.5 14z" />
<glyph unicode="4" d="M27 295l671 1128h289v-960q92 6 153.5 26.5t121.5 67.5l-105 -262h-170v-86q0 -150 96 -209h-407q61 27 82.5 64.5t21.5 117.5v113h-753zM324 479q74 -10 155.5 -14t188.5 -4h47q31 0 69 2l4 825z" />
<glyph unicode="5" d="M145 221q96 -49 185.5 -71.5t191.5 -22.5q92 0 167 23.5t129 65.5t84 101.5t30 131.5q0 133 -106.5 211.5t-286.5 78.5q-170 0 -326 -65l47 749h780v-260q-29 25 -60.5 43.5t-73.5 28.5t-94 15t-122 5q-35 0 -63.5 -1t-55 -2t-55.5 -4t-61 -7l-23 -356q66 16 110 22t99 6 q117 0 214 -32.5t167 -93t107.5 -144.5t37.5 -186q0 -109 -47 -200t-131 -155.5t-202.5 -100.5t-260.5 -36q-35 0 -66.5 2t-64.5 6t-68.5 10.5t-80.5 16.5z" />
<glyph unicode="6" d="M92 569q0 119 38 232.5t109.5 214t174 184.5t231.5 143q102 47 203.5 76t226.5 45l-102 -137q-104 -18 -211 -74.5t-205 -144.5q-117 -106 -178.5 -241.5t-61.5 -288.5q0 -102 28 -188.5t77 -148t117.5 -95t152.5 -33.5q70 0 128.5 23.5t99.5 67.5t63.5 105.5t22.5 134.5 q0 162 -92.5 258.5t-247.5 96.5q-61 0 -116.5 -15.5t-127.5 -54.5l135 170q57 27 98 37t101 10q100 0 184 -34.5t144.5 -96t94 -146.5t33.5 -186q0 -111 -41 -206t-113.5 -163.5t-172 -108.5t-215.5 -40q-123 0 -229.5 46t-183.5 127t-121 191.5t-44 239.5z" />
<glyph unicode="7" d="M164 1163l98 260h932l-303 -700q-115 -268 -179.5 -436t-64.5 -203q0 -23 12.5 -42t47.5 -42h-361l545 1243q-86 16 -156.5 23.5t-161.5 7.5q-133 0 -226 -25.5t-183 -85.5z" />
<glyph unicode="8" d="M80 373q0 123 80 214t246 161q-274 119 -275 335q0 80 39 148.5t108.5 119t164 79t204.5 28.5q111 0 204 -26.5t160.5 -73.5t105.5 -111.5t38 -142.5q0 -98 -63.5 -176t-200.5 -150q45 -23 77.5 -39t57.5 -30.5t44.5 -27.5t41.5 -32q59 -47 92 -115.5t33 -146.5 q0 -94 -42 -172t-119 -133t-183.5 -86t-237.5 -31q-127 0 -232.5 30t-182 84t-118.5 129t-42 165zM301 393q0 -119 109 -211q51 -43 107 -61.5t140 -18.5q160 0 257.5 69t97.5 183q0 55 -23.5 100.5t-79 83t-146.5 72.5t-224 72q-238 -109 -238 -289zM348 1124 q0 -92 95.5 -160.5t314.5 -129.5q96 53 146 117.5t50 129.5q0 51 -25.5 96.5t-69.5 78t-105.5 51t-132.5 18.5q-123 0 -198 -55.5t-75 -145.5z" />
<glyph unicode="9" d="M96 940q0 109 43 204t118 165.5t177.5 110.5t218.5 40q123 0 227.5 -44t179.5 -123t118 -186.5t43 -234.5q0 -221 -115 -410.5t-326 -318.5q-61 -39 -119.5 -67.5t-123 -50t-138 -39t-166.5 -31.5l107 135q129 31 223 81t185 134q252 236 251 543q0 98 -27.5 182 t-76.5 144.5t-115.5 95.5t-146.5 35q-70 0 -128.5 -25t-101.5 -68t-67.5 -102t-24.5 -129q0 -78 24.5 -141.5t69 -110.5t104.5 -72.5t132 -25.5q61 0 115.5 14t115.5 49l-147 -180q-53 -18 -88 -24.5t-88 -6.5q-96 0 -179 35t-143.5 96.5t-95.5 144.5t-35 181z" />
<glyph unicode=":" horiz-adv-x="526" d="M129 117q0 55 40 94t97 39q53 0 92 -40t39 -93q0 -57 -39 -96t-94 -39q-57 0 -96 38.5t-39 96.5zM129 829q0 55 39 94.5t98 39.5q53 0 92 -40t39 -94q0 -57 -39 -96t-94 -39q-57 0 -96 39t-39 96z" />
<glyph unicode=";" horiz-adv-x="526" d="M102 -217q68 61 114 119.5t46 81.5q0 10 -7 14t-38 12q-37 10 -61.5 42t-24.5 73q0 53 38 89t91 36q59 0 97 -42t38 -108q0 -68 -39 -144.5t-106 -141.5q-23 -23 -36 -30t-30 -7q-16 0 -32.5 1t-49.5 5zM121 829q0 55 39 94.5t98 39.5q53 0 92 -40t39 -94q0 -57 -39 -96 t-96 -39q-55 0 -94 39t-39 96z" />
<glyph unicode="&#x3c;" horiz-adv-x="1067" d="M72 639v166l925 446v-194l-716 -336l716 -336v-192z" />
<glyph unicode="=" d="M182 483v148h946v-148h-946zM182 793v147h946v-147h-946z" />
<glyph unicode="&#x3e;" horiz-adv-x="1067" d="M72 190v195l716 336l-716 336v194l925 -446v-168z" />
<glyph unicode="?" horiz-adv-x="1089" d="M143 1212l123 201q63 27 110.5 36t106.5 9q104 0 192.5 -28.5t152 -81t99.5 -123t36 -156.5q0 -51 -11.5 -96t-38 -91t-70.5 -94.5t-108 -105.5q-72 -66 -111.5 -102.5t-59 -62t-23.5 -47t-4 -54.5q0 -18 2 -33.5t10 -42.5l-168 -18q-6 29 -8 46t-2 38q0 43 9 79.5 t29.5 72.5t55.5 73t86 82q106 92 150 162.5t44 148.5q0 59 -23.5 110.5t-65.5 89.5t-99 59.5t-123 21.5q-33 0 -60.5 -4.5t-60 -14.5t-72.5 -27.5t-98 -46.5zM346 100q0 55 40 94t97 39q53 0 92 -39.5t39 -93.5q0 -55 -39.5 -95t-95.5 -40q-55 0 -94 39t-39 96z" />
<glyph unicode="@" horiz-adv-x="1820" d="M203 668q0 174 58 318t163.5 247.5t253 161t323.5 57.5q293 0 457 -142.5t164 -400.5q0 -115 -37 -220t-98.5 -186t-142 -129t-168.5 -48q-70 0 -117 45t-47 110q0 20 4 56t10 65l68 316q-29 29 -67 40t-91 11q-51 0 -94 -21.5t-75 -58.5t-49.5 -89t-17.5 -114 q0 -190 183 -190q29 0 50 4t52 14l-88 -137q-29 -8 -46 -11.5t-40 -3.5q-61 0 -111.5 23t-86 63.5t-56 97t-20.5 124.5q0 111 48 209t130 157q94 66 227 66q35 0 66.5 -4t68.5 -13q25 -6 40.5 -10t25.5 -5t18 -2t19 -1q23 0 35 3t40 17l29 15l-102 -479q-4 -23 -8.5 -50.5 t-4.5 -44.5q0 -27 16.5 -43t43.5 -16q49 0 93 36t78 96.5t54.5 138t20.5 163.5q0 199 -129 310.5t-359 111.5q-141 0 -259 -46t-202 -129t-130 -199.5t-46 -258.5q0 -131 41 -237.5t118 -181t183.5 -115.5t239.5 -41q123 0 235.5 34.5t223.5 108.5l-31 -141 q-96 -63 -231.5 -98t-278.5 -35q-141 0 -260 51t-205 141t-134 216t-48 274z" />
<glyph unicode="A" horiz-adv-x="1570" d="M18 0q37 25 64 46.5t48.5 53t42 76.5t46.5 115l381 950q25 63 25 98q0 29 -14.5 47.5t-51.5 36.5h344l455 -1132q25 -63 47 -108.5t46 -79t51.5 -58.5t64.5 -45h-449q49 29 63.5 44t14.5 42q0 8 -1 16.5t-5 20.5t-11.5 32.5t-19.5 51.5l-127 330h-547l-123 -330 q-24 -63 -24 -108q0 -34 17.5 -55t60.5 -44h-398zM537 676h440l-219 565z" />
<glyph unicode="B" horiz-adv-x="1296" d="M106 0q31 16 49.5 35.5t29 50.5t14.5 76t4 114v871q0 70 -4 115t-14.5 75.5t-29 50t-49.5 35.5h308h37q31 0 75 2h68q111 0 178.5 -11t120.5 -40q84 -43 130 -112.5t46 -153.5q0 -70 -32.5 -130t-92.5 -99q-18 -12 -36.5 -22.5t-55.5 -27.5q59 -16 93 -28.5t69 -32.5 q92 -51 142 -135t50 -184q0 -123 -72.5 -226.5t-199.5 -163.5q-35 -16 -72 -27.5t-80 -17.5t-96 -10t-121 -4h-151h-308zM414 172q59 -12 99 -16t91 -4q174 0 267.5 69.5t93.5 198.5q0 141 -101 219q-53 41 -117.5 58.5t-168.5 17.5q-43 0 -79 -2t-85 -8v-533zM414 850 q29 -4 45 -4h37q154 0 248 61.5t94 165.5q0 98 -76 155.5t-201 57.5q-31 0 -62.5 -2t-84.5 -10v-424z" />
<glyph unicode="C" horiz-adv-x="1372" d="M82 709q0 162 57.5 299t159.5 237.5t242.5 156.5t306.5 56q162 0 389 -55v-248q-109 61 -202 90t-191 29q-115 0 -209 -39t-163 -109.5t-106.5 -167t-37.5 -213.5q0 -127 42 -237.5t115.5 -192.5t173 -129t213.5 -47q113 0 222.5 33t251.5 109l-109 -252 q-88 -35 -163 -49.5t-173 -14.5q-184 0 -335.5 53.5t-259 150.5t-166 234.5t-58.5 305.5z" />
<glyph unicode="D" horiz-adv-x="1521" d="M106 0q25 23 38.5 35t21.5 21.5t11 18.5l7 21q10 31 14.5 74t4.5 117v860q0 70 -4 115t-14.5 75.5t-29 50t-49.5 35.5h218h61q37 0 82 2q49 2 94 2h76q184 0 317 -42t244 -136q117 -96 179.5 -230t62.5 -292q0 -106 -30 -206.5t-83 -185.5t-130 -152.5t-171 -110.5 q-43 -20 -95 -33.5t-120 -22t-155 -12.5t-201 -4h-349zM420 176q49 -10 80.5 -12t79.5 -2q141 0 239.5 24.5t171.5 79.5q211 156 211 439q0 119 -39 226t-110 185q-74 80 -185.5 122t-249.5 42q-53 0 -94 -5t-104 -18v-1081z" />
<glyph unicode="E" horiz-adv-x="1126" d="M106 0q31 16 49.5 35.5t29 50.5t14.5 77t4 116v868q0 70 -4 116t-15.5 76.5t-30 49t-47.5 34.5h719q31 0 45.5 2t36.5 11v-252q-27 25 -51.5 42t-54 26.5t-68.5 13.5t-90 4q-78 0 -127 -3t-96 -12v-403h289q25 0 39 2t34 12v-229q-27 35 -62.5 47t-107.5 12h-192v-514 q76 -12 134 -17t132 -5q141 0 237.5 28.5t184.5 94.5l-100 -283h-902z" />
<glyph unicode="F" horiz-adv-x="960" d="M106 0q31 16 49.5 35.5t29 50.5t14.5 76t4 114v871q0 70 -4 115t-14.5 75.5t-29 50t-49.5 35.5h719q29 0 44.5 2t37.5 11v-250q-27 25 -51.5 41t-54 25.5t-67.5 13.5t-89 4q-80 0 -128 -3t-97 -12v-403h289q25 0 39 2t34 12v-229q-25 35 -61.5 47t-108.5 12h-192v-420 q0 -70 4 -114.5t14.5 -75.5t28.5 -50.5t49 -35.5h-410z" />
<glyph unicode="G" horiz-adv-x="1624" d="M82 702q0 186 86 341t246 262q117 78 254 115.5t307 37.5q45 0 84 -2t78 -6t83 -11t97 -18v-247q-74 70 -165 100.5t-220 30.5q-133 0 -243.5 -43t-190.5 -119t-125 -181.5t-45 -230.5q0 -127 49 -238.5t134 -194.5t199.5 -131t245.5 -48q78 0 162 12t135 31v287 q0 70 -4 114.5t-14 75.5t-28.5 50.5t-49.5 35.5h326q-12 -41 -13 -127v-459q0 -51 2.5 -69.5t10.5 -40.5q-23 -2 -34 -3t-42 -10q-74 -14 -133.5 -24t-109.5 -16.5t-98 -8.5t-101 -2q-178 0 -317.5 37t-254.5 115q-150 102 -230.5 253.5t-80.5 331.5z" />
<glyph unicode="H" horiz-adv-x="1619" d="M106 0q31 16 49.5 35.5t29 50.5t14.5 76t4 114v871q0 70 -4 115t-14.5 75.5t-29 50t-49.5 35.5h410q-31 -16 -49 -35.5t-28.5 -50t-14.5 -75.5t-4 -115v-295h778v295q0 70 -4 115t-15.5 75.5t-30 50t-46.5 35.5h409q-29 -16 -48 -35.5t-29.5 -50t-14.5 -77t-4 -113.5 v-871q0 -68 4 -113.5t14.5 -76.5t30 -50.5t47.5 -35.5h-409q29 16 47 35.5t29.5 50.5t15.5 77t4 113v410h-778v-410q0 -70 4 -114.5t14.5 -75.5t28.5 -50.5t49 -35.5h-410z" />
<glyph unicode="I" horiz-adv-x="622" d="M106 0q31 16 49.5 35.5t29 50.5t14.5 76t4 114v871q0 70 -4 115t-14.5 75.5t-29 50t-49.5 35.5h410q-31 -16 -49 -35.5t-28.5 -50t-14.5 -75.5t-4 -115v-871q0 -70 4 -114.5t14.5 -75.5t28.5 -50.5t49 -35.5h-410z" />
<glyph unicode="J" horiz-adv-x="593" d="M-76 -498q72 45 121 89t84 100q18 27 29.5 55.5t17.5 63t9 81t3 109.5v1147q0 68 -4 114t-15 76.5t-29.5 50t-47.5 35.5h410q-31 -16 -49.5 -35.5t-28.5 -50t-14 -75.5t-4 -115v-1147v-111q0 -41 -1.5 -63.5t-4.5 -33.5t-7 -28q-18 -59 -68.5 -105t-144.5 -91 q-68 -33 -123 -47.5t-133 -18.5z" />
<glyph unicode="K" horiz-adv-x="1345" d="M106 0q31 16 49.5 35.5t29 50.5t14.5 76t4 114v871q0 70 -4 115t-14.5 75.5t-29 50t-49.5 35.5h410q-31 -16 -49 -35.5t-28.5 -50t-14.5 -75.5t-4 -115v-871q0 -70 4 -114.5t14.5 -75.5t28.5 -50.5t49 -35.5h-410zM457 741l299 398q49 63 77.5 115.5t28.5 76.5 q0 51 -65 92h389l-498 -639q119 -160 189.5 -255t114.5 -153.5t73 -93t61 -71.5q23 -25 47.5 -48.5t55.5 -48t68.5 -53t86.5 -61.5q-41 -4 -98 -7t-108 -3q-63 0 -107.5 11t-92.5 54t-113.5 128t-172.5 233q-45 66 -91 130t-93 130q-14 16 -26.5 32.5t-24.5 32.5z" />
<glyph unicode="L" horiz-adv-x="1130" d="M106 0q31 16 49.5 35.5t29 50.5t14.5 76t4 114v871q0 70 -4 115t-14.5 75.5t-29 50t-49.5 35.5h410q-31 -16 -49 -35.5t-28.5 -50t-14.5 -75.5t-4 -115v-971q72 -10 146.5 -16t144.5 -6q57 0 106 7t95 22.5t92.5 41t99.5 62.5l-115 -287h-883z" />
<glyph unicode="M" horiz-adv-x="2054" d="M53 0q53 51 78 113.5t39 171.5l125 909q4 33 7 51.5t4 28.5t1 16v15q0 37 -16.5 62.5t-59.5 55.5h379q0 -18 3 -29.5t18 -45.5l416 -977l350 897q14 37 23.5 58.5t12.5 35.5t4 27.5t1 33.5h374q-67 -33 -67 -132q0 -43 6 -81l133 -954q6 -55 13.5 -93t19.5 -65.5 t31.5 -50t50.5 -47.5h-418q49 23 69.5 60.5t20.5 103.5q0 20 -2 42.5t-8 78.5l-115 925l-485 -1239q-39 33 -64.5 57.5t-45 50t-35 56.5t-33.5 74l-424 1001l-127 -954q-4 -39 -7 -68.5t-3 -44.5q0 -49 18 -78.5t68 -64.5h-355z" />
<glyph unicode="N" horiz-adv-x="1613" d="M90 0q35 23 57.5 45.5t35 51t17.5 66.5t5 91v915q0 53 -5 91t-18.5 68t-35 51.5t-54.5 43.5h316q2 -8 5 -13t8 -13t13 -20.5t25 -33.5l801 -1019v845q0 53 -5.5 91t-18.5 67t-35.5 51.5t-55.5 44.5h387q-35 -23 -57.5 -45t-35 -51t-17.5 -66.5t-5 -91.5v-1239 q-90 29 -160.5 83.5t-136.5 144.5l-758 960v-864q0 -53 5.5 -91t18.5 -67.5t34.5 -52.5t54.5 -43h-385z" />
<glyph unicode="O" horiz-adv-x="1753" d="M82 705q0 162 62.5 300t172 239.5t259 158.5t323.5 57q154 0 301.5 -56t249.5 -157q102 -98 160.5 -238.5t58.5 -287.5q0 -158 -62.5 -296t-170 -240.5t-253 -161t-313.5 -58.5q-166 0 -309 57.5t-249.5 157t-168 234.5t-61.5 291zM326 739q0 -125 45 -245.5t129 -212.5 q147 -162 379 -162q121 0 221 41t171.5 116.5t111.5 179t40 230.5q0 123 -37.5 233.5t-109.5 196.5q-158 189 -408 189q-111 0 -216 -43t-177 -117q-70 -72 -109.5 -180.5t-39.5 -225.5z" />
<glyph unicode="P" horiz-adv-x="1181" d="M106 0q31 16 49.5 35.5t29 50.5t14.5 76t4 114v871q0 70 -4 115t-14.5 75.5t-29 50t-49.5 35.5h207h41h39t59.5 1t102.5 1h68q92 0 158.5 -12t125.5 -41q100 -49 159.5 -136t59.5 -189q0 -84 -37.5 -158t-102 -129t-151.5 -87t-186 -32q-51 0 -81.5 6t-73.5 23 q102 12 163.5 35.5t114.5 68.5q113 98 113 234q0 125 -83 196.5t-231 71.5q-43 0 -74.5 -4t-76.5 -15v-1003q0 -53 5 -92t18.5 -67.5t35 -51.5t53.5 -43h-426z" />
<glyph unicode="Q" horiz-adv-x="1751" d="M82 709q0 160 61.5 297t171 237t257 157.5t319.5 57.5q166 0 308 -55t246.5 -153.5t164 -231.5t59.5 -289q0 -147 -58.5 -288.5t-160.5 -239.5q-16 -16 -32.5 -30.5t-35 -28t-42 -27t-56.5 -31.5q387 -362 684 -363h25q-124 -112 -270 -112h-3q-59 0 -127.5 21.5 t-152.5 67.5t-185.5 116.5t-226.5 171.5q-66 -12 -102.5 -16.5t-77.5 -4.5q-162 0 -301 57.5t-242.5 158t-163 235.5t-59.5 293zM326 752q0 -123 36.5 -236t108.5 -205q78 -98 177.5 -145t234.5 -47q119 0 218 42t170.5 117.5t111.5 180t40 229.5q0 119 -41 232.5 t-112 201.5q-78 94 -175.5 138.5t-226.5 44.5q-104 0 -201.5 -37t-170.5 -103q-170 -154 -170 -413z" />
<glyph unicode="R" horiz-adv-x="1296" d="M106 0q31 16 49.5 35.5t29 50.5t14.5 76t4 114v871q0 70 -4 115t-14.5 75.5t-29 50t-49.5 35.5h314h39q27 0 61 2q29 2 51 2h41q106 0 183 -20.5t137 -63.5q66 -49 104.5 -123.5t38.5 -152.5q0 -61 -25.5 -120.5t-72.5 -109t-111.5 -86t-140.5 -55.5q121 -164 215 -279.5 t171 -197.5t142.5 -134t130.5 -85q-49 -4 -80.5 -6t-52 -4t-34.5 -2h-31q-47 0 -84 9t-75 32.5t-79 65.5t-96 108q-96 113 -193.5 251t-185.5 287q360 61 361 310q0 106 -73 172.5t-190 66.5q-35 0 -68.5 -3t-82.5 -13v-998q0 -70 4 -114.5t14.5 -75.5t28.5 -50.5t49 -35.5 h-410z" />
<glyph unicode="S" horiz-adv-x="1187" d="M76 299q111 -86 226.5 -129t248.5 -43q70 0 129 17.5t102 47t67.5 69.5t24.5 87q0 43 -19 84t-52 70q-18 16 -40 30.5t-52.5 31t-74.5 38t-110 51.5q-63 29 -109 51.5t-81 42t-60.5 38t-48.5 40.5q-53 47 -82.5 113t-29.5 137q0 88 37.5 159t108.5 121t170 76.5t222 26.5 q86 0 164 -11t166 -36v-246q-70 68 -158 105t-184 37q-129 0 -207 -55.5t-78 -147.5q0 -41 13.5 -73t49.5 -62.5t98.5 -64.5t158.5 -79q68 -31 116 -54t84.5 -43.5t63.5 -38t51 -38.5q117 -92 117 -235q0 -80 -35 -156t-98 -137q-166 -160 -453 -160q-104 0 -191 15.5 t-190 52.5z" />
<glyph unicode="T" horiz-adv-x="1101" d="M-14 1180l80 258q18 -6 48.5 -10.5t61.5 -4.5h813q35 2 55.5 3t28.5 1q10 2 18.5 3.5t24.5 7.5l-69 -258q-25 47 -67 64.5t-136 17.5h-31q-10 0 -23.5 -1t-36 -2.5t-61.5 -3.5h-35v-1001q0 -53 5.5 -91t17.5 -66.5t34.5 -51t57.5 -45.5h-428q29 14 47.5 34.5t29.5 51.5 t15 77t4 113v979q-33 4 -84 5.5t-90 1.5q-51 0 -89 -3.5t-68.5 -12.5t-60.5 -25.5t-62 -40.5z" />
<glyph unicode="U" horiz-adv-x="1540" d="M100 1423h410q-29 -16 -48.5 -35.5t-29.5 -50t-14 -75.5t-4 -115v-629q0 -109 15 -167t60 -109q47 -57 119 -88t156 -31q96 0 179 40t132 109q27 35 36 73t9 99v703q0 70 -4 115t-15 75.5t-29.5 50t-47.5 35.5h410q-29 -16 -48.5 -35.5t-29.5 -50t-14.5 -75.5t-4.5 -115 v-871q0 -70 4.5 -114.5t14.5 -75.5t29.5 -50.5t48.5 -35.5h-306v150q-154 -184 -428 -185q-156 0 -275.5 62.5t-176.5 175.5q-16 29 -25.5 57.5t-15.5 64t-8 82t-2 111.5v629q0 70 -4.5 115t-14.5 75.5t-28.5 50t-49.5 35.5z" />
<glyph unicode="V" horiz-adv-x="1341" d="M-10 1423h315q-2 -10 -2 -24q0 -41 49 -176l355 -967l305 801q39 98 52 150.5t13 92.5q0 90 -78 123h328l-577 -1486q-76 49 -120 81.5t-72 64.5t-46 74t-41 109l-293 791q-39 106 -61.5 166.5t-41 95.5t-37 55.5t-48.5 48.5z" />
<glyph unicode="W" horiz-adv-x="2052" d="M-12 1423h315q-2 -10 -3 -16t-1 -10q0 -16 6 -41t17 -62l335 -1044l269 860q16 51 26.5 102.5t10.5 79.5q0 41 -20.5 72t-65.5 59h299q-4 -14 -5.5 -22t-1.5 -19q0 -31 7.5 -65.5t23.5 -83.5l313 -977l263 831q12 43 21 73t13.5 50.5t6.5 35t2 30.5q0 51 -32 90t-85 57 h326l-457 -1484q-18 14 -38 26t-40 27q-49 33 -80 56.5t-50.5 50t-34.5 64.5t-36 99l-243 768l-336 -1091q-25 18 -49.5 35.5t-51.5 33.5q-43 29 -69.5 51.5t-45 48t-32.5 61.5t-33 93l-272 848q-25 76 -43.5 126t-37 84t-40 57.5t-51.5 45.5z" />
<glyph unicode="X" horiz-adv-x="1478" d="M10 0q29 29 46.5 48.5t33.5 37.5l158 201l362 471l-293 420q-37 57 -66.5 98t-56 68.5t-52 46t-56.5 32.5l219 9q14 2 23 2h14q20 0 33.5 -2t26 -11.5t27.5 -30t42 -59.5l289 -411l231 311q51 68 51 119q0 29 -19 45t-69 28h398l-492 -641l361 -536q41 -63 70.5 -103.5 t56 -67t54.5 -43t64 -32.5l-206 -12h-39q-31 0 -50.5 3t-35 13t-33 32.5t-41.5 61.5l-346 520l-316 -419q-47 -63 -47 -105q0 -55 78 -94h-420z" />
<glyph unicode="Y" horiz-adv-x="1306" d="M-14 1423l219 9h26q25 0 40.5 -2.5t27.5 -12.5t26.5 -30.5t36.5 -57.5l326 -532l273 413q40 60 40 103q0 31 -21.5 61.5t-55.5 48.5h374l-530 -800v-369q0 -53 4 -88t15.5 -62.5t33 -51t56.5 -52.5h-418q31 20 48 40.5t27.5 50.5t13.5 74t3 111v347l-373 600 q-29 45 -49 73.5t-40.5 50t-45.5 39t-57 37.5z" />
<glyph unicode="Z" horiz-adv-x="1339" d="M51 0l797 1247q-86 12 -168 17.5t-186 5.5q-63 0 -107.5 -3t-81.5 -13.5t-74.5 -29t-89.5 -48.5l105 247h956l-790 -1241q127 -10 245.5 -16t210.5 -6q63 0 118.5 6t107 19.5t102.5 35t111 53.5l-113 -274h-1143z" />
<glyph unicode="[" horiz-adv-x="681" d="M113 -326q27 20 42 39t24 45.5t12.5 65.5t3.5 98v1266q0 53 -3.5 88t-11.5 59.5t-24.5 44t-42.5 43.5h483v-116h-217v-1510h217v-123h-483z" />
<glyph unicode="\" horiz-adv-x="765" d="M20 1423h156l682 -1720h-160z" />
<glyph unicode="]" horiz-adv-x="671" d="M86 -203h217v1510h-217v116h473q-23 -23 -37 -42t-22 -44.5t-10.5 -60.5t-2.5 -88v-1266q0 -59 2.5 -98t10.5 -65.5t22.5 -46t36.5 -38.5h-473v123z" />
<glyph unicode="^" horiz-adv-x="1067" d="M39 758l367 672h256l366 -672h-209l-287 516l-284 -516h-209z" />
<glyph unicode="_" horiz-adv-x="1067" d="M0 -143h1067v-154h-1067v154z" />
<glyph unicode="`" horiz-adv-x="1067" d="M154 1356l131 135l403 -371z" />
<glyph unicode="a" horiz-adv-x="1116" d="M72 295q0 68 32.5 127t88.5 90q23 12 47 22.5t57 20.5t76 19.5t104 21.5q72 14 119 27.5t74.5 31t39 39t11.5 49.5q0 61 -57.5 99.5t-149.5 38.5q-35 0 -65.5 -4.5t-63.5 -13.5t-73 -26.5t-93 -41.5l143 217q47 10 77 12t73 2q274 0 365 -145q14 -23 22 -42.5t12 -47 t6.5 -67.5t2.5 -101v-279q0 -47 2 -76.5t7 -48t16 -32t30 -25.5q23 -18 52.5 -25.5t76.5 -9.5l-94 -141q-82 6 -125 16t-78 33q-25 14 -41 32.5t-25.5 44t-12.5 61.5t-3 89v279q-29 -12 -48.5 -20.5t-46 -16.5t-68.5 -18.5t-113 -26.5q-156 -37 -156 -166q0 -84 60.5 -130 t168.5 -46q41 0 75 6t87 22l-127 -161q-35 -8 -59.5 -10.5t-59.5 -2.5q-164 0 -256 84q-53 47 -81.5 110.5t-28.5 129.5z" />
<glyph unicode="b" horiz-adv-x="1204" d="M72 1423h149q47 0 76 9.5t51 31.5v-1314q59 -14 98 -19.5t86 -5.5q170 0 268.5 97t98.5 263q0 84 -23.5 155t-65.5 121t-101.5 77.5t-128.5 27.5q-51 0 -89 -10t-96 -39l119 182q47 16 78 21.5t70 5.5q98 0 182 -38t145.5 -105.5t96 -158.5t34.5 -196q0 -125 -44 -227 t-125 -176t-194.5 -114t-252.5 -40q-121 0 -230.5 10.5t-185.5 28.5q39 27 52.5 56.5t13.5 95.5v1048q0 51 -2 83t-10.5 53.5t-25 38t-44.5 38.5z" />
<glyph unicode="c" horiz-adv-x="1067" d="M82 479q0 115 45 214.5t131 178.5q88 80 193.5 117t246.5 37q63 0 115.5 -5t120.5 -22v-223q-106 104 -270 105q-82 0 -148.5 -26t-114 -72t-73 -112.5t-25.5 -146.5q0 -88 34 -162.5t92 -129t139 -85t177 -30.5q88 0 166 25.5t164 78.5l-127 -211q-51 -20 -120.5 -29.5 t-155.5 -9.5q-129 0 -237.5 38t-186.5 105.5t-122 161t-44 203.5z" />
<glyph unicode="d" horiz-adv-x="1277" d="M82 496q0 113 39 209t107.5 167.5t160.5 112.5t199 41q100 0 179 -29.5t161 -97.5v311q0 51 -2 83t-10.5 53.5t-25 38t-44.5 38.5h149q47 0 76 9.5t51 31.5v-1251q0 -53 2 -84t10.5 -52.5t25 -37.5t44.5 -39h-276v492q0 61 -2 103t-9.5 71.5t-19.5 52t-31 47.5 q-43 57 -107.5 88t-137.5 31q-70 0 -128.5 -27t-100.5 -73t-65.5 -111.5t-23.5 -141.5q0 -88 28.5 -163.5t79 -131t119 -86t148.5 -30.5q55 0 96 12t94 47l-125 -194q-35 -10 -55 -12.5t-53 -2.5q-197 0 -326 86q-111 74 -169 186.5t-58 252.5z" />
<glyph unicode="e" horiz-adv-x="1191" d="M82 500q0 113 47 219t129 182q141 125 360 125q106 0 196.5 -35t156 -98.5t102.5 -149.5t37 -188v-35h-795q8 -190 122 -296.5t311 -106.5q109 0 192.5 26.5t169.5 85.5l-117 -206q-72 -29 -140.5 -40.5t-158.5 -11.5q-135 0 -247.5 39t-193.5 108.5t-126 167t-45 214.5z M324 655h559q-45 242 -275 242q-111 0 -185.5 -63.5t-98.5 -178.5z" />
<glyph unicode="f" horiz-adv-x="681" d="M70 854l108 143v105q0 90 27.5 152.5t91.5 115.5q117 102 346 103q43 0 72.5 -3.5t75.5 -11.5l-154 -168q-31 20 -54.5 27.5t-56.5 7.5q-94 0 -133 -63q-20 -29 -20 -127v-138h219q14 0 35.5 3.5t40.5 9.5v-191q-20 23 -40 29t-75 6h-180v-567q0 -49 1 -83t5 -58.5t9 -43 t15 -34.5q16 -29 27.5 -41.5t34.5 -26.5h-369q29 20 45.5 37.5t24.5 39t10 53.5t2 83v641h-108z" />
<glyph unicode="g" horiz-adv-x="1267" d="M31 -201q0 80 53 126t147 46q33 0 57.5 -5t59.5 -21q-51 -10 -73.5 -33t-22.5 -68q0 -109 98.5 -171t270.5 -62q86 0 156.5 17.5t120.5 48t78 74.5t28 97q0 207 -439 207h-51q-25 0 -53 -2q-14 -2 -27 -2h-22q-61 0 -103 37q-20 18 -35.5 54t-15.5 63q0 14 6 26.5 t24.5 25.5t52.5 27.5t89 37.5q-57 16 -89 31.5t-67 45.5q-57 49 -87.5 118t-30.5 140q0 78 33.5 145.5t94 117t141.5 78t175 28.5q20 0 70.5 -3t117.5 -7q20 -2 50 -3l60 -2t56.5 -2t40.5 -1q51 0 123 4t144 14l-62 -139q-14 -27 -61 -27q-37 0 -88.5 7t-149.5 24 q84 -59 122 -122.5t38 -145.5q0 -100 -62.5 -176t-183.5 -119q-45 -16 -91 -25.5t-124 -17.5q-47 -10 -66.5 -22.5t-19.5 -33.5q0 -41 90 -41q72 0 125 -2t94 -6t74 -10t68 -16q59 -16 112 -52t88 -79q47 -66 47 -158q0 -141 -108 -230q-92 -72 -214 -109.5t-267 -37.5 q-125 0 -233.5 23.5t-188.5 65.5t-125 99.5t-45 122.5zM354 696q0 -57 21.5 -107t59.5 -88t89 -59.5t109 -21.5q98 0 157.5 60.5t59.5 158.5q0 55 -21.5 103.5t-58.5 83t-86 55t-106 20.5q-96 0 -160 -58.5t-64 -146.5z" />
<glyph unicode="h" horiz-adv-x="1206" d="M78 0q29 23 45 39t24.5 37.5t10.5 52.5t2 84v997q0 53 -2 84t-10.5 52.5t-25 38t-44.5 38.5h149q47 0 76 9.5t51 31.5v-575q47 63 134 100t190 37q100 0 183 -38t130 -103q29 -41 41 -90.5t12 -132.5v-449q0 -51 2.5 -83t10.5 -53.5t24.5 -37.5t44.5 -39h-360 q29 20 46 36.5t25.5 38t10.5 53.5t2 85v383q0 78 -8 115t-33 69q-35 45 -89 68.5t-120 23.5t-119 -22.5t-88 -63.5q-12 -16 -20 -29.5t-12.5 -31.5t-5.5 -46t-1 -71v-395q0 -53 2 -84t10.5 -52.5t26 -37.5t45.5 -39h-360z" />
<glyph unicode="i" horiz-adv-x="524" d="M86 0q29 23 45 40t24.5 38.5t10.5 53.5t2 87v586q0 51 -2 84t-10.5 55.5t-24.5 38.5t-45 39h150q47 0 75.5 10t50.5 33v-846q0 -55 2.5 -87t10.5 -53.5t24.5 -38.5t44.5 -40h-358zM127 1384q0 55 39 94.5t98 39.5q53 0 92 -40t39 -94q0 -57 -39 -96t-96 -39q-55 0 -94 39 t-39 96z" />
<glyph unicode="j" horiz-adv-x="520" d="M-53 -489q66 41 108.5 80.5t67 91t35 119t10.5 161.5v821q0 51 -2 83t-10.5 53.5t-24.5 38t-45 38.5h150q49 0 76.5 9.5t49.5 31.5v-1085q0 -78 -2 -127t-10 -81t-22.5 -54.5t-38.5 -44.5q-59 -59 -137 -90t-205 -45zM121 1372q0 55 39 94t98 39q53 0 92 -40t39 -93 q0 -57 -39 -96t-94 -39q-57 0 -96 39t-39 96z" />
<glyph unicode="k" horiz-adv-x="1081" d="M78 0q29 23 45 39t24.5 37.5t10.5 52.5t2 84v997q0 53 -2 84t-10.5 52.5t-25 38t-44.5 38.5h149q47 0 76 9.5t51 31.5v-1251q0 -53 2 -84t10.5 -52.5t25 -37.5t44.5 -39h-358zM393 557l197 217q53 57 74.5 93t21.5 63q0 31 -43 67h330l-363 -417q33 -41 102.5 -129.5 t176.5 -227.5q39 -49 65.5 -83t50 -57.5t47 -43t54.5 -39.5q-41 -4 -87 -5t-87 -1q-43 0 -70.5 4t-51.5 18.5t-45.5 39t-51.5 67.5q-43 61 -85 120.5t-89 121.5q-31 43 -60.5 83.5t-62.5 77.5q-4 8 -10.5 15.5t-12.5 15.5z" />
<glyph unicode="l" horiz-adv-x="516" d="M78 0q29 23 45 39t24.5 37.5t10.5 52.5t2 84v997q0 53 -2 84t-10.5 52.5t-25 38t-44.5 38.5h149q47 0 76 9.5t51 31.5v-1251q0 -53 2 -84t10.5 -52.5t25 -37.5t44.5 -39h-358z" />
<glyph unicode="m" horiz-adv-x="1896" d="M86 0q29 23 45 39t24.5 37.5t10.5 52.5t2 84v571q0 51 -2 83t-10.5 53.5t-24.5 38t-45 38.5h150q82 0 116 41v-182q68 92 139.5 131t176.5 39q113 0 190.5 -45t138.5 -145q78 104 155 147t185 43q111 0 201 -43t135 -115q29 -49 40 -106t11 -162v-387q0 -53 4.5 -89 t14.5 -59.5t28.5 -38t49.5 -26.5h-375q29 20 46 36.5t25.5 38t10.5 53.5t2 85v334q0 90 -13.5 143t-41.5 92q-33 39 -83.5 61.5t-109.5 22.5q-72 0 -130 -32.5t-87 -88.5q-8 -14 -12 -27t-6.5 -29.5t-3.5 -42t-1 -64.5v-369q0 -53 2.5 -84t10.5 -52.5t25.5 -37.5t45.5 -39 h-360q29 20 45 36.5t24.5 38t10.5 53.5t2 85v352q0 154 -66 221q-33 35 -81 53.5t-99 18.5q-63 0 -118.5 -25.5t-84.5 -70.5q-23 -33 -30 -66.5t-7 -99.5v-383q0 -53 2.5 -85t10.5 -53.5t24.5 -38t44.5 -36.5h-358z" />
<glyph unicode="n" horiz-adv-x="1214" d="M86 0q29 23 45 39t24.5 37.5t10.5 52.5t2 84v571q0 51 -2 83t-10.5 53.5t-24.5 38t-45 38.5h139q47 0 76 9.5t51 31.5v-180q78 92 150.5 130t169.5 38q104 0 194 -42t138 -112q14 -23 24 -48t16.5 -59t8.5 -79t2 -106v-367q0 -53 2 -84t10 -52.5t24.5 -37.5t45.5 -39 h-361q29 23 46.5 39t25.5 37.5t10 53.5t2 83v344q0 86 -10 134t-37 83q-33 41 -92 66.5t-125 25.5t-120 -25.5t-85 -68.5q-16 -23 -22.5 -49.5t-6.5 -73.5v-436q0 -53 2.5 -84t10.5 -52.5t24.5 -37.5t44.5 -39h-358z" />
<glyph unicode="o" horiz-adv-x="1292" d="M82 494q0 123 53 231.5t150 181.5q82 61 173 90t210 29q223 0 374 -139q82 -76 125 -174.5t43 -206.5q0 -113 -44 -210t-121.5 -170t-182 -114t-227.5 -41q-119 0 -220.5 40t-175 109.5t-115.5 165t-42 208.5zM303 520q0 -86 26.5 -160.5t74 -128t111 -84t138.5 -30.5 q74 0 136.5 25.5t106.5 73.5t68.5 113.5t24.5 145.5q0 92 -25.5 167t-72.5 128t-112.5 82t-145.5 29q-74 0 -134.5 -27t-103.5 -74t-67.5 -113.5t-24.5 -146.5z" />
<glyph unicode="p" horiz-adv-x="1284" d="M72 -442q27 14 42 29.5t24 38t12.5 55t3.5 86.5v1017q0 51 -2 83t-10.5 53.5t-25 38t-44.5 38.5h149q47 0 76 9.5t51 31.5v-168q59 72 154.5 114t202.5 42q98 0 195 -41t165 -108q66 -68 101.5 -162t35.5 -201q0 -117 -39 -216t-108.5 -172t-164.5 -114t-208 -41 q-47 0 -82 6.5t-82 22.5l-117 176q70 -33 123.5 -46t118.5 -13q162 0 250 97t88 278q0 86 -23.5 157.5t-66.5 122.5t-103.5 80t-134.5 29t-140.5 -31t-111.5 -86q-29 -37 -41 -82t-12 -119v-796q0 -51 3 -85t12.5 -56.5t24.5 -38t42 -29.5h-358z" />
<glyph unicode="q" horiz-adv-x="1280" d="M84 459q0 137 66.5 258t181.5 192q76 47 162 68.5t194 21.5l283 -2h229q-29 -23 -45 -39t-24.5 -37.5t-10.5 -53t-2 -83.5v-1011q0 -53 2 -84t10.5 -52.5t24.5 -38t45 -40.5h-358q29 25 45 41t24.5 37.5t10.5 52t2 84.5v1046q-41 12 -74 20.5t-60.5 13.5t-54 7t-53.5 2 q-86 0 -155.5 -26.5t-119 -73.5t-77 -114.5t-27.5 -149.5q0 -84 28.5 -155t81 -121t124 -77.5t159.5 -27.5q53 0 88 7t82 28l-104 -156q-39 -16 -67.5 -20.5t-76.5 -4.5q-117 0 -215 36t-168.5 100.5t-110.5 154.5t-40 197z" />
<glyph unicode="r" horiz-adv-x="714" d="M86 0q29 23 45 39t24.5 37.5t10.5 52.5t2 84v571q0 51 -2 83t-10.5 53.5t-24.5 38t-45 38.5h150q47 0 75.5 9.5t50.5 31.5v-178q88 166 259 166q29 0 75 -8v-199q-37 35 -102 35q-57 0 -107.5 -23.5t-78.5 -64.5q-45 -63 -46 -197v-356q0 -53 2.5 -84t10.5 -52.5 t24.5 -37.5t44.5 -39h-358z" />
<glyph unicode="s" horiz-adv-x="956" d="M61 238q119 -74 210 -104t194 -30q100 0 166.5 43t66.5 109q0 61 -49 98q-12 8 -26.5 16.5t-37 17.5t-56 22.5t-87.5 31.5q-92 33 -154.5 64t-100 64.5t-53 73.5t-15.5 91q0 137 112.5 214t311.5 77q139 0 241 -29v-184q-74 45 -137 64.5t-129 19.5q-90 0 -144.5 -34 t-54.5 -87q0 -47 50.5 -79.5t179.5 -73.5q61 -20 103 -36t72 -29t51.5 -28.5t43.5 -33.5q84 -78 84 -189q0 -78 -33.5 -139.5t-96 -105.5t-150.5 -67.5t-197 -23.5q-41 0 -77 2t-69.5 8.5t-68.5 16.5t-76 27z" />
<glyph unicode="t" horiz-adv-x="710" d="M55 854v78q113 18 178 94q80 86 80 266v27h84v-322h168q53 0 80 2t47 11v-195q-27 23 -53.5 31t-81.5 8h-160v-459q0 -90 8.5 -132t30.5 -70q61 -74 166 -74q25 0 43.5 4t46.5 14l-112 -153q-23 -8 -38.5 -10.5t-39.5 -2.5q-68 0 -121 23.5t-100 71.5q-25 27 -40.5 51 t-23.5 58t-11 82t-3 120v477h-148z" />
<glyph unicode="u" horiz-adv-x="1206" d="M78 997h147q49 0 78 9.5t51 31.5v-602q0 -80 12.5 -130t41.5 -85q33 -39 83 -60.5t109 -21.5q115 0 182.5 71t67.5 187v387q0 51 -2 83t-10.5 53.5t-24.5 38t-45 38.5h152q47 0 74.5 9.5t49.5 31.5v-825q0 -53 2.5 -84t10.5 -52.5t24.5 -37.5t44.5 -39h-268v141 q-39 -49 -73.5 -81.5t-70.5 -52t-77 -28t-92 -8.5q-109 0 -193 40t-131 112q-35 51 -48 113.5t-13 160.5v387q0 51 -2 83t-10.5 53.5t-25 38t-44.5 38.5z" />
<glyph unicode="v" horiz-adv-x="1163" d="M-25 997h144q63 0 93 7.5t64 31.5q4 -47 27 -100l324 -752l258 578q23 47 30 74.5t7 52.5q0 35 -13.5 55.5t-56.5 52.5h307l-491 -1077q-63 37 -103.5 63.5t-66 55.5t-45 63.5t-39.5 87.5l-254 584q-25 55 -41.5 88t-34.5 54.5t-43 39t-66 41.5z" />
<glyph unicode="w" horiz-adv-x="1705" d="M-16 997h127q53 0 77.5 5.5t55.5 27.5q4 -33 11 -63.5t28 -79.5l243 -647l209 542q31 80 31 127q0 25 -13.5 43.5t-47.5 44.5h284q-2 -18 -2 -22v-8q0 -12 3 -22.5t20 -57.5l231 -647l211 542q12 31 18.5 47.5t9.5 27.5t4 19.5t1 20.5q0 29 -15.5 50.5t-58.5 49.5h291 l-432 -1054q-47 27 -81 50t-57.5 49t-40 58.5t-30.5 77.5l-195 533l-295 -768q-55 27 -91 50t-60.5 49t-42 57.5t-33.5 78.5l-231 604q-20 55 -33.5 87t-27 53.5t-29 38t-39.5 36.5z" />
<glyph unicode="x" horiz-adv-x="1130" d="M-10 0l463 518l-197 258q-37 49 -61.5 81t-47 55.5t-46 43t-56.5 41.5l193 9h24q23 0 36 -2.5t25.5 -10.5t25.5 -24.5t36 -44.5l201 -269l157 189q41 47 41 82q0 41 -57 71h360l-405 -465l254 -335q68 -86 113 -129t92 -68l-193 -12h-33q-25 0 -41 2t-28 9t-25.5 22.5 t-34.5 44.5l-239 327l-219 -256q-37 -43 -37 -76q0 -18 9 -30.5t38 -30.5h-348z" />
<glyph unicode="y" horiz-adv-x="1148" d="M-43 -387l195 141q35 -20 61.5 -28.5t60.5 -8.5q82 0 142.5 58.5t111.5 187.5l21 57q-25 25 -40 41.5t-26.5 32t-20.5 34.5t-24 52l-286 625q-20 45 -38 76.5t-36.5 53t-40 36t-47.5 26.5l209 9q49 0 65 -7q10 -2 19.5 -15t25.5 -48l330 -743l227 575q33 82 33 131 q0 31 -14.5 53.5t-48.5 44.5h303l-461 -1099q-41 -96 -77 -149.5t-89 -96.5q-119 -94 -293 -94q-66 0 -122 12t-140 43z" />
<glyph unicode="z" horiz-adv-x="1058" d="M23 0l614 842q-78 8 -130 11t-112 3q-111 0 -179.5 -17.5t-127.5 -58.5l107 217h768l-588 -833q90 -10 170 -13.5t172 -3.5q57 0 102 4.5t85 14.5t78 26.5t79 40.5l-121 -233h-917z" />
<glyph unicode="{" horiz-adv-x="681" d="M90 471v154q63 20 84 43.5t21 70.5v449q0 70 1 108.5t2 58t3 27t6 13.5q20 29 69 28h320v-116h-102q-39 0 -61.5 -3.5t-35 -15.5t-15.5 -34.5t-3 -61.5v-471q0 -74 -18.5 -108.5t-77.5 -63.5q29 -16 47 -30.5t29.5 -34t15.5 -46t4 -63.5v-469q0 -39 3 -61.5t14.5 -35 t34 -15.5t61.5 -3h104v-117h-320q-31 0 -47 9.5t-26 27.5q-2 6 -3 13.5t-2 27t-2 56t-1 102.5v446q0 51 -20.5 72t-84.5 43z" />
<glyph unicode="|" horiz-adv-x="1067" d="M436 -356v1779h197v-1779h-197z" />
<glyph unicode="}" horiz-adv-x="681" d="M86 -209h102q39 0 61.5 3t35 15.5t15.5 35t3 61.5v469q0 37 4 62.5t14.5 46t30 34.5t47.5 31q-57 29 -76.5 63.5t-19.5 108.5v471q0 39 -3 61.5t-15.5 34.5t-35 15.5t-61.5 3.5h-102v116h317q57 0 76 -37q2 -6 3 -13t2 -26.5t2 -56.5t1 -102v-449q0 -49 19.5 -71.5 t85.5 -42.5v-154q-66 -23 -85.5 -43t-19.5 -72v-446q0 -72 -1 -110t-2 -57t-4 -26.5t-7 -13.5q-16 -29 -70 -29h-317v117z" />
<glyph unicode="~" horiz-adv-x="1423" d="M197 1300q29 61 45 91t37 57q86 115 219 115q43 0 96 -15.5t139 -52.5q47 -20 77 -32.5t51.5 -18.5t36.5 -8t34 -2q29 0 52.5 6t44 21.5t41 41t42.5 64.5l115 -68q-37 -78 -67 -119t-68 -71q-41 -31 -89.5 -47.5t-95.5 -16.5q-20 0 -42.5 4t-56.5 14.5t-82 31t-120 51.5 q-35 14 -67.5 22t-55.5 8q-53 0 -92 -33.5t-82 -115.5z" />
<glyph unicode="&#xa1;" horiz-adv-x="872" d="M301 889q0 55 40 94t97 39q53 0 92 -40t39 -93q0 -57 -38.5 -96t-94.5 -39q-57 0 -96 38.5t-39 96.5zM313 -399l49 1009h156l33 -729q4 -100 7 -155.5t11.5 -85t23.5 -43t44 -31.5h-287q-23 0 -30 4t-7 14v17z" />
<glyph unicode="&#xa2;" horiz-adv-x="1110" d="M141 774q0 125 55.5 234.5t157.5 185.5q51 39 104.5 59.5t133.5 30.5v211h129v-211q53 0 101 -5t89 -15v-201q-33 37 -83 57.5t-107 20.5v-721q66 4 123 29.5t133 85.5l-53 -224q-33 -14 -88.5 -24.5t-114.5 -12.5v-202h-129v202q-104 16 -188.5 59.5t-142.5 108 t-89 149.5t-31 183zM350 795q0 -147 62.5 -241.5t179.5 -121.5v703q-119 -23 -180.5 -109t-61.5 -231z" />
<glyph unicode="&#xa3;" horiz-adv-x="1153" d="M117 129q0 78 63.5 127t163.5 49q41 0 84 -8t107 -31q12 31 17 60.5t5 68.5q0 72 -24.5 138.5t-77.5 146.5h-242v123h152q-4 6 -7.5 12t-7.5 10q-31 45 -51 79t-32.5 64.5t-17.5 61.5t-5 66q0 80 30.5 146.5t85 113.5t130 73.5t167.5 26.5q33 0 62 -3t59.5 -9t66.5 -18.5 t83 -30.5l6 -219q-41 35 -75 58t-64.5 37.5t-59 20.5t-59.5 6q-43 0 -81 -14t-65.5 -38.5t-44 -57.5t-16.5 -70q0 -25 4 -46t21.5 -53t50.5 -83t88 -133h285v-123h-211q29 -66 43 -122t14 -116q0 -61 -15.5 -112t-56.5 -121q35 -23 64.5 -33t68.5 -10q117 0 217 57v-211 q-121 -43 -219 -43q-70 0 -127 20.5t-131 71.5q-59 -49 -115.5 -70.5t-123.5 -21.5q-94 0 -151.5 44t-57.5 116zM233 127q0 -25 24 -41t60 -16q43 0 74 15t60 54q-61 51 -138 51q-33 0 -56.5 -18t-23.5 -45z" />
<glyph unicode="&#xa4;" d="M106 1135l97 96l184 -184q68 49 131.5 70.5t136.5 21.5q74 0 136.5 -21.5t128.5 -68.5l184 182l94 -96l-182 -181q51 -78 71.5 -136t20.5 -130t-20.5 -132t-69.5 -132l184 -182l-94 -97l-184 183q-129 -90 -267 -90q-72 0 -133 21.5t-137 68.5l-182 -183l-94 95l180 184 q-90 125 -90 264q0 72 21.5 134.5t70.5 127.5zM360 686q0 -61 23 -114.5t62.5 -93.5t94 -63.5t115.5 -23.5t114.5 22.5t93.5 62.5t63.5 94.5t23.5 115.5q0 63 -23.5 117.5t-63.5 94.5t-94.5 62.5t-117.5 22.5q-59 0 -112.5 -23.5t-93 -63.5t-62.5 -94t-23 -116z" />
<glyph unicode="&#xa5;" d="M57 1423h232q33 0 50 -1t29.5 -9t22.5 -24.5t27 -47.5l291 -548l223 407q27 49 35 72.5t8 50.5q0 31 -15.5 54.5t-52.5 45.5h344l-370 -612h284v-115h-352l-41 -63v-76h350v-115h-350v-217q0 -90 21.5 -139t80.5 -86h-395q29 16 47.5 33.5t29.5 41t15 56.5t4 80v231h-352 v115h352v80l-38 68h-357v114h291l-248 449q-35 59 -70.5 93t-95.5 62z" />
<glyph unicode="&#xa6;" horiz-adv-x="1067" d="M436 328h197v-684h-197v684zM436 702v721h197v-721h-197z" />
<glyph unicode="&#xa7;" d="M213 -31q70 -39 118 -62.5t85 -36.5t69.5 -17.5t73.5 -4.5q106 0 174 55.5t68 143.5q0 31 -9.5 55.5t-37 50t-77.5 56.5t-132 74q-92 47 -154.5 90t-100.5 87t-55.5 90t-17.5 101q0 88 42 157t140 142q-45 43 -63.5 85t-18.5 104q0 150 113 235.5t305 85.5 q78 0 143.5 -11t137.5 -40v-223q-94 125 -277 125q-98 0 -155.5 -40t-57.5 -108q0 -53 40 -91t151 -87q109 -49 181.5 -93t116.5 -89t62.5 -96.5t18.5 -114.5q0 -92 -37 -164t-123 -147q43 -47 61.5 -96.5t18.5 -112.5q0 -86 -35 -160t-96.5 -126t-146.5 -82t-185 -30 q-94 0 -175 16.5t-165 51.5v227zM420 696q0 -33 9 -58.5t34.5 -50t73 -54t120.5 -68.5q61 -35 97.5 -54t79.5 -46q74 80 73 170q0 37 -13 67.5t-43 60t-80 60.5t-124 65q-39 18 -61.5 29.5t-34.5 18t-20.5 10.5t-20.5 10q-49 -41 -69.5 -77t-20.5 -83z" />
<glyph unicode="&#xa8;" horiz-adv-x="1067" d="M225 1309q0 53 38 89t91 36q51 0 87 -37t36 -88q0 -53 -35.5 -90t-89.5 -37q-53 0 -90 36.5t-37 90.5zM590 1309q0 51 38 88t91 37q49 0 86 -37t37 -90q0 -51 -37 -88t-88 -37q-53 0 -90 36.5t-37 90.5z" />
<glyph unicode="&#xa9;" horiz-adv-x="1667" d="M82 711q0 156 59.5 293t162 237t240.5 158.5t298 58.5q152 0 287 -59.5t236 -160.5t159.5 -237.5t58.5 -289.5q0 -154 -59.5 -290t-160.5 -237.5t-238.5 -160t-293.5 -58.5t-292 58.5t-237 160t-160.5 237.5t-59.5 290zM182 711q0 -135 51.5 -255t140.5 -209 t206.5 -141.5t253.5 -52.5q135 0 252.5 52.5t206.5 141.5t140.5 208.5t51.5 255.5q0 137 -51.5 258t-140.5 210t-210 140t-258 51q-131 0 -247.5 -52t-204.5 -142.5t-139.5 -210t-51.5 -254.5zM416 721q0 98 34.5 180t97 141.5t150.5 92t193 32.5q57 0 119.5 -8t136.5 -26 v-164q-72 41 -130.5 58t-121.5 17q-70 0 -127 -22.5t-99 -63t-64.5 -96t-22.5 -123.5q0 -74 25.5 -137t70.5 -110.5t105.5 -75t129.5 -27.5q72 0 141.5 20.5t168.5 69.5l-78 -168q-57 -23 -103.5 -32t-111.5 -9q-119 0 -214 32t-162 90.5t-102.5 141t-35.5 187.5z" />
<glyph unicode="&#xaa;" horiz-adv-x="872" d="M121 752q0 41 21.5 77.5t56.5 55.5q29 16 65.5 26.5t110.5 24.5q84 14 113.5 30.5t29.5 47.5q0 33 -31.5 51t-83.5 18q-25 0 -44 -2t-41.5 -9t-51 -18.5t-67.5 -29.5l106 156q29 4 47.5 6t46.5 2q176 0 234 -90q8 -14 13 -25.5t8 -28t4 -40t1 -60.5v-164q0 -53 5.5 -70.5 t25.5 -31.5q14 -10 32.5 -14.5t55.5 -6.5l-67 -96q-59 4 -95 12.5t-57.5 26.5t-29 50t-7.5 81v154q-20 -10 -37.5 -15.5t-50.5 -13.5q-37 -8 -58.5 -13t-32.5 -9.5t-17.5 -7.5t-14.5 -7q-35 -25 -35 -69q0 -43 35 -68t95 -25q27 0 50 4.5t52 12.5l-84 -115q-23 -4 -36 -5 t-32 -1q-104 0 -169.5 55.5t-65.5 143.5z" />
<glyph unicode="&#xab;" horiz-adv-x="780" d="M86 528l250 359h63l-127 -359l127 -362h-63zM375 528l252 359h61l-127 -359l127 -362h-63z" />
<glyph unicode="&#xac;" horiz-adv-x="1067" d="M72 387v182h925v-569h-196v387h-729z" />
<glyph unicode="&#xad;" horiz-adv-x="804" d="M72 430l123 154q16 23 34.5 30t59.5 7h229q45 0 76 1t53.5 4t43 9t44.5 16l-117 -155q-18 -25 -34.5 -32t-57.5 -7h-258q-39 0 -65.5 -1t-47 -4t-40 -8.5t-43.5 -13.5z" />
<glyph unicode="&#xae;" horiz-adv-x="1667" d="M82 711q0 156 59.5 293t162 237t240.5 158.5t298 58.5q152 0 287 -59.5t236 -160.5t159.5 -237.5t58.5 -289.5q0 -154 -59.5 -290t-160.5 -237.5t-238.5 -160t-293.5 -58.5t-292 58.5t-237 160t-160.5 237.5t-59.5 290zM182 711q0 -135 51.5 -255t140.5 -209 t206.5 -141.5t253.5 -52.5q135 0 252.5 52.5t206.5 141.5t140.5 208.5t51.5 255.5q0 137 -51.5 258t-140.5 210t-210 140t-258 51q-131 0 -247.5 -52t-204.5 -142.5t-139.5 -210t-51.5 -254.5zM481 279q27 12 43.5 23t24.5 28.5t11 45t3 73.5v514q0 43 -3 70.5t-11 46 t-24.5 29.5t-43.5 24h224h61q23 2 37 2h26q129 0 209 -60.5t80 -159.5q0 -76 -57 -135t-156 -88q74 -92 126 -154.5t96 -105.5t84 -70.5t87 -52.5q-59 -10 -82.5 -13t-39.5 -3q-55 0 -99.5 25.5t-109.5 97.5q-35 37 -70 79t-67.5 82.5t-59.5 79.5t-45 70q117 20 172 63.5 t55 116.5q0 59 -43 96t-110 37q-23 0 -41.5 -2t-46.5 -8v-581q0 -43 3 -71t11 -46.5t24.5 -29.5t43.5 -23h-312z" />
<glyph unicode="&#xaf;" horiz-adv-x="1067" d="M217 1241v137h633v-137h-633z" />
<glyph unicode="&#xb0;" horiz-adv-x="1372" d="M389 1147q0 61 23.5 115.5t64.5 94.5t95.5 63.5t117.5 23.5q59 0 113.5 -23.5t94.5 -64.5t63.5 -95.5t23.5 -115.5t-23.5 -115.5t-63.5 -94.5t-94 -63.5t-116 -23.5q-61 0 -115.5 23.5t-95.5 63.5t-64.5 95t-23.5 117zM508 1147q0 -37 14.5 -70t39 -57.5t58 -38.5 t70.5 -14q74 0 126 52t52 126q0 78 -53 130t-129 52q-74 0 -126 -53t-52 -127z" />
<glyph unicode="&#xb1;" d="M182 -55v153h946v-153h-946zM182 645v148h400v409h147v-409h399v-148h-399v-407h-147v407h-400z" />
<glyph unicode="&#xb2;" horiz-adv-x="860" d="M72 569l362 490q72 98 72 155q0 47 -38 76t-97 29q-31 0 -56.5 -4t-54.5 -13.5t-64.5 -25.5t-84.5 -43l96 186q106 25 182 25q63 0 118.5 -15.5t95.5 -41t62.5 -62.5t22.5 -80q0 -27 -4 -48t-19.5 -49t-43 -69t-74.5 -106l-203 -281q59 -8 93 -10t69 -2q86 0 153.5 15.5 t145.5 52.5l-88 -179h-645z" />
<glyph unicode="&#xb3;" horiz-adv-x="860" d="M82 737q76 -35 138.5 -49t127.5 -14q104 0 169 46t65 120q0 68 -55.5 105.5t-153.5 37.5q-35 0 -58.5 -3t-58.5 -11v129q23 -4 38 -5t34 -1q88 0 140 32.5t52 87.5q0 47 -47 80t-119 33q-53 0 -102 -15.5t-121 -56.5l68 162q45 16 87 22.5t95 6.5q68 0 124 -15.5t97 -43 t63.5 -65.5t22.5 -83q0 -123 -149 -176q215 -55 215 -230q0 -63 -32 -115t-90.5 -89t-140 -57.5t-182.5 -20.5q-33 0 -64.5 2t-84.5 10z" />
<glyph unicode="&#xb4;" horiz-adv-x="1069" d="M383 1120l405 371l130 -135z" />
<glyph unicode="&#xb6;" horiz-adv-x="1296" d="M84 1028q0 96 35 176t98 131q33 25 69 42.5t81 27.5t103 14t138 4h522q-29 -23 -46 -44t-29 -54q-6 -12 -9.5 -26.5t-4.5 -34t-2 -49t-1 -74.5v-1497h-159v1691h-84v-1691h-160v1691q-53 -2 -88 -21.5t-64 -62.5q-29 -47 -46 -125.5t-17 -175.5q0 -131 41 -203.5 t139 -119.5q-33 -8 -51.5 -10.5t-46.5 -2.5q-92 0 -169 31t-132.5 86t-86 131t-30.5 166z" />
<glyph unicode="&#xb8;" horiz-adv-x="1067" d="M410 -324l65 84q47 -35 80 -50t68 -15q33 0 54 17.5t21 45.5q0 27 -18 41.5t-47 14.5q-12 0 -23.5 -2t-29.5 -9l-62 82l45 115h103l-45 -115q18 4 28 5t23 1q72 0 115.5 -35.5t43.5 -95.5q0 -68 -55 -113.5t-137 -45.5q-127 0 -229 75z" />
<glyph unicode="&#xb9;" horiz-adv-x="860" d="M178 1243q57 20 103.5 42t86.5 51.5t78.5 69.5t81.5 95v-760q0 -39 3.5 -64.5t12.5 -44t25.5 -32.5t42.5 -31h-344q35 18 54.5 32.5t29.5 32t13.5 42t3.5 65.5v502h-191z" />
<glyph unicode="&#xba;" horiz-adv-x="872" d="M86 868q0 70 27.5 128.5t76 101.5t115 67.5t144.5 24.5q70 0 131 -24.5t107 -66.5t71.5 -99.5t25.5 -122.5q0 -68 -27.5 -127.5t-75.5 -102.5t-113.5 -68.5t-139.5 -25.5t-136.5 24.5t-108.5 66.5t-71.5 99.5t-25.5 124.5zM240 883q0 -96 57 -162t141 -66 q82 0 137.5 55.5t55.5 139.5q0 106 -55.5 170.5t-147.5 64.5q-84 0 -136 -56t-52 -146z" />
<glyph unicode="&#xbb;" horiz-adv-x="780" d="M94 166l127 362l-127 359h62l252 -359l-250 -362h-64zM383 166l127 362l-127 359h61l252 -359l-250 -362h-63z" />
<glyph unicode="&#xbc;" horiz-adv-x="1978" d="M123 1243q57 20 103 42t86 51.5t79 69.5t82 95v-760q0 -39 3 -64.5t12.5 -44t25.5 -32.5t43 -31h-344q35 18 54.5 32.5t29.5 32t13 42t3 65.5v502h-190zM518 0l701 1423h127l-699 -1423h-129zM1081 174l441 680h186v-567q59 4 98 18t84 49l-78 -180h-104v-43 q0 -53 16.5 -80.5t63.5 -50.5h-320q59 23 77 43t18 72v59h-482zM1294 295q39 -4 91.5 -7t109.5 -3h27q18 0 41 2l6 456z" />
<glyph unicode="&#xbd;" horiz-adv-x="1978" d="M139 1243q57 20 103.5 42t86.5 51.5t78.5 69.5t81.5 95v-760q0 -39 3.5 -64.5t12.5 -44t25.5 -32.5t42.5 -31h-344q35 18 54.5 32.5t30 32t13.5 42t3 65.5v502h-191zM535 0l700 1423h127l-698 -1423h-129zM1149 0l362 489q72 96 72 156q0 47 -38 76t-97 29 q-29 0 -55.5 -4.5t-56 -13.5t-64.5 -26.5t-82 -41.5l94 184q57 14 99 20t83 6q66 0 121 -15t95 -40.5t62.5 -62.5t22.5 -80q0 -27 -4 -47.5t-19 -49t-43 -69.5t-77 -107l-203 -280q59 -8 93 -10t69 -2q86 0 153.5 15t145.5 52l-88 -178h-645z" />
<glyph unicode="&#xbe;" horiz-adv-x="1978" d="M68 737q76 -35 138 -49t128 -14q104 0 168.5 46t64.5 120q0 68 -55 105.5t-154 37.5q-35 0 -58.5 -3t-57.5 -11v129q23 -4 38 -5t33 -1q88 0 140.5 32.5t52.5 87.5q0 47 -47 80t-119 33q-53 0 -102.5 -15.5t-120.5 -56.5l67 162q45 16 87 22.5t96 6.5q68 0 124 -15.5 t97 -43t63.5 -65.5t22.5 -83q0 -123 -150 -176q215 -55 215 -230q0 -63 -31.5 -115t-90 -89t-140.5 -57.5t-182 -20.5q-33 0 -64.5 2t-85.5 10zM573 0l701 1423h127l-699 -1423h-129zM1098 174l440 680h186v-567q59 4 98.5 18t84.5 49l-78 -180h-105v-43q0 -51 17.5 -79.5 t62.5 -51.5h-319q59 23 76.5 43t17.5 72v59h-481zM1311 295q39 -4 91 -7t109 -3h27q18 0 41 2l6 456z" />
<glyph unicode="&#xbf;" horiz-adv-x="1089" d="M129 -82q0 51 11.5 97t38 90.5t69.5 92.5t106 105q72 66 112 103.5t59.5 63.5t23.5 47.5t4 53.5q0 16 -2 33t-8 43l168 19q6 -29 8 -45.5t2 -38.5q0 -43 -9.5 -81t-29.5 -74t-55 -73t-86 -82q-106 -92 -150.5 -162.5t-44.5 -148.5q0 -59 23.5 -110.5t65.5 -89t98.5 -59 t121.5 -21.5q33 0 61.5 4t61.5 14t73 28.5t97 47.5l-123 -201q-63 -27 -110 -36t-107 -9q-104 0 -192 28.5t-151.5 81t-99.5 123t-36 156.5zM475 889q0 55 40 94t97 39q53 0 92 -40t39 -93q0 -57 -38.5 -96t-96.5 -39q-55 0 -94 38.5t-39 96.5z" />
<glyph unicode="&#xc0;" horiz-adv-x="1570" d="M18 0q37 25 64 46.5t48.5 53t42 76.5t46.5 115l381 950q25 63 25 98q0 29 -14.5 47.5t-51.5 36.5h344l455 -1132q25 -63 47 -108.5t46 -79t51.5 -58.5t64.5 -45h-449q49 29 63.5 44t14.5 42q0 8 -1 16.5t-5 20.5t-11.5 32.5t-19.5 51.5l-127 330h-547l-123 -330 q-25 -66 -24 -111q0 -31 17.5 -52t60.5 -44h-398zM354 1714l119 160l471 -336zM537 676h440l-219 565z" />
<glyph unicode="&#xc1;" horiz-adv-x="1570" d="M18 0q37 25 64 46.5t48.5 53t42 76.5t46.5 115l381 950q25 63 25 98q0 29 -14.5 47.5t-51.5 36.5h344l455 -1132q25 -63 47 -108.5t46 -79t51.5 -58.5t64.5 -45h-449q49 29 63.5 44t14.5 42q0 8 -1 16.5t-5 20.5t-11.5 32.5t-19.5 51.5l-127 330h-547l-123 -330 q-25 -66 -24 -111q0 -31 17.5 -52t60.5 -44h-398zM537 676h440l-219 565zM631 1538l471 336l119 -160z" />
<glyph unicode="&#xc2;" horiz-adv-x="1570" d="M18 0q37 25 64 46.5t48.5 53t42 76.5t46.5 115l381 950q25 63 25 98q0 29 -14.5 47.5t-51.5 36.5h344l455 -1132q25 -63 47 -108.5t46 -79t51.5 -58.5t64.5 -45h-449q49 29 63.5 44t14.5 42q0 8 -1 16.5t-5 20.5t-11.5 32.5t-19.5 51.5l-127 330h-547l-123 -330 q-25 -66 -24 -111q0 -31 17.5 -52t60.5 -44h-398zM430 1550l356 305l351 -305q-80 2 -162 27t-189 78q-90 -49 -184 -77t-172 -28zM537 676h440l-219 565z" />
<glyph unicode="&#xc3;" horiz-adv-x="1570" d="M18 0q37 25 64 46.5t48.5 53t42 76.5t46.5 115l381 950q25 63 25 98q0 29 -14.5 47.5t-51.5 36.5h344l455 -1132q25 -63 47 -108.5t46 -79t51.5 -58.5t64.5 -45h-449q49 29 63.5 44t14.5 42q0 8 -1 16.5t-5 20.5t-11.5 32.5t-19.5 51.5l-127 330h-547l-123 -330 q-25 -66 -24 -111q0 -31 17.5 -52t60.5 -44h-398zM406 1591q16 45 26 73t16.5 45t11.5 25.5t11 18.5q41 66 127 66h23q10 0 22 -3.5t31.5 -8.5t54.5 -15q12 -4 21.5 -6t22.5 -6t34.5 -10.5t62.5 -18.5q61 -16 88 -16q18 0 39 5t44.5 18.5t52 34.5t67.5 54q-6 -20 -13 -38.5 t-13 -36.5q-20 -57 -31.5 -82t-28.5 -43q-23 -29 -60.5 -44.5t-78.5 -15.5q-29 0 -64.5 8.5t-95.5 28.5q-41 14 -70.5 23.5t-52 14.5t-42 7t-40.5 2q-23 0 -39 -3t-34.5 -11t-40 -23.5t-51.5 -42.5zM537 676h440l-219 565z" />
<glyph unicode="&#xc4;" horiz-adv-x="1570" d="M18 0q37 25 64 46.5t48.5 53t42 76.5t46.5 115l381 950q25 63 25 98q0 29 -14.5 47.5t-51.5 36.5h344l455 -1132q25 -63 47 -108.5t46 -79t51.5 -58.5t64.5 -45h-449q49 29 63.5 44t14.5 42q0 8 -1 16.5t-5 20.5t-11.5 32.5t-19.5 51.5l-127 330h-547l-123 -330 q-25 -66 -24 -111q0 -31 17.5 -52t60.5 -44h-398zM455 1706q0 53 39 91t94 38q53 0 90 -38t37 -91t-38 -92t-91 -39q-55 0 -93 38t-38 93zM537 676h440l-219 565zM852 1708q0 53 39 91t94 38q53 0 90 -38t37 -91q0 -55 -38 -93t-93 -38q-53 0 -91 39t-38 92z" />
<glyph unicode="&#xc5;" horiz-adv-x="1570" d="M18 0q37 25 64 46.5t48.5 53t42 76.5t46.5 115l381 950q25 63 25 98q0 29 -14.5 47.5t-51.5 36.5h344l455 -1132q25 -63 47 -108.5t46 -79t51.5 -58.5t64.5 -45h-449q49 29 63.5 44t14.5 42q0 8 -1 16.5t-5 20.5t-11.5 32.5t-19.5 51.5l-127 330h-547l-123 -330 q-25 -66 -24 -111q0 -31 17.5 -52t60.5 -44h-398zM537 676h440l-219 565zM545 1753q0 47 18.5 88t49 71t72.5 47t89 17q45 0 85 -18.5t71 -49t48 -71.5t17 -86q0 -47 -17 -88t-48 -71.5t-72 -48t-88 -17.5t-88 17.5t-71.5 48t-48 72.5t-17.5 89zM653 1751q0 -49 34 -84 t85 -35q49 0 83 34t34 85q0 49 -35 83t-84 34t-83 -35t-34 -82z" />
<glyph unicode="&#xc6;" horiz-adv-x="2031" d="M-27 0q41 27 69 48.5t64.5 63.5t96 118.5t164.5 215.5l548 740q35 45 55.5 71.5t31 45t13.5 31t3 26.5q0 39 -51 63h766q29 0 44 2t35 11v-250q-27 25 -51 41t-53 25.5t-66.5 13.5t-89.5 4q-80 0 -129 -3t-96 -12v-403h289q25 0 39 2t35 12v-227q-25 35 -63 47t-109 12 h-193v-516q84 -12 141.5 -17t128.5 -5q70 0 127.5 7t107.5 21.5t94 38t89 58.5l-98 -285h-903q29 16 47 35.5t29.5 50.5t15.5 77t4 113v422h-352l-357 -499q-35 -49 -45 -68.5t-10 -40.5q0 -25 12.5 -42t53.5 -48h-437zM856 836h258l4 403z" />
<glyph unicode="&#xc7;" horiz-adv-x="1372" d="M82 709q0 162 57.5 299t159.5 237.5t242.5 156.5t306.5 56q162 0 389 -55v-248q-109 61 -202 90t-191 29q-115 0 -209 -39t-163 -109.5t-106.5 -167t-37.5 -213.5q0 -127 42 -237.5t115.5 -192.5t173 -129t213.5 -47q113 0 222.5 33t251.5 109l-109 -252 q-88 -35 -164 -49.5t-176 -14.5h-59l-43 -100q27 6 41 8t32 2q72 0 115 -41t43 -108q0 -72 -58.5 -118t-150.5 -46q-129 0 -229 76l67 83q47 -35 75 -45t67 -10q86 0 86 60q0 55 -62 55q-31 0 -63 -17l-76 101l43 110q-92 23 -145.5 39.5t-104.5 38.5q-90 39 -162.5 105.5 t-124 152.5t-79 187.5t-27.5 210.5z" />
<glyph unicode="&#xc8;" horiz-adv-x="1126" d="M106 0q31 16 49.5 35.5t29 50.5t14.5 77t4 116v868q0 70 -4 116t-15.5 76.5t-30 49t-47.5 34.5h719q31 0 45.5 2t36.5 11v-252q-27 25 -51.5 42t-54 26.5t-68.5 13.5t-90 4q-78 0 -127 -3t-96 -12v-403h289q25 0 39 2t34 12v-229q-27 35 -62.5 47t-107.5 12h-192v-514 q76 -12 134 -17t132 -5q141 0 237.5 28.5t184.5 94.5l-100 -283h-902zM162 1714l119 160l471 -336z" />
<glyph unicode="&#xc9;" horiz-adv-x="1126" d="M106 0q31 16 49.5 35.5t29 50.5t14.5 77t4 116v868q0 70 -4 116t-15.5 76.5t-30 49t-47.5 34.5h719q31 0 45.5 2t36.5 11v-252q-27 25 -51.5 42t-54 26.5t-68.5 13.5t-90 4q-78 0 -127 -3t-96 -12v-403h289q25 0 39 2t34 12v-229q-27 35 -62.5 47t-107.5 12h-192v-514 q76 -12 134 -17t132 -5q141 0 237.5 28.5t184.5 94.5l-100 -283h-902zM397 1538l471 336l119 -160z" />
<glyph unicode="&#xca;" horiz-adv-x="1126" d="M106 0q31 16 49.5 35.5t29 50.5t14.5 77t4 116v868q0 70 -4 116t-15.5 76.5t-30 49t-47.5 34.5h719q31 0 45.5 2t36.5 11v-252q-27 25 -51.5 42t-54 26.5t-68.5 13.5t-90 4q-78 0 -127 -3t-96 -12v-403h289q25 0 39 2t34 12v-229q-27 35 -62.5 47t-107.5 12h-192v-514 q76 -12 134 -17t132 -5q141 0 237.5 28.5t184.5 94.5l-100 -283h-902zM209 1550l356 305l350 -305q-80 2 -161.5 27t-188.5 78q-90 -49 -184 -77t-172 -28z" />
<glyph unicode="&#xcb;" horiz-adv-x="1126" d="M106 0q31 16 49.5 35.5t29 50.5t14.5 77t4 116v868q0 70 -4 116t-15.5 76.5t-30 49t-47.5 34.5h719q31 0 45.5 2t36.5 11v-252q-27 25 -51.5 42t-54 26.5t-68.5 13.5t-90 4q-78 0 -127 -3t-96 -12v-403h289q25 0 39 2t34 12v-229q-27 35 -62.5 47t-107.5 12h-192v-514 q76 -12 134 -17t132 -5q141 0 237.5 28.5t184.5 94.5l-100 -283h-902zM236 1706q0 53 39 91t94 38q53 0 90 -38t37 -91t-38 -92t-91 -39q-55 0 -93 38t-38 93zM633 1708q0 53 39 91t94 38q53 0 90 -38t37 -91q0 -55 -38 -93t-93 -38q-53 0 -91 39t-38 92z" />
<glyph unicode="&#xcc;" horiz-adv-x="622" d="M-18 1714l118 160l414 -336zM106 0q31 16 49.5 35.5t29 50.5t14.5 76t4 114v871q0 70 -4 115t-14.5 75.5t-29 50t-49.5 35.5h410q-31 -16 -49 -35.5t-28.5 -50t-14.5 -75.5t-4 -115v-871q0 -70 4 -114.5t14.5 -75.5t28.5 -50.5t49 -35.5h-410z" />
<glyph unicode="&#xcd;" horiz-adv-x="622" d="M106 0q31 16 49.5 35.5t29 50.5t14.5 76t4 114v871q0 70 -4 115t-14.5 75.5t-29 50t-49.5 35.5h410q-31 -16 -49 -35.5t-28.5 -50t-14.5 -75.5t-4 -115v-871q0 -70 4 -114.5t14.5 -75.5t28.5 -50.5t49 -35.5h-410zM117 1538l413 336l119 -160z" />
<glyph unicode="&#xce;" horiz-adv-x="622" d="M-20 1536l335 332l328 -332q-35 0 -65.5 6t-67.5 20.5t-83 40t-112 66.5q-98 -66 -185 -100.5t-150 -32.5zM106 0q29 16 47.5 35.5t30 50.5t15.5 76t4 114v871q0 70 -4 115t-15.5 75.5t-30 50t-47.5 35.5h410q-29 -16 -48 -35.5t-29.5 -50t-14.5 -75.5t-4 -115v-871 q0 -70 4 -114.5t14.5 -75.5t29.5 -50.5t48 -35.5h-410z" />
<glyph unicode="&#xcf;" horiz-adv-x="622" d="M4 1677q0 53 39 91t94 38q51 0 89 -37.5t38 -91.5q0 -53 -38 -92t-91 -39q-55 0 -93 38t-38 93zM106 0q31 16 49.5 35.5t29 50.5t14.5 76t4 114v871q0 70 -4 115t-14.5 75.5t-29 50t-49.5 35.5h410q-31 -16 -49 -35.5t-28.5 -50t-14.5 -75.5t-4 -115v-871q0 -70 4 -114.5 t14.5 -75.5t28.5 -50.5t49 -35.5h-410zM358 1679q0 53 39.5 91t94.5 38q53 0 89.5 -37.5t36.5 -91.5q0 -55 -37.5 -93t-93.5 -38q-53 0 -91 38t-38 93z" />
<glyph unicode="&#xd0;" horiz-adv-x="1521" d="M6 668v141h197v338q0 70 -4 115t-15.5 75.5t-30 50t-47.5 35.5h560q168 0 293.5 -41t236.5 -133q119 -98 180.5 -231t61.5 -291q0 -109 -30 -208t-83 -185t-129 -152.5t-170 -109.5q-45 -20 -97 -33.5t-120 -22t-155 -12.5t-199 -4h-349q25 23 38.5 35t20.5 21.5t11 18.5 t8 21q10 29 14.5 74t4.5 117v381h-197zM420 178q49 -10 80.5 -13t79.5 -3q141 0 238 25.5t173 78.5q209 156 209 439q0 119 -39 227t-110 184q-74 80 -184.5 122t-248.5 42q-53 0 -94 -5t-104 -20v-446h414v-141h-414v-490z" />
<glyph unicode="&#xd1;" horiz-adv-x="1613" d="M90 0q35 23 57.5 45.5t35 51t17.5 66.5t5 91v915q0 53 -5 91t-18.5 68t-35 51.5t-54.5 43.5h316q2 -8 5 -13t8 -13t13 -20.5t25 -33.5l801 -1019v845q0 53 -5.5 91t-18.5 67t-35.5 51.5t-55.5 44.5h387q-35 -23 -57.5 -45t-35 -51t-17.5 -66.5t-5 -91.5v-1239 q-90 29 -160.5 83.5t-136.5 144.5l-758 960v-864q0 -53 5.5 -91t18.5 -67.5t34.5 -52.5t54.5 -43h-385zM471 1591q16 45 26.5 73t16.5 45t11 25.5t12 18.5q41 66 127 66h22q10 0 22.5 -3.5t32 -8.5t54.5 -15q12 -4 21 -6t22.5 -6t35 -10.5t62.5 -18.5q61 -16 88 -16 q18 0 38.5 5t44 18.5t52.5 34.5t68 54q-6 -20 -13.5 -38.5t-13.5 -36.5q-20 -57 -31.5 -82t-27.5 -43q-23 -29 -61 -44.5t-79 -15.5q-29 0 -64.5 8.5t-94.5 28.5q-41 14 -71 23.5t-52.5 14.5t-42 7t-39.5 2q-23 0 -39 -3t-34.5 -11t-40 -23.5t-52.5 -42.5z" />
<glyph unicode="&#xd2;" horiz-adv-x="1753" d="M82 705q0 162 62.5 300t172 239.5t259 158.5t323.5 57q154 0 301.5 -56t249.5 -157q102 -98 160.5 -238.5t58.5 -287.5q0 -158 -62.5 -296t-170 -240.5t-253 -161t-313.5 -58.5q-166 0 -309 57.5t-249.5 157t-168 234.5t-61.5 291zM326 739q0 -125 45 -245.5t129 -212.5 q147 -162 379 -162q121 0 221 41t171.5 116.5t111.5 179t40 230.5q0 123 -37.5 233.5t-109.5 196.5q-158 189 -408 189q-111 0 -216 -43t-177 -117q-70 -72 -109.5 -180.5t-39.5 -225.5zM473 1714l119 160l471 -336z" />
<glyph unicode="&#xd3;" horiz-adv-x="1753" d="M82 705q0 162 62.5 300t172 239.5t259 158.5t323.5 57q154 0 301.5 -56t249.5 -157q102 -98 160.5 -238.5t58.5 -287.5q0 -158 -62.5 -296t-170 -240.5t-253 -161t-313.5 -58.5q-166 0 -309 57.5t-249.5 157t-168 234.5t-61.5 291zM326 739q0 -125 45 -245.5t129 -212.5 q147 -162 379 -162q121 0 221 41t171.5 116.5t111.5 179t40 230.5q0 123 -37.5 233.5t-109.5 196.5q-158 189 -408 189q-111 0 -216 -43t-177 -117q-70 -72 -109.5 -180.5t-39.5 -225.5zM709 1538l471 336l118 -160z" />
<glyph unicode="&#xd4;" horiz-adv-x="1753" d="M82 705q0 162 62.5 300t172 239.5t259 158.5t323.5 57q154 0 301.5 -56t249.5 -157q102 -98 160.5 -238.5t58.5 -287.5q0 -158 -62.5 -296t-170 -240.5t-253 -161t-313.5 -58.5q-166 0 -309 57.5t-249.5 157t-168 234.5t-61.5 291zM326 739q0 -125 45 -245.5t129 -212.5 q147 -162 379 -162q121 0 221 41t171.5 116.5t111.5 179t40 230.5q0 123 -37.5 233.5t-109.5 196.5q-158 189 -408 189q-111 0 -216 -43t-177 -117q-70 -72 -109.5 -180.5t-39.5 -225.5zM522 1550l357 305l350 -305q-80 2 -162 27t-188 78q-90 -49 -184.5 -77t-172.5 -28z " />
<glyph unicode="&#xd5;" horiz-adv-x="1753" d="M82 705q0 162 62.5 300t172 239.5t259 158.5t323.5 57q154 0 301.5 -56t249.5 -157q102 -98 160.5 -238.5t58.5 -287.5q0 -158 -62.5 -296t-170 -240.5t-253 -161t-313.5 -58.5q-166 0 -309 57.5t-249.5 157t-168 234.5t-61.5 291zM326 739q0 -125 45 -245.5t129 -212.5 q147 -162 379 -162q121 0 221 41t171.5 116.5t111.5 179t40 230.5q0 123 -37.5 233.5t-109.5 196.5q-158 189 -408 189q-111 0 -216 -43t-177 -117q-70 -72 -109.5 -180.5t-39.5 -225.5zM518 1591q16 45 26.5 73t16.5 45t11.5 25.5t11.5 18.5q41 66 127 66h22 q10 0 22.5 -3.5t32 -8.5t54.5 -15q12 -4 21 -6t22.5 -6t35 -10.5t62.5 -18.5q61 -16 88 -16q18 0 38.5 5t44.5 18.5t52.5 34.5t67.5 54q-6 -20 -13.5 -38.5t-13.5 -36.5q-20 -57 -31.5 -82t-27.5 -43q-23 -29 -60.5 -44.5t-78.5 -15.5q-29 0 -65 8.5t-95 28.5 q-41 14 -71 23.5t-52.5 14.5t-41.5 7t-40 2q-23 0 -39 -3t-34.5 -11t-40 -23.5t-52.5 -42.5z" />
<glyph unicode="&#xd6;" horiz-adv-x="1753" d="M82 705q0 162 62.5 300t172 239.5t259 158.5t323.5 57q154 0 301.5 -56t249.5 -157q102 -98 160.5 -238.5t58.5 -287.5q0 -158 -62.5 -296t-170 -240.5t-253 -161t-313.5 -58.5q-166 0 -309 57.5t-249.5 157t-168 234.5t-61.5 291zM326 739q0 -125 45 -245.5t129 -212.5 q147 -162 379 -162q121 0 221 41t171.5 116.5t111.5 179t40 230.5q0 123 -37.5 233.5t-109.5 196.5q-158 189 -408 189q-111 0 -216 -43t-177 -117q-70 -72 -109.5 -180.5t-39.5 -225.5zM547 1706q0 53 39 91t94 38q53 0 90 -38t37 -91t-38 -92t-91 -39q-55 0 -93 38t-38 93 zM944 1708q0 53 39 91t94 38q53 0 90 -38t37 -91q0 -55 -38 -93t-93 -38q-53 0 -91 39t-38 92z" />
<glyph unicode="&#xd7;" d="M233 403l318 318l-311 311l104 105l311 -312l318 318l104 -105l-317 -317l311 -311l-104 -105l-312 311l-317 -317z" />
<glyph unicode="&#xd8;" horiz-adv-x="1755" d="M82 702q0 160 62.5 299.5t173 240.5t260 159.5t323.5 58.5q125 0 223.5 -27.5t200.5 -91.5l127 144h193l-209 -228q31 -29 51 -50t37.5 -42.5t32 -45t30.5 -54.5q41 -82 62.5 -169t21.5 -171q0 -76 -17.5 -152.5t-50 -148.5t-79.5 -137.5t-105 -116.5 q-109 -98 -252 -151.5t-303 -53.5q-129 0 -233.5 32t-222.5 105l-140 -161h-178l211 247q-115 125 -167 247t-52 267zM317 743q0 -219 125 -399l758 856q-135 109 -332 109q-119 0 -220 -43t-175 -118t-115 -178.5t-41 -226.5zM535 238q41 -35 79.5 -57.5t78.5 -38t84 -21.5 t97 -6q125 0 228.5 41t177.5 116.5t115 182t41 235.5q0 121 -32 215t-106 197z" />
<glyph unicode="&#xd9;" horiz-adv-x="1540" d="M100 1423h410q-29 -16 -48.5 -35.5t-29.5 -50t-14 -75.5t-4 -115v-629q0 -109 15 -167t60 -109q47 -57 119 -88t156 -31q96 0 179 40t132 109q27 35 36 73t9 99v703q0 70 -4 115t-15 75.5t-29.5 50t-47.5 35.5h410q-29 -16 -48.5 -35.5t-29.5 -50t-14.5 -75.5t-4.5 -115 v-871q0 -70 4.5 -114.5t14.5 -75.5t29.5 -50.5t48.5 -35.5h-306v150q-154 -184 -428 -185q-156 0 -275.5 62.5t-176.5 175.5q-16 29 -25.5 57.5t-15.5 64t-8 82t-2 111.5v629q0 70 -4.5 115t-14.5 75.5t-28.5 50t-49.5 35.5zM340 1714l119 160l471 -336z" />
<glyph unicode="&#xda;" horiz-adv-x="1540" d="M100 1423h410q-29 -16 -48.5 -35.5t-29.5 -50t-14 -75.5t-4 -115v-629q0 -109 15 -167t60 -109q47 -57 119 -88t156 -31q96 0 179 40t132 109q27 35 36 73t9 99v703q0 70 -4 115t-15 75.5t-29.5 50t-47.5 35.5h410q-29 -16 -48.5 -35.5t-29.5 -50t-14.5 -75.5t-4.5 -115 v-871q0 -70 4.5 -114.5t14.5 -75.5t29.5 -50.5t48.5 -35.5h-306v150q-154 -184 -428 -185q-156 0 -275.5 62.5t-176.5 175.5q-16 29 -25.5 57.5t-15.5 64t-8 82t-2 111.5v629q0 70 -4.5 115t-14.5 75.5t-28.5 50t-49.5 35.5zM618 1538l472 336l118 -160z" />
<glyph unicode="&#xdb;" horiz-adv-x="1540" d="M100 1423h410q-29 -16 -48.5 -35.5t-29.5 -50t-14 -75.5t-4 -115v-629q0 -109 15 -167t60 -109q47 -57 119 -88t156 -31q96 0 179 40t132 109q27 35 36 73t9 99v703q0 70 -4 115t-15 75.5t-29.5 50t-47.5 35.5h410q-29 -16 -48.5 -35.5t-29.5 -50t-14.5 -75.5t-4.5 -115 v-871q0 -70 4.5 -114.5t14.5 -75.5t29.5 -50.5t48.5 -35.5h-306v150q-154 -184 -428 -185q-156 0 -275.5 62.5t-176.5 175.5q-16 29 -25.5 57.5t-15.5 64t-8 82t-2 111.5v629q0 70 -4.5 115t-14.5 75.5t-28.5 50t-49.5 35.5zM418 1550l356 305l350 -305q-80 2 -161.5 27 t-188.5 78q-90 -49 -184 -77t-172 -28z" />
<glyph unicode="&#xdc;" horiz-adv-x="1540" d="M100 1423h410q-29 -16 -48.5 -35.5t-29.5 -50t-14 -75.5t-4 -115v-629q0 -109 15 -167t60 -109q47 -57 119 -88t156 -31q96 0 179 40t132 109q27 35 36 73t9 99v703q0 70 -4 115t-15 75.5t-29.5 50t-47.5 35.5h410q-29 -16 -48.5 -35.5t-29.5 -50t-14.5 -75.5t-4.5 -115 v-871q0 -70 4.5 -114.5t14.5 -75.5t29.5 -50.5t48.5 -35.5h-306v150q-154 -184 -428 -185q-156 0 -275.5 62.5t-176.5 175.5q-16 29 -25.5 57.5t-15.5 64t-8 82t-2 111.5v629q0 70 -4.5 115t-14.5 75.5t-28.5 50t-49.5 35.5zM442 1706q0 53 39 91t94 38q53 0 90 -38t37 -91 t-37.5 -92t-91.5 -39q-55 0 -93 38t-38 93zM840 1708q0 53 39 91t94 38q53 0 90 -38t37 -91q0 -55 -38 -93t-93 -38q-53 0 -91 39t-38 92z" />
<glyph unicode="&#xdd;" horiz-adv-x="1306" d="M-14 1423l219 9h26q25 0 40.5 -2.5t27.5 -12.5t26.5 -30.5t36.5 -57.5l326 -532l273 413q41 61 40 105q0 29 -21.5 59.5t-55.5 48.5h374l-530 -800v-369q0 -53 4 -88t15.5 -62.5t33 -51t56.5 -52.5h-418q31 20 48 40.5t27.5 50.5t13.5 74t3 111v347l-373 600 q-29 45 -49 73.5t-40.5 50t-45.5 39t-57 37.5zM502 1538l471 336l119 -160z" />
<glyph unicode="&#xde;" horiz-adv-x="1181" d="M106 0q31 16 49.5 35.5t29 50.5t14.5 76t4 114v871q0 70 -4 115t-14.5 75.5t-29 50t-49.5 35.5h410q-29 -14 -48 -33.5t-29.5 -52t-14.5 -81t-4 -117.5h135q74 0 125 -2t91 -8.5t70.5 -16.5t65.5 -25q98 -47 158.5 -134t60.5 -189q0 -84 -37.5 -158t-102 -129t-151.5 -88 t-186 -33q-51 0 -81.5 6.5t-73.5 22.5q102 12 163.5 35.5t114.5 68.5q113 98 113 234q0 125 -83 196.5t-231 71.5q-45 0 -75.5 -4t-75.5 -14v-719q0 -53 5 -92t18.5 -67.5t35 -51.5t53.5 -43h-426z" />
<glyph unicode="&#xdf;" horiz-adv-x="1220" d="M78 0q29 23 45 39t24.5 37.5t10.5 52.5t2 84v643h-80l80 141v31q0 96 29.5 175t83 134.5t130 85t172.5 29.5q80 0 148 -21.5t117 -60.5t75.5 -93t26.5 -118q0 -39 -10 -71.5t-32.5 -63.5t-62.5 -61.5t-98 -67.5q-45 -27 -45 -51q0 -29 56 -51q205 -86 296 -193.5 t91 -263.5q0 -80 -29 -147.5t-79 -115.5t-120.5 -75t-156.5 -27q-68 0 -127.5 15.5t-118.5 48.5l-57 209q82 -63 144 -90t132 -27q92 0 152.5 60.5t60.5 154.5q0 143 -143 240q-45 31 -103.5 62.5t-105.5 49.5q-61 25 -85 48.5t-24 60.5q0 35 19.5 61.5t74.5 67.5 q90 66 131 122t41 109q0 72 -51 118t-129 46q-102 0 -155.5 -74.5t-53.5 -216.5v-823q0 -53 2 -84t10.5 -52.5t25 -37.5t44.5 -39h-358z" />
<glyph unicode="&#xe0;" horiz-adv-x="1116" d="M72 295q0 68 32.5 127t88.5 90q23 12 47 22.5t57 20.5t76 19.5t104 21.5q72 14 119 27.5t74.5 31t39 39t11.5 49.5q0 61 -57.5 99.5t-149.5 38.5q-35 0 -65.5 -4.5t-63.5 -13.5t-73 -26.5t-93 -41.5l143 217q47 10 77 12t73 2q274 0 365 -145q14 -23 22 -42.5t12 -47 t6.5 -67.5t2.5 -101v-279q0 -47 2 -76.5t7 -48t16 -32t30 -25.5q23 -18 52.5 -25.5t76.5 -9.5l-94 -141q-82 6 -125 16t-78 33q-25 14 -41 32.5t-25.5 44t-12.5 61.5t-3 89v279q-29 -12 -48.5 -20.5t-46 -16.5t-68.5 -18.5t-113 -26.5q-156 -37 -156 -166q0 -84 60.5 -130 t168.5 -46q41 0 75 6t87 22l-127 -161q-35 -8 -59.5 -10.5t-59.5 -2.5q-164 0 -256 84q-53 47 -81.5 110.5t-28.5 129.5zM176 1356l131 135l404 -371z" />
<glyph unicode="&#xe1;" horiz-adv-x="1116" d="M72 295q0 68 32.5 127t88.5 90q23 12 47 22.5t57 20.5t76 19.5t104 21.5q72 14 119 27.5t74.5 31t39 39t11.5 49.5q0 61 -57.5 99.5t-149.5 38.5q-35 0 -65.5 -4.5t-63.5 -13.5t-73 -26.5t-93 -41.5l143 217q47 10 77 12t73 2q274 0 365 -145q14 -23 22 -42.5t12 -47 t6.5 -67.5t2.5 -101v-279q0 -47 2 -76.5t7 -48t16 -32t30 -25.5q23 -18 52.5 -25.5t76.5 -9.5l-94 -141q-82 6 -125 16t-78 33q-25 14 -41 32.5t-25.5 44t-12.5 61.5t-3 89v279q-29 -12 -48.5 -20.5t-46 -16.5t-68.5 -18.5t-113 -26.5q-156 -37 -156 -166q0 -84 60.5 -130 t168.5 -46q41 0 75 6t87 22l-127 -161q-35 -8 -59.5 -10.5t-59.5 -2.5q-164 0 -256 84q-53 47 -81.5 110.5t-28.5 129.5zM436 1120l406 371l129 -135z" />
<glyph unicode="&#xe2;" horiz-adv-x="1116" d="M72 295q0 68 32.5 127t88.5 90q23 12 47 22.5t57 20.5t76 19.5t104 21.5q72 14 119 27.5t74.5 31t39 39t11.5 49.5q0 61 -57.5 99.5t-149.5 38.5q-35 0 -65.5 -4.5t-63.5 -13.5t-73 -26.5t-93 -41.5l143 217q47 10 77 12t73 2q274 0 365 -145q14 -23 22 -42.5t12 -47 t6.5 -67.5t2.5 -101v-279q0 -47 2 -76.5t7 -48t16 -32t30 -25.5q23 -18 52.5 -25.5t76.5 -9.5l-94 -141q-82 6 -125 16t-78 33q-25 14 -41 32.5t-25.5 44t-12.5 61.5t-3 89v279q-29 -12 -48.5 -20.5t-46 -16.5t-68.5 -18.5t-113 -26.5q-156 -37 -156 -166q0 -84 60.5 -130 t168.5 -46q41 0 75 6t87 22l-127 -161q-35 -8 -59.5 -10.5t-59.5 -2.5q-164 0 -256 84q-53 47 -81.5 110.5t-28.5 129.5zM229 1133l332 329l326 -329q-74 6 -152 41.5t-174 107.5q-174 -137 -332 -149z" />
<glyph unicode="&#xe3;" horiz-adv-x="1116" d="M72 295q0 68 32.5 127t88.5 90q23 12 47 22.5t57 20.5t76 19.5t104 21.5q72 14 119 27.5t74.5 31t39 39t11.5 49.5q0 61 -57.5 99.5t-149.5 38.5q-35 0 -65.5 -4.5t-63.5 -13.5t-73 -26.5t-93 -41.5l143 217q47 10 77 12t73 2q274 0 365 -145q14 -23 22 -42.5t12 -47 t6.5 -67.5t2.5 -101v-279q0 -47 2 -76.5t7 -48t16 -32t30 -25.5q23 -18 52.5 -25.5t76.5 -9.5l-94 -141q-82 6 -125 16t-78 33q-25 14 -41 32.5t-25.5 44t-12.5 61.5t-3 89v279q-29 -12 -48.5 -20.5t-46 -16.5t-68.5 -18.5t-113 -26.5q-156 -37 -156 -166q0 -84 60.5 -130 t168.5 -46q41 0 75 6t87 22l-127 -161q-35 -8 -59.5 -10.5t-59.5 -2.5q-164 0 -256 84q-53 47 -81.5 110.5t-28.5 129.5zM215 1200q12 39 20.5 64.5t14.5 41t12 25.5t14 21q43 61 109 61q23 0 55.5 -7t94.5 -26q51 -16 81.5 -25t47 -13.5t24.5 -5.5t19 -1q77 1 188 99 q-49 -242 -195 -242q-53 0 -151 33q-49 16 -78 25.5t-47 14.5t-30.5 6t-26.5 1q-37 0 -69 -15.5t-83 -56.5z" />
<glyph unicode="&#xe4;" horiz-adv-x="1116" d="M72 295q0 68 32.5 127t88.5 90q23 12 47 22.5t57 20.5t76 19.5t104 21.5q72 14 119 27.5t74.5 31t39 39t11.5 49.5q0 61 -57.5 99.5t-149.5 38.5q-35 0 -65.5 -4.5t-63.5 -13.5t-73 -26.5t-93 -41.5l143 217q47 10 77 12t73 2q274 0 365 -145q14 -23 22 -42.5t12 -47 t6.5 -67.5t2.5 -101v-279q0 -47 2 -76.5t7 -48t16 -32t30 -25.5q23 -18 52.5 -25.5t76.5 -9.5l-94 -141q-82 6 -125 16t-78 33q-25 14 -41 32.5t-25.5 44t-12.5 61.5t-3 89v279q-29 -12 -48.5 -20.5t-46 -16.5t-68.5 -18.5t-113 -26.5q-156 -37 -156 -166q0 -84 60.5 -130 t168.5 -46q41 0 75 6t87 22l-127 -161q-35 -8 -59.5 -10.5t-59.5 -2.5q-164 0 -256 84q-53 47 -81.5 110.5t-28.5 129.5zM250 1309q0 53 38 89t91 36q51 0 87 -37t36 -88q0 -53 -36 -90t-89 -37t-90 36.5t-37 90.5zM614 1309q0 51 38 88t91 37q49 0 86 -37t37 -90 q0 -51 -36.5 -88t-88.5 -37q-53 0 -90 36.5t-37 90.5z" />
<glyph unicode="&#xe5;" horiz-adv-x="1116" d="M72 295q0 68 32.5 127t88.5 90q23 12 47 22.5t57 20.5t76 19.5t104 21.5q72 14 119 27.5t74.5 31t39 39t11.5 49.5q0 61 -57.5 99.5t-149.5 38.5q-35 0 -65.5 -4.5t-63.5 -13.5t-73 -26.5t-93 -41.5l143 217q47 10 77 12t73 2q274 0 365 -145q14 -23 22 -42.5t12 -47 t6.5 -67.5t2.5 -101v-279q0 -47 2 -76.5t7 -48t16 -32t30 -25.5q23 -18 52.5 -25.5t76.5 -9.5l-94 -141q-82 6 -125 16t-78 33q-25 14 -41 32.5t-25.5 44t-12.5 61.5t-3 89v279q-29 -12 -48.5 -20.5t-46 -16.5t-68.5 -18.5t-113 -26.5q-156 -37 -156 -166q0 -84 60.5 -130 t168.5 -46q41 0 75 6t87 22l-127 -161q-35 -8 -59.5 -10.5t-59.5 -2.5q-164 0 -256 84q-53 47 -81.5 110.5t-28.5 129.5zM324 1350q0 45 17 84t46 67.5t69 45t85 16.5q43 0 80.5 -17.5t67.5 -46.5t46.5 -67.5t16.5 -81.5q0 -45 -17.5 -84t-46.5 -69t-67.5 -46t-83.5 -16 t-84 16t-68 46t-45 69t-16 84zM426 1348q0 -47 33 -80t80 -33t79.5 32.5t32.5 80.5q0 47 -33.5 79.5t-80.5 32.5q-45 0 -78 -32.5t-33 -79.5z" />
<glyph unicode="&#xe6;" horiz-adv-x="1814" d="M72 287q0 66 27.5 121t78.5 92q25 18 42.5 28.5t47 19.5t81.5 19.5t147 28.5q147 31 202.5 60.5t55.5 80.5q0 61 -63.5 102.5t-162.5 41.5q-70 0 -139.5 -20.5t-150.5 -63.5l147 200q72 16 108.5 22.5t73.5 6.5q209 0 330 -147q84 78 169 112.5t187 34.5q109 0 197 -35 t150.5 -99.5t96.5 -155.5t36 -204h-764q2 -47 6 -82.5t13 -65.5t23.5 -57.5t37.5 -56.5q57 -74 137 -113.5t176 -39.5q109 0 196 27.5t175 91.5l-105 -201q-72 -35 -137.5 -49.5t-151.5 -14.5q-205 0 -347 80t-204 232q-12 31 -19 56.5t-11 53t-6 61t-2 78.5 q-18 -10 -30.5 -15t-28 -10t-41 -11.5t-68.5 -16.5q-80 -18 -135.5 -37.5t-89 -42t-49 -49t-15.5 -61.5q0 -37 17.5 -68t48 -54.5t71.5 -36.5t88 -13q66 0 124 20.5t128 67.5l-94 -185q-49 -27 -98.5 -38t-112.5 -11q-84 0 -155.5 24.5t-125 66.5t-83 99.5t-29.5 125.5z M985 659h524q-12 47 -21 72t-24 49q-31 53 -88 85t-127 32q-102 0 -175 -66.5t-89 -171.5z" />
<glyph unicode="&#xe7;" horiz-adv-x="1067" d="M82 477q0 115 45 215.5t131 179.5q88 80 193.5 117t246.5 37q63 0 115.5 -5t120.5 -22v-223q-106 104 -270 105q-82 0 -148.5 -26t-114 -72t-73 -112.5t-25.5 -146.5q0 -88 34 -162.5t92 -129t139 -85t177 -30.5q88 0 166 25.5t164 78.5l-127 -213q-45 -18 -109.5 -29.5 t-136.5 -11.5h-18t-29 2l-30 -82q18 4 29.5 5.5t23.5 1.5q72 0 115 -36t43 -96q0 -68 -55.5 -113.5t-139.5 -45.5q-125 0 -227 75l65 84q43 -35 77 -50t69 -15t56 17.5t21 45.5q0 25 -17 40.5t-46 15.5q-14 0 -25.5 -2t-29.5 -9l-62 82l31 88q-106 16 -193.5 60.5 t-148.5 111t-95 150.5t-34 180z" />
<glyph unicode="&#xe8;" horiz-adv-x="1191" d="M96 500q0 113 47 219t129 182q141 125 359 125q106 0 196.5 -35t157 -98.5t103 -149.5t36.5 -188v-35h-794q8 -190 121.5 -296.5t310.5 -106.5q109 0 192.5 26.5t169.5 85.5l-116 -206q-72 -29 -140.5 -40.5t-158.5 -11.5q-135 0 -248 39t-194 108.5t-126 167t-45 214.5z M258 1356l129 135l406 -371zM324 655h559q-45 242 -275 242q-111 0 -185.5 -63.5t-98.5 -178.5z" />
<glyph unicode="&#xe9;" horiz-adv-x="1191" d="M82 500q0 113 47 219t129 182q141 125 360 125q106 0 196.5 -35t156 -98.5t102.5 -149.5t37 -188v-35h-795q8 -190 122 -296.5t311 -106.5q109 0 192.5 26.5t169.5 85.5l-117 -206q-72 -29 -140.5 -40.5t-158.5 -11.5q-135 0 -247.5 39t-193.5 108.5t-126 167t-45 214.5z M324 655h559q-45 242 -275 242q-111 0 -185.5 -63.5t-98.5 -178.5zM446 1120l406 371l129 -135z" />
<glyph unicode="&#xea;" horiz-adv-x="1191" d="M82 500q0 113 47 219t129 182q141 125 360 125q106 0 196.5 -35t156 -98.5t102.5 -149.5t37 -188v-35h-795q8 -190 122 -296.5t311 -106.5q109 0 192.5 26.5t169.5 85.5l-117 -206q-72 -29 -140.5 -40.5t-158.5 -11.5q-135 0 -247.5 39t-193.5 108.5t-126 167t-45 214.5z M295 1133l332 329l325 -329q-74 6 -151.5 41.5t-173.5 107.5q-174 -137 -332 -149zM324 655h559q-45 242 -275 242q-111 0 -185.5 -63.5t-98.5 -178.5z" />
<glyph unicode="&#xeb;" horiz-adv-x="1191" d="M82 500q0 113 47 219t129 182q141 125 360 125q106 0 196.5 -35t156 -98.5t102.5 -149.5t37 -188v-35h-795q8 -190 122 -296.5t311 -106.5q109 0 192.5 26.5t169.5 85.5l-117 -206q-72 -29 -140.5 -40.5t-158.5 -11.5q-135 0 -247.5 39t-193.5 108.5t-126 167t-45 214.5z M315 1309q0 53 38 89t91 36q51 0 87 -37t36 -88q0 -53 -35.5 -90t-89.5 -37q-53 0 -90 36.5t-37 90.5zM324 655h559q-45 242 -275 242q-111 0 -185.5 -63.5t-98.5 -178.5zM680 1309q0 51 38 88t91 37q49 0 86 -37t37 -90q0 -51 -37 -88t-88 -37q-53 0 -90 36.5t-37 90.5z " />
<glyph unicode="&#xec;" horiz-adv-x="524" d="M-94 1343l125 130l385 -353zM86 0q29 23 45 39t24.5 37.5t10.5 52.5t2 84v571q0 51 -2 83t-10.5 53.5t-24.5 38t-45 38.5h150q47 0 75.5 9.5t50.5 31.5v-825q0 -53 2.5 -84t10.5 -52.5t24.5 -37.5t44.5 -39h-358z" />
<glyph unicode="&#xed;" horiz-adv-x="524" d="M86 0q29 23 45 39t24.5 37.5t10.5 52.5t2 84v571q0 51 -2 83t-10.5 53.5t-24.5 38t-45 38.5h150q47 0 75.5 9.5t50.5 31.5v-825q0 -53 2.5 -84t10.5 -52.5t24.5 -37.5t44.5 -39h-358zM113 1120l383 353l125 -130z" />
<glyph unicode="&#xee;" horiz-adv-x="524" d="M-53 1133l317 329l311 -329q-72 6 -145.5 41.5t-165.5 107.5q-164 -137 -317 -149zM86 0q29 20 45 37.5t24.5 39t10.5 53.5t2 83v571q0 51 -2 83t-10.5 53.5t-24.5 38t-45 38.5h150q47 0 75.5 9.5t50.5 31.5v-825q0 -53 2.5 -84t10.5 -52.5t24.5 -37.5t44.5 -39h-358z " />
<glyph unicode="&#xef;" horiz-adv-x="524" d="M-29 1307q0 53 37 88t90 35q49 0 85 -37t36 -86q0 -53 -36 -89t-89 -36q-51 0 -87 35.5t-36 89.5zM86 0q29 23 45 39t24.5 37.5t10.5 52.5t2 84v571q0 51 -2 83t-10.5 53.5t-24.5 38t-45 38.5h150q47 0 75.5 9.5t50.5 31.5v-825q0 -53 2.5 -84t10.5 -52.5t24.5 -37.5 t44.5 -39h-358zM309 1307q0 51 37 87t90 36q49 0 85 -37t36 -88t-36 -87t-87 -36q-53 0 -89 35.5t-36 89.5z" />
<glyph unicode="&#xf0;" horiz-adv-x="1275" d="M82 496q0 111 43 207t117.5 167.5t174 113.5t214.5 42q72 0 128 -21.5t120 -72.5q-14 33 -36 74t-46.5 84t-50 83.5t-46.5 69.5l-178 -78l-45 97l166 71q-4 10 -10 17.5t-10 15.5l-56 76l-20 31l106 65q16 -20 26.5 -33.5l21 -27t24.5 -33t39 -51.5l176 77l45 -98 l-162 -69q98 -137 169 -252t115 -212.5t65.5 -182.5t21.5 -160q0 -109 -44 -205t-121 -167t-180.5 -112t-221.5 -41q-117 0 -216.5 40t-172 111t-114.5 167t-42 207zM303 520q0 -86 26.5 -159.5t73 -128t107.5 -86t133 -31.5q70 0 131.5 26.5t105.5 73.5t69.5 110.5 t25.5 137.5q0 94 -25.5 171t-72 132t-110.5 86t-142 31q-70 0 -129.5 -27t-102.5 -75t-66.5 -114.5t-23.5 -146.5z" />
<glyph unicode="&#xf1;" horiz-adv-x="1214" d="M86 0q29 23 45 39t24.5 37.5t10.5 52.5t2 84v571q0 51 -2 83t-10.5 53.5t-24.5 38t-45 38.5h139q47 0 76 9.5t51 31.5v-180q78 92 150.5 130t169.5 38q104 0 194 -42t138 -112q14 -23 24 -48t16.5 -59t8.5 -79t2 -106v-367q0 -53 2 -84t10 -52.5t24.5 -37.5t45.5 -39 h-361q29 23 46.5 39t25.5 37.5t10 53.5t2 83v344q0 86 -10 134t-37 83q-33 41 -92 66.5t-125 25.5t-120 -25.5t-85 -68.5q-16 -23 -22.5 -49.5t-6.5 -73.5v-436q0 -53 2.5 -84t10.5 -52.5t24.5 -37.5t44.5 -39h-358zM293 1200q12 39 20.5 64.5t14.5 41t12 25.5t14 21 q43 61 109 61q23 0 55.5 -7t93.5 -26q51 -16 82 -25t47.5 -13.5t24.5 -5.5t18 -1q78 1 189 99q-49 -242 -195 -242q-53 0 -151 33q-49 16 -78 25.5t-47.5 14.5t-30.5 6t-27 1q-37 0 -68.5 -15.5t-82.5 -56.5z" />
<glyph unicode="&#xf2;" horiz-adv-x="1292" d="M82 494q0 123 53 231.5t150 181.5q82 61 173 90t210 29q223 0 374 -139q82 -76 125 -174.5t43 -206.5q0 -113 -44 -210t-121.5 -170t-182 -114t-227.5 -41q-119 0 -220.5 40t-175 109.5t-115.5 165t-42 208.5zM264 1356l131 135l404 -371zM303 520q0 -86 26.5 -160.5 t74 -128t111 -84t138.5 -30.5q74 0 136.5 25.5t106.5 73.5t68.5 113.5t24.5 145.5q0 92 -25.5 167t-72.5 128t-112.5 82t-145.5 29q-74 0 -134.5 -27t-103.5 -74t-67.5 -113.5t-24.5 -146.5z" />
<glyph unicode="&#xf3;" horiz-adv-x="1292" d="M82 494q0 123 53 231.5t150 181.5q82 61 173 90t210 29q223 0 374 -139q82 -76 125 -174.5t43 -206.5q0 -113 -44 -210t-121.5 -170t-182 -114t-227.5 -41q-119 0 -220.5 40t-175 109.5t-115.5 165t-42 208.5zM303 520q0 -86 26.5 -160.5t74 -128t111 -84t138.5 -30.5 q74 0 136.5 25.5t106.5 73.5t68.5 113.5t24.5 145.5q0 92 -25.5 167t-72.5 128t-112.5 82t-145.5 29q-74 0 -134.5 -27t-103.5 -74t-67.5 -113.5t-24.5 -146.5zM496 1120l405 371l129 -135z" />
<glyph unicode="&#xf4;" horiz-adv-x="1292" d="M82 494q0 123 53 231.5t150 181.5q82 61 173 90t210 29q223 0 374 -139q82 -76 125 -174.5t43 -206.5q0 -113 -44 -210t-121.5 -170t-182 -114t-227.5 -41q-119 0 -220.5 40t-175 109.5t-115.5 165t-42 208.5zM303 520q0 -86 26.5 -160.5t74 -128t111 -84t138.5 -30.5 q74 0 136.5 25.5t106.5 73.5t68.5 113.5t24.5 145.5q0 92 -25.5 167t-72.5 128t-112.5 82t-145.5 29q-74 0 -134.5 -27t-103.5 -74t-67.5 -113.5t-24.5 -146.5zM317 1133l332 329l326 -329q-74 6 -152 41.5t-174 107.5q-174 -137 -332 -149z" />
<glyph unicode="&#xf5;" horiz-adv-x="1292" d="M82 494q0 123 53 231.5t150 181.5q82 61 173 90t210 29q223 0 374 -139q82 -76 125 -174.5t43 -206.5q0 -113 -44 -210t-121.5 -170t-182 -114t-227.5 -41q-119 0 -220.5 40t-175 109.5t-115.5 165t-42 208.5zM303 520q0 -86 26.5 -160.5t74 -128t111 -84t138.5 -30.5 q74 0 136.5 25.5t106.5 73.5t68.5 113.5t24.5 145.5q0 92 -25.5 167t-72.5 128t-112.5 82t-145.5 29q-74 0 -134.5 -27t-103.5 -74t-67.5 -113.5t-24.5 -146.5zM319 1200q12 39 20.5 64.5t14.5 41t12.5 25.5t14.5 21q43 61 108 61q23 0 56 -7t94 -26q51 -16 82 -25t47 -13.5 t24.5 -5.5t18.5 -1q77 1 188 99q-49 -242 -194 -242q-53 0 -152 33q-49 16 -77.5 25.5t-47 14.5t-31 6t-26.5 1q-37 0 -68.5 -15.5t-83.5 -56.5z" />
<glyph unicode="&#xf6;" horiz-adv-x="1292" d="M82 494q0 123 53 231.5t150 181.5q82 61 173 90t210 29q223 0 374 -139q82 -76 125 -174.5t43 -206.5q0 -113 -44 -210t-121.5 -170t-182 -114t-227.5 -41q-119 0 -220.5 40t-175 109.5t-115.5 165t-42 208.5zM303 520q0 -86 26.5 -160.5t74 -128t111 -84t138.5 -30.5 q74 0 136.5 25.5t106.5 73.5t68.5 113.5t24.5 145.5q0 92 -25.5 167t-72.5 128t-112.5 82t-145.5 29q-74 0 -134.5 -27t-103.5 -74t-67.5 -113.5t-24.5 -146.5zM338 1309q0 53 38 89t91 36q51 0 87 -37t36 -88q0 -53 -36 -90t-89 -37t-90 36.5t-37 90.5zM702 1309 q0 51 38 88t91 37q49 0 86 -37t37 -90q0 -51 -36.5 -88t-88.5 -37q-53 0 -90 36.5t-37 90.5z" />
<glyph unicode="&#xf7;" d="M182 643v154h946v-154h-946zM549 367q0 45 33 76.5t80 31.5q43 0 74.5 -31.5t31.5 -78.5q0 -45 -30.5 -77t-78.5 -32q-45 0 -77.5 33t-32.5 78zM549 1077q0 45 33 77t80 32q43 0 74.5 -32t31.5 -79q0 -45 -30.5 -76.5t-78.5 -31.5q-45 0 -77.5 32.5t-32.5 77.5z" />
<glyph unicode="&#xf8;" horiz-adv-x="1292" d="M82 496q0 113 44 210t122 168.5t183.5 111.5t230.5 40q45 0 84.5 -4t75.5 -13.5t71 -24.5t74 -38l112 123h150l-176 -195q80 -86 117.5 -173t37.5 -193q0 -115 -44 -213t-121.5 -170t-183 -113t-228.5 -41q-80 0 -142.5 15.5t-144.5 56.5l-111 -129h-143l160 195 q-168 170 -168 387zM303 520q0 -78 18.5 -140.5t59.5 -121.5l471 551q-55 43 -101 58.5t-112 15.5q-74 0 -136.5 -27t-106.5 -74t-68.5 -114.5t-24.5 -147.5zM459 176q47 -35 91 -48t101 -13q74 0 136.5 25.5t107.5 72.5t69.5 112.5t24.5 145.5q0 72 -15.5 130t-49.5 124z " />
<glyph unicode="&#xf9;" horiz-adv-x="1206" d="M78 997h147q49 0 78 9.5t51 31.5v-602q0 -80 12.5 -130t41.5 -85q33 -39 83 -60.5t109 -21.5q115 0 182.5 71t67.5 187v387q0 51 -2 83t-10.5 53.5t-24.5 38t-45 38.5h152q47 0 74.5 9.5t49.5 31.5v-825q0 -53 2.5 -84t10.5 -52.5t24.5 -37.5t44.5 -39h-268v141 q-39 -49 -73.5 -81.5t-70.5 -52t-77 -28t-92 -8.5q-109 0 -193 40t-131 112q-35 51 -48 113.5t-13 160.5v387q0 51 -2 83t-10.5 53.5t-25 38t-44.5 38.5zM221 1356l131 135l404 -371z" />
<glyph unicode="&#xfa;" horiz-adv-x="1206" d="M78 997h147q49 0 78 9.5t51 31.5v-602q0 -80 12.5 -130t41.5 -85q33 -39 83 -60.5t109 -21.5q115 0 182.5 71t67.5 187v387q0 51 -2 83t-10.5 53.5t-24.5 38t-45 38.5h152q47 0 74.5 9.5t49.5 31.5v-825q0 -53 2.5 -84t10.5 -52.5t24.5 -37.5t44.5 -39h-268v141 q-39 -49 -73.5 -81.5t-70.5 -52t-77 -28t-92 -8.5q-109 0 -193 40t-131 112q-35 51 -48 113.5t-13 160.5v387q0 51 -2 83t-10.5 53.5t-25 38t-44.5 38.5zM453 1120l405 371l129 -135z" />
<glyph unicode="&#xfb;" horiz-adv-x="1206" d="M78 997h147q49 0 78 9.5t51 31.5v-602q0 -80 12.5 -130t41.5 -85q33 -39 83 -60.5t109 -21.5q115 0 182.5 71t67.5 187v387q0 51 -2 83t-10.5 53.5t-24.5 38t-45 38.5h152q47 0 74.5 9.5t49.5 31.5v-825q0 -53 2.5 -84t10.5 -52.5t24.5 -37.5t44.5 -39h-268v141 q-39 -49 -73.5 -81.5t-70.5 -52t-77 -28t-92 -8.5q-109 0 -193 40t-131 112q-35 51 -48 113.5t-13 160.5v387q0 51 -2 83t-10.5 53.5t-25 38t-44.5 38.5zM274 1133l332 329l326 -329q-74 6 -152 41.5t-174 107.5q-174 -137 -332 -149z" />
<glyph unicode="&#xfc;" horiz-adv-x="1206" d="M78 997h147q49 0 78 9.5t51 31.5v-602q0 -80 12.5 -130t41.5 -85q33 -39 83 -60.5t109 -21.5q115 0 182.5 71t67.5 187v387q0 51 -2 83t-10.5 53.5t-24.5 38t-45 38.5h152q47 0 74.5 9.5t49.5 31.5v-825q0 -53 2.5 -84t10.5 -52.5t24.5 -37.5t44.5 -39h-268v141 q-39 -49 -73.5 -81.5t-70.5 -52t-77 -28t-92 -8.5q-109 0 -193 40t-131 112q-35 51 -48 113.5t-13 160.5v387q0 51 -2 83t-10.5 53.5t-25 38t-44.5 38.5zM309 1309q0 53 38 89t91 36q51 0 87 -37t36 -88q0 -53 -36 -90t-89 -37t-90 36.5t-37 90.5zM674 1309q0 51 38 88 t91 37q49 0 86 -37t37 -90q0 -51 -37 -88t-88 -37q-53 0 -90 36.5t-37 90.5z" />
<glyph unicode="&#xfd;" horiz-adv-x="1148" d="M-43 -387l195 141q35 -20 61.5 -28.5t60.5 -8.5q82 0 142.5 58.5t111.5 187.5l21 57q-25 25 -40 41.5t-26.5 32t-20.5 34.5t-24 52l-286 625q-20 45 -38 76.5t-36.5 53t-40 36t-47.5 26.5l209 9q49 0 65 -7q10 -2 19.5 -15t25.5 -48l330 -743l227 575q33 82 33 131 q0 31 -14.5 53.5t-48.5 44.5h303l-461 -1099q-41 -96 -77 -149.5t-89 -96.5q-119 -94 -293 -94q-66 0 -122 12t-140 43zM438 1120l406 371l129 -135z" />
<glyph unicode="&#xfe;" horiz-adv-x="1284" d="M72 -444q27 20 43 35.5t25.5 37t11.5 54t2 86.5v1441q0 53 -2 84t-10.5 52.5t-25 38t-44.5 38.5h149q47 0 76 9.5t51 31.5v-594q59 72 154.5 114t202.5 42q98 0 195 -41t165 -108q66 -68 101.5 -161t35.5 -202q0 -117 -39 -216t-108.5 -172t-164.5 -114t-208 -41 q-47 0 -82 6.5t-82 22.5l-117 176q70 -33 123.5 -46t118.5 -13q160 0 249 97t89 278q0 84 -23.5 154.5t-66.5 120.5t-103.5 77.5t-134.5 27.5t-140.5 -29.5t-111.5 -82.5q-29 -37 -41 -81t-12 -116v-794q0 -53 2 -85t11.5 -54.5t24.5 -39t44 -34.5h-358z" />
<glyph unicode="&#xff;" horiz-adv-x="1148" d="M-43 -387l195 141q35 -20 61.5 -28.5t60.5 -8.5q82 0 142.5 58.5t111.5 187.5l21 57q-25 25 -40 41.5t-26.5 32t-20.5 34.5t-24 52l-286 625q-20 45 -38 76.5t-36.5 53t-40 36t-47.5 26.5l209 9q49 0 65 -7q10 -2 19.5 -15t25.5 -48l330 -743l227 575q33 82 33 131 q0 31 -14.5 53.5t-48.5 44.5h303l-461 -1099q-41 -96 -77 -149.5t-89 -96.5q-119 -94 -293 -94q-66 0 -122 12t-140 43zM287 1309q0 53 38 89t91 36q51 0 87 -37t36 -88q0 -53 -36 -90t-89 -37t-90 36.5t-37 90.5zM651 1309q0 51 38 88t91 37q49 0 86 -37t37 -90 q0 -51 -37 -88t-88 -37q-53 0 -90 36.5t-37 90.5z" />
<glyph unicode="&#x152;" horiz-adv-x="2289" d="M82 713q0 160 57.5 297t157.5 236.5t237.5 156.5t296.5 57q170 0 300.5 -58.5t252.5 -189.5q4 72 -21.5 126.5t-72.5 84.5h649q70 2 86 7q10 0 16.5 1t22.5 5v-260q-20 27 -42.5 44t-55.5 27t-77 14.5t-107 4.5q-47 0 -88 -2t-107 -11v-405h250q43 0 60.5 2t41.5 12v-207 q-27 27 -57.5 36t-87.5 9h-207v-520q82 -14 141.5 -19t124.5 -5q59 0 108.5 5t96.5 18.5t98.5 35t112.5 55.5l-104 -270h-875q55 39 77 80t22 106v33q-23 -31 -42.5 -53.5t-38 -39.5t-38 -32.5t-43.5 -30.5q-78 -47 -177.5 -72.5t-203.5 -25.5q-166 0 -305.5 56.5 t-241.5 155.5t-159.5 236.5t-57.5 299.5zM328 743q0 -150 44 -274.5t128 -204.5q68 -68 166 -106.5t198 -38.5q53 0 108.5 11t108 31.5t97.5 48.5t77 62q68 70 104 174.5t36 233.5q0 143 -39 259t-110.5 198t-174 125t-231.5 43q-104 0 -202.5 -38t-164.5 -104 q-72 -72 -108.5 -178t-36.5 -242z" />
<glyph unicode="&#x153;" horiz-adv-x="2064" d="M82 489q0 117 43 215.5t120 170t182 111.5t230 40q147 0 256 -56.5t191 -174.5q80 119 182.5 175t239.5 56q104 0 188 -36t144.5 -101.5t92 -158.5t31.5 -208h-768q6 -193 112 -299t290 -106q104 0 189 27.5t177 91.5l-108 -205q-72 -33 -140.5 -46.5t-154.5 -13.5 q-166 0 -280.5 54.5t-194.5 171.5q-96 -117 -207 -171.5t-252 -54.5q-121 0 -224.5 39t-179 107.5t-117.5 164t-42 207.5zM303 518q0 -186 95.5 -294.5t258.5 -108.5q162 0 255.5 93t93.5 255q0 94 -27 171t-74 132t-113.5 86t-148.5 31q-78 0 -140.5 -26t-106.5 -74 t-68.5 -115.5t-24.5 -149.5zM1225 657h532q-10 47 -17 73t-22 50q-31 55 -86 86t-125 31q-213 0 -282 -240z" />
<glyph unicode="&#x178;" horiz-adv-x="1306" d="M-14 1423l219 9h26q25 0 40.5 -2.5t27.5 -12.5t26.5 -30.5t36.5 -57.5l326 -532l273 413q41 61 40 105q0 29 -21.5 59.5t-55.5 48.5h374l-530 -800v-369q0 -53 4 -88t15.5 -62.5t33 -51t56.5 -52.5h-418q31 20 48 40.5t27.5 50.5t13.5 74t3 111v347l-373 600 q-29 45 -49 73.5t-40.5 50t-45.5 39t-57 37.5zM346 1706q0 53 39 91t94 38q53 0 90 -38t37 -91t-38 -92t-91 -39q-55 0 -93 38t-38 93zM743 1708q0 53 39.5 91t94.5 38q53 0 90 -38t37 -91q0 -55 -38 -93t-94 -38q-53 0 -91 39t-38 92z" />
<glyph unicode="&#x2c6;" horiz-adv-x="1067" d="M205 1133l332 329l325 -329q-74 6 -151.5 41.5t-173.5 107.5q-174 -137 -332 -149z" />
<glyph unicode="&#x2dc;" horiz-adv-x="1067" d="M193 1200q12 39 20 64.5t14 41t12.5 25.5t14.5 21q43 61 108 61q23 0 56 -7t94 -26q51 -16 82 -25t47 -13.5t24.5 -5.5t18.5 -1q77 1 188 99q-49 -242 -194 -242q-53 0 -152 33q-49 16 -77.5 25.5t-47 14.5t-31 6t-26.5 1q-37 0 -68.5 -15.5t-82.5 -56.5z" />
<glyph unicode="&#x2000;" horiz-adv-x="988" />
<glyph unicode="&#x2001;" horiz-adv-x="1976" />
<glyph unicode="&#x2002;" horiz-adv-x="988" />
<glyph unicode="&#x2003;" horiz-adv-x="1976" />
<glyph unicode="&#x2004;" horiz-adv-x="658" />
<glyph unicode="&#x2005;" horiz-adv-x="494" />
<glyph unicode="&#x2006;" horiz-adv-x="329" />
<glyph unicode="&#x2007;" horiz-adv-x="329" />
<glyph unicode="&#x2008;" horiz-adv-x="247" />
<glyph unicode="&#x2009;" horiz-adv-x="395" />
<glyph unicode="&#x200a;" horiz-adv-x="109" />
<glyph unicode="&#x2010;" horiz-adv-x="804" d="M72 430l123 154q16 23 34.5 30t59.5 7h229q45 0 76 1t53.5 4t43 9t44.5 16l-117 -155q-18 -25 -34.5 -32t-57.5 -7h-258q-39 0 -65.5 -1t-47 -4t-40 -8.5t-43.5 -13.5z" />
<glyph unicode="&#x2011;" horiz-adv-x="804" d="M72 430l123 154q16 23 34.5 30t59.5 7h229q45 0 76 1t53.5 4t43 9t44.5 16l-117 -155q-18 -25 -34.5 -32t-57.5 -7h-258q-39 0 -65.5 -1t-47 -4t-40 -8.5t-43.5 -13.5z" />
<glyph unicode="&#x2012;" horiz-adv-x="804" d="M72 430l123 154q16 23 34.5 30t59.5 7h229q45 0 76 1t53.5 4t43 9t44.5 16l-117 -155q-18 -25 -34.5 -32t-57.5 -7h-258q-39 0 -65.5 -1t-47 -4t-40 -8.5t-43.5 -13.5z" />
<glyph unicode="&#x2013;" horiz-adv-x="1011" d="M68 430l118 150q10 14 19.5 22t22 12t28.5 5.5t43 1.5h428q45 0 76 1t53.5 4t43 9t44.5 16l-115 -155q-10 -12 -18 -20.5t-20.5 -12.5t-32 -5t-51.5 -1h-443q-41 0 -67.5 -1t-46 -3t-38 -8.5t-44.5 -14.5z" />
<glyph unicode="&#x2014;" horiz-adv-x="1730" d="M72 434l116 141q20 25 42 33t73 8h1141q45 0 75.5 1t53 4.5t43 9.5t45.5 16l-115 -147q-12 -14 -19 -22.5t-20.5 -11.5t-36 -4t-61.5 -1h-1141q-43 0 -67.5 -1t-44 -3t-38 -8.5t-46.5 -14.5z" />
<glyph unicode="&#x2018;" horiz-adv-x="489" d="M129 1178q0 57 28.5 117.5t92.5 138.5q27 35 37 43t24 8q4 0 9.5 -1t13.5 -3l47 -13q-70 -78 -96.5 -115.5t-26.5 -60.5q0 -20 25 -22q51 -8 79.5 -37t28.5 -74q0 -51 -36 -87t-89 -36q-57 0 -97 41t-40 101z" />
<glyph unicode="&#x2019;" horiz-adv-x="489" d="M100 1333q0 51 37 86t90 35q57 0 97.5 -41t40.5 -100q0 -57 -29 -118.5t-92 -137.5q-29 -35 -39 -43t-25 -8q-4 0 -20 4l-49 12q66 72 94 113t28 63q0 16 -24 23q-109 16 -109 112z" />
<glyph unicode="&#x201a;" horiz-adv-x="489" d="M100 129q0 51 37 86t90 35q57 0 97.5 -41t40.5 -100q0 -47 -24 -105.5t-60 -105.5q-29 -35 -45.5 -54.5t-26.5 -29t-17.5 -10.5t-17.5 -1t-14 2l-49 13q66 74 94 114.5t28 63.5q0 16 -24 20q-109 16 -109 113z" />
<glyph unicode="&#x201c;" horiz-adv-x="845" d="M129 1178q0 47 23.5 105t60.5 106q29 35 44 54t25.5 28.5t17.5 10.5t17 1q12 0 17 -2l47 -13q-70 -78 -96.5 -115.5t-26.5 -60.5q0 -20 25 -22q51 -8 79.5 -37t28.5 -74q0 -51 -36 -87t-89 -36q-57 0 -97 41t-40 101zM483 1178q0 61 32 124.5t108 153.5q14 16 24 21.5 t27 5.5q10 0 14 -2l49 -13q-68 -74 -95.5 -113.5t-27.5 -62.5q0 -20 25 -22q51 -8 80 -37t29 -74q0 -51 -36 -87t-89 -36q-59 0 -99.5 41t-40.5 101z" />
<glyph unicode="&#x201d;" horiz-adv-x="845" d="M100 1333q0 51 36 86t89 35q57 0 97 -42t40 -101t-31.5 -123t-107.5 -154q-20 -27 -49 -26q-10 0 -14 2l-49 12q66 72 94 113t28 63q0 16 -24 23q-109 16 -109 112zM457 1333q0 51 35.5 86t89.5 35q57 0 97 -41t40 -100q0 -61 -32 -125t-107 -154q-14 -16 -23.5 -21 t-26.5 -5q-12 0 -16 2l-47 12q68 74 95.5 114t27.5 62q0 16 -25 23q-109 16 -108 112z" />
<glyph unicode="&#x201e;" horiz-adv-x="845" d="M100 129q0 51 37 86t90 35q57 0 97.5 -41t40.5 -100q0 -47 -24 -105.5t-60 -105.5q-29 -35 -45.5 -54.5t-26.5 -29t-17.5 -10.5t-17.5 -1t-14 2l-49 13q66 74 94 114.5t28 63.5q0 16 -24 20q-109 16 -109 113zM457 129q0 49 35.5 85t89.5 36q57 0 97 -41t40 -100 q0 -47 -23.5 -105.5t-60.5 -105.5q-29 -35 -45.5 -54.5t-26.5 -29t-16 -10.5t-17 -1q-10 0 -16 2l-47 13q68 76 95.5 114.5t27.5 63.5q0 16 -25 20q-109 16 -108 113z" />
<glyph unicode="&#x2022;" horiz-adv-x="1423" d="M418 723q0 61 23.5 115.5t64.5 94.5t95.5 63.5t117.5 23.5q59 0 111.5 -23.5t92.5 -63.5t63.5 -94.5t23.5 -113.5q0 -61 -23.5 -115.5t-63.5 -94.5t-93.5 -63.5t-114.5 -23.5t-115.5 23.5t-94.5 63.5t-63.5 93.5t-23.5 114.5z" />
<glyph unicode="&#x2026;" horiz-adv-x="1576" d="M129 117q0 55 40 94t97 39q53 0 92 -40t39 -93q0 -57 -39 -96t-94 -39q-57 0 -96 38.5t-39 96.5zM655 117q0 55 40.5 94t97.5 39q53 0 92 -40t39 -93q0 -57 -39 -96t-94 -39q-57 0 -96.5 38.5t-39.5 96.5zM1180 117q0 55 40 94t97 39q53 0 92 -40t39 -93q0 -57 -39 -96 t-94 -39q-57 0 -96 38.5t-39 96.5z" />
<glyph unicode="&#x202f;" horiz-adv-x="395" />
<glyph unicode="&#x2039;" horiz-adv-x="491" d="M86 528l250 359h63l-127 -359l127 -362h-63z" />
<glyph unicode="&#x203a;" horiz-adv-x="491" d="M94 166l127 362l-127 359h62l252 -359l-250 -362h-64z" />
<glyph unicode="&#x205f;" horiz-adv-x="494" />
<glyph unicode="&#x20ac;" d="M-27 555v115h213v28q0 57 7 113h-220v115h240q29 115 86 213t138 168.5t185.5 110.5t227.5 40q168 0 332 -43v-231q-74 41 -154 65.5t-166 24.5q-82 0 -149.5 -25.5t-121.5 -72t-91 -111t-58 -139.5h566v-115h-586q-2 -20 -2 -41v-39v-31q0 -14 2 -30h504v-115h-486 q20 -84 58.5 -160t94.5 -133t131 -90t167 -33q98 0 190.5 29t178.5 70l-86 -232q-68 -23 -138.5 -32t-142.5 -9q-139 0 -257 41t-207 117t-148.5 185.5t-81.5 246.5h-226z" />
<glyph unicode="&#x2122;" horiz-adv-x="1679" d="M-27 1272l56 162q31 -10 65 -11h430l29 2h22l33 11l-49 -168q-18 39 -37.5 49t-70.5 10h-25q-8 0 -43 -2h-23v-479q0 -29 3.5 -48.5t12.5 -33.5t24.5 -25.5t41.5 -25.5h-297q25 10 40.5 19t23.5 24.5t11 39t3 60.5v469l-18 2h-39h-12q-33 0 -55.5 -2t-41 -8t-38 -16.5 t-46.5 -28.5zM594 713q35 29 50 59.5t24 89.5l65 443q6 37 6 53q0 18 -11 30.5t-48 34.5h242q2 -14 3 -19t9 -22l209 -454l176 415q14 33 17 45.5t3 34.5h250q-66 -20 -65 -71q0 -6 1 -16.5t3 -22.5l69 -465q4 -31 8.5 -49.5t12.5 -32.5t21.5 -26.5t35.5 -26.5h-293 q47 14 63.5 31.5t16.5 58.5q0 10 -1 24.5t-3 30.5l-55 412l-246 -578q-27 20 -44 33.5t-28.5 27t-19.5 29t-18 37.5l-209 453l-62 -428q-4 -27 -5 -36t-1 -15q0 -27 12.5 -42.5t53.5 -37.5h-242z" />
<glyph unicode="&#x25fc;" horiz-adv-x="1003" d="M0 0v1004h1004v-1004h-1004z" />
<glyph unicode="&#xfb01;" horiz-adv-x="1189" d="M70 854l108 143v105q0 90 27.5 152.5t91.5 115.5q117 102 348 103q43 0 73 -3.5t73 -11.5l-154 -168q-31 20 -54.5 27.5t-56.5 7.5q-94 0 -133 -63q-20 -29 -20 -127v-138h530q47 0 76 9.5t51 31.5v-825q0 -53 2 -84t10.5 -52.5t24.5 -37.5t45 -39h-358q29 23 45 39 t24 37.5t10.5 52.5t2.5 84v428q0 78 -5.5 108.5t-23.5 55.5q-23 31 -47.5 40t-81.5 9h-305v-567q0 -49 1 -83t5 -58.5t9 -43t15 -34.5q16 -29 27.5 -41.5t34.5 -26.5h-369q29 20 45.5 37.5t24.5 39t10 53.5t2 83v641h-108zM795 1264q0 55 40 94t97 39q53 0 92 -40t39 -93 q0 -57 -39 -96.5t-96 -39.5q-55 0 -94 39t-39 97z" />
<glyph unicode="&#xfb02;" horiz-adv-x="1187" d="M70 854l108 143v105q0 100 39 170.5t123 124.5q115 70 328 69q23 0 41 -1t38.5 -2t44 -4t58.5 -9q31 -4 49.5 -6t28.5 -2q51 0 100 37v-1266q0 -53 2 -84t10.5 -52.5t24.5 -37.5t45 -39h-360q29 23 46 39t25 37.5t10.5 52.5t2.5 84v1087q-53 23 -105.5 32t-130.5 9 q-111 0 -169 -38.5t-58 -110.5v-12t2 -17v-28v-138h219q14 0 35.5 3.5t40.5 9.5v-191q-20 23 -40 29t-75 6h-180v-567q0 -49 1 -83t5 -58.5t9 -43t15 -34.5q16 -29 27.5 -41.5t34.5 -26.5h-369q29 20 45.5 37.5t24.5 39t10 53.5t2 83v641h-108z" />
</font>
</defs>
</svg>
